<?xml version="1.0" standalone="no"?>
<!DOCTYPE svg PUBLIC "-//W3C//DTD SVG 20010904//EN"
 "http://www.w3.org/TR/2001/REC-SVG-20010904/DTD/svg10.dtd">
<svg version="1.0" xmlns="http://www.w3.org/2000/svg"
 width="260.000000pt" height="260.000000pt" viewBox="0 0 260.000000 260.000000"
 preserveAspectRatio="xMidYMid meet">
<metadata>
Created by potrace 1.14, written by Peter Selinger 2001-2017
</metadata>
<g transform="translate(0.000000,260.000000) scale(0.100000,-0.100000)"
fill="#000000" stroke="none">
<path d="M86 2338 c17 -27 406 -616 682 -1031 l292 -439 0 -364 0 -364 245 0
245 0 0 363 0 364 426 634 c235 349 459 682 499 742 l73 107 -306 0 -307 0
-199 -305 c-110 -168 -245 -378 -301 -468 -84 -134 -105 -162 -125 -162 -19 0
-39 26 -114 146 -50 80 -185 291 -301 468 l-209 321 -304 0 c-240 0 -302 -3
-296 -12z"/>
</g>
</svg>
