<svg xmlns="http://www.w3.org/2000/svg" width="77.152" height="98.801" viewBox="0 0 77.152 98.801">
  <path id="escritura-creativa" d="M8.917,70.111a28.227,28.227,0,1,1,30.585,0,9.4,9.4,0,0,0-4.128,7.254q0,.021,0,.042v2.455a.6.6,0,0,0,.362.551,5.163,5.163,0,0,1,1.906,8.106.6.6,0,0,0,0,.774,5.144,5.144,0,0,1-3.23,8.454.6.6,0,0,0-.506.488,9.987,9.987,0,0,1-9.679,8.376,10.01,10.01,0,0,1-9.713-8.376.6.6,0,0,0-.506-.487,5.144,5.144,0,0,1-3.23-8.454.6.6,0,0,0,0-.774,5.163,5.163,0,0,1,1.906-8.106.6.6,0,0,0,.363-.551V77.39c0-.014,0-.029,0-.043a9.4,9.4,0,0,0-4.127-7.236Zm15.309,33.531a6.961,6.961,0,0,0,6.56-5.044.6.6,0,0,0-.573-.776H18.207a.6.6,0,0,0-.573.777A6.99,6.99,0,0,0,24.226,103.643ZM14.67,94.854l.063,0H33.684a2.233,2.233,0,1,0,0-4.466H14.733a2.233,2.233,0,0,0-.063,4.465ZM12.5,85.189a2.235,2.235,0,0,0,2.234,2.234H33.684a2.233,2.233,0,0,0,.007-4.466H14.726A2.235,2.235,0,0,0,12.5,85.189Zm4.113-36.347a.6.6,0,0,0-.6.6c0,.209.04,29.391.041,29.946a.6.6,0,0,0,.6.6h5.473a.6.6,0,0,0,.6-.6V49.442a.6.6,0,0,0-.6-.6ZM31.766,79.988a.6.6,0,0,0,.6-.6c0-.548.039-29.732.04-29.946a.6.6,0,0,0-.6-.6H26.292a.6.6,0,0,0-.6.6V79.388a.6.6,0,0,0,.6.6ZM24.2,21.123a25.262,25.262,0,0,0-13.676,46.5h0a11.7,11.7,0,0,1,1.518,1.19.6.6,0,0,0,1-.444V47.358a2.094,2.094,0,0,1,.162-.673l7.816-15.313A3.552,3.552,0,0,1,24.2,29.426h0a3.551,3.551,0,0,1,3.177,1.943l7.833,15.314a2.2,2.2,0,0,1,.163.675V68.365a.6.6,0,0,0,1,.444,11.7,11.7,0,0,1,1.519-1.191h0a25.262,25.262,0,0,0-13.7-46.5ZM-6.629,62.485h0a1.482,1.482,0,0,1,2.025.544,1.484,1.484,0,0,1-.543,2.027l-2.022,1.168a1.485,1.485,0,0,1-2.027-.543,1.484,1.484,0,0,1,.543-2.027Zm62.223,3.722-2.022-1.168a1.484,1.484,0,0,1,1.483-2.57l2.023,1.168a1.484,1.484,0,0,1-1.483,2.57Zm-68.478-21.3h2.336a1.484,1.484,0,0,1,1.484,1.483,1.484,1.484,0,0,1-1.484,1.483h-2.336a1.483,1.483,0,0,1-1.483-1.483A1.483,1.483,0,0,1-12.884,44.91ZM5.8,47.877a1.483,1.483,0,0,1-1.483-1.483A19.9,19.9,0,0,1,10.9,31.678a1.485,1.485,0,0,1,2.1.1h0a1.483,1.483,0,0,1-.105,2.1A16.933,16.933,0,0,0,7.283,46.393,1.484,1.484,0,0,1,5.8,47.877Zm55.5-2.986a1.483,1.483,0,0,1,0,2.967H58.966a1.483,1.483,0,1,1,0-2.967ZM17.4,45a.6.6,0,0,0,.534.873H30.483A.6.6,0,0,0,31.017,45l-6.281-12.28a.6.6,0,0,0-1.069,0ZM-5.155,27.728a1.484,1.484,0,0,1,.543,2.027,1.485,1.485,0,0,1-2.027.543L-8.66,29.131A1.484,1.484,0,0,1-9.2,27.1h0a1.483,1.483,0,0,1,2.026-.543Zm58.718-.016,2.023-1.168a1.484,1.484,0,0,1,1.483,2.57l-2.022,1.168a1.484,1.484,0,0,1-1.483-2.57ZM5.537,17.03,4.37,15.007a1.483,1.483,0,0,1,.544-2.025h0a1.479,1.479,0,0,1,2.024.545l1.167,2.023a1.483,1.483,0,0,1-.544,2.025h0A1.483,1.483,0,0,1,5.537,17.03Zm37.327-.01a1.485,1.485,0,0,1-2.027.544h0a1.484,1.484,0,0,1-.543-2.027l1.168-2.022a1.483,1.483,0,0,1,2.026-.544h0A1.484,1.484,0,0,1,44.031,15ZM25.683,11.626a1.483,1.483,0,1,1-2.967,0V9.292a1.483,1.483,0,0,1,2.967,0Z" transform="translate(14.367 -7.808)" fill="#094293"/>
</svg>
