<svg xmlns="http://www.w3.org/2000/svg" width="79.168" height="100" viewBox="0 0 79.168 100">
  <path id="guion-cinematografico" d="M295.168,302.307a3.828,3.828,0,0,0-3.839-3.809H252.384s36.4-18.749,36.511-18.818a3.978,3.978,0,0,0,1.3-4.941l-3.494-6.682a3.856,3.856,0,0,0-5.177-1.627L219.1,298.571a3.822,3.822,0,0,0-3.1,3.736v33.811a1.477,1.477,0,0,0,2.954,0V313.645h73.261V349.97a.884.884,0,0,1-.886.879h-6.282V332.992a1.477,1.477,0,0,0-2.953,0V363.07H250.983v-41.3h31.111v4.467a1.477,1.477,0,0,0,2.953,0v-5a2.407,2.407,0,0,0-2.414-2.4H250.444a2.408,2.408,0,0,0-2.415,2.4v29.619H219.84a.883.883,0,0,1-.886-.879v-6.9a1.477,1.477,0,0,0-2.954,0v6.9a3.828,3.828,0,0,0,3.839,3.809h28.19V363.6a2.409,2.409,0,0,0,2.415,2.4h32.188a2.408,2.408,0,0,0,2.415-2.4v-9.825h6.282a3.828,3.828,0,0,0,3.839-3.809ZM257.411,355.17a1.466,1.466,0,1,0,0,2.931h4.123a1.466,1.466,0,1,0,0-2.931Zm19.338-3.682a1.471,1.471,0,0,0-1.477-1.465H257.411a1.465,1.465,0,1,0,0,2.93h17.861A1.471,1.471,0,0,0,276.749,351.488Zm-1.477-7.393H257.411a1.465,1.465,0,1,0,0,2.93h17.861a1.465,1.465,0,1,0,0-2.93Zm-17.861-3h4.123a1.465,1.465,0,1,0,0-2.93h-4.123a1.465,1.465,0,1,0,0,2.93Zm17.861-8.859H257.411a1.466,1.466,0,1,0,0,2.931h17.861a1.466,1.466,0,1,0,0-2.931Zm-17.861-3h4.123a1.465,1.465,0,1,0,0-2.93h-4.123a1.465,1.465,0,1,0,0,2.93Zm30.5-18.525,4.308-4.274v4.274Zm4.307-8.417-8.484,8.417H273.456l9.359-9.286h8.514A.883.883,0,0,1,292.214,302.3Zm-73.26,8.417v-.4l8.95-8.881h10.274l-9.359,9.286Zm14.042,0,9.359-9.286h8.828l-9.359,9.286Zm27.455,0,1.78-1.766a1.456,1.456,0,0,0,0-2.072,1.485,1.485,0,0,0-2.088,0l-3.869,3.838H246l9.359-9.286h10.274l-.645.64a1.458,1.458,0,0,0,0,2.072,1.486,1.486,0,0,0,2.089,0l2.733-2.712h8.828l-9.36,9.286Zm-41.5-8.407a.876.876,0,0,1,.473-.773,1.488,1.488,0,0,0,.512-.106h3.789l-4.774,4.737Zm18.2-3.809,2.263-7.088,7.836-4.034L243.7,298.5Zm-3.1,0H225.65l10.06-5.179Zm26.024-17.725-4,12.519-9.119,4.7,4-12.52Zm-.289,10.61,4-12.519,7.836-4.034-4,12.519Zm23.1-22.352a.887.887,0,0,1,1.188.366l-3.623,11.349-9.119,4.7,4-12.52Zm1.273,9.806,1.84-5.762,1.576,3.013a.881.881,0,0,1,.065.165c0,.009,0,.018.006.027a.779.779,0,0,1,.025.143.048.048,0,0,1,0,.012.874.874,0,0,1-.194.609.042.042,0,0,0-.007.011,1.067,1.067,0,0,1-.1.1l-.023.022a.843.843,0,0,1-.149.1Z" transform="translate(-216 -266)" fill="#094293"/>
</svg>
