<svg id="Youtube" xmlns="http://www.w3.org/2000/svg" width="51" height="51" viewBox="0 0 51 51">
  <circle id="relleno" cx="21" cy="21" r="21" transform="translate(5 4)" fill="#fff"/>
  <path id="Fill-207" d="M38.25,26.463A38.581,38.581,0,0,1,38,30.591a5.513,5.513,0,0,1-1.014,2.531A3.642,3.642,0,0,1,34.427,34.2c-3.568.258-8.927.266-8.927.266s-6.63-.061-8.67-.255a4.326,4.326,0,0,1-2.811-1.09,5.513,5.513,0,0,1-1.014-2.531,38.581,38.581,0,0,1-.255-4.128V24.528a38.532,38.532,0,0,1,.255-4.126,5.517,5.517,0,0,1,1.014-2.532,3.642,3.642,0,0,1,2.555-1.079c3.568-.258,8.922-.258,8.922-.258h.01s5.353,0,8.922.258a3.642,3.642,0,0,1,2.555,1.079A5.517,5.517,0,0,1,38,20.4a38.532,38.532,0,0,1,.255,4.126ZM25.5,0A25.5,25.5,0,1,0,51,25.5,25.5,25.5,0,0,0,25.5,0Z" fill="#ea412c"/>
  <path id="Fill-208" d="M22.868,28.807l6.89-3.57-6.891-3.6Z" fill="#ea412c"/>
</svg>
