<?xml version="1.0" encoding="UTF-8" standalone="no"?>
<!DOCTYPE svg PUBLIC "-//W3C//DTD SVG 1.1//EN" "http://www.w3.org/Graphics/SVG/1.1/DTD/svg11.dtd">
<svg width="100%" height="100%" viewBox="0 0 560 289" version="1.1" xmlns="http://www.w3.org/2000/svg" xmlns:xlink="http://www.w3.org/1999/xlink" xml:space="preserve" xmlns:serif="http://www.serif.com/" style="fill-rule:evenodd;clip-rule:evenodd;stroke-linejoin:round;stroke-miterlimit:2;">
    <g transform="matrix(1,0,0,1,-1798.7,-1579.32)">
        <g transform="matrix(1,0,0,1,796.728,1446.82)">
            <g transform="matrix(1,0,0,1,1256.62,416)">
                <rect x="1.8" y="-20.1" width="2.13" height="20.1" style="fill:rgb(50,25,20);fill-rule:nonzero;"/>
                <path d="M13.969,0.3C17.239,0.3 19.639,-1.41 20.359,-4.38L20.479,-4.38L20.479,0L22.429,0L22.429,-20.1L20.299,-20.1L20.299,-10.68L20.149,-10.68C19.489,-13.23 17.299,-15.12 13.789,-15.12C9.229,-15.12 6.589,-11.91 6.589,-7.41C6.589,-2.91 9.229,0.3 13.969,0.3ZM8.749,-7.41C8.749,-11.7 11.059,-13.14 14.449,-13.14C18.109,-13.14 20.299,-11.1 20.299,-7.44L20.299,-7.17C20.299,-3.66 17.989,-1.65 14.509,-1.65C11.029,-1.65 8.749,-3.12 8.749,-7.41Z" style="fill:rgb(50,25,20);fill-rule:nonzero;"/>
                <path d="M30.188,0.3C33.638,0.3 36.248,-1.26 37.118,-3.99L37.268,-3.99L37.268,0L39.188,0L39.188,-9.27C39.188,-12.54 37.268,-15.12 32.768,-15.12C28.208,-15.12 25.628,-12.57 25.628,-9.45L25.628,-9.33L27.758,-9.33L27.758,-9.45C27.758,-12.06 29.438,-13.2 32.618,-13.2C35.858,-13.2 37.118,-12.06 37.118,-9.18L37.118,-8.04L30.068,-7.26C27.308,-6.96 25.298,-5.91 25.298,-3.48C25.298,-1.08 27.278,0.3 30.188,0.3ZM27.428,-3.63C27.428,-5.16 28.508,-5.7 30.728,-5.91L37.118,-6.63L37.118,-6.51C37.118,-2.94 34.268,-1.35 30.668,-1.35C28.418,-1.35 27.428,-2.13 27.428,-3.63Z" style="fill:rgb(50,25,20);fill-rule:nonzero;"/>
                <path d="M56.788,0L56.788,-1.89L47.188,-1.89L44.518,-1.83L44.518,-1.98L47.188,-4.29L56.338,-12.93L56.338,-14.82L42.208,-14.82L42.208,-12.9L50.338,-12.9L53.458,-12.96L53.458,-12.81L50.338,-10.05L41.758,-1.86L41.758,0L56.788,0Z" style="fill:rgb(50,25,20);fill-rule:nonzero;"/>
                <rect x="59.447" y="-20.1" width="2.13" height="20.1" style="fill:rgb(50,25,20);fill-rule:nonzero;"/>
                <path d="M72.276,0.3C76.416,0.3 79.476,-1.83 79.476,-4.92L79.476,-5.13L77.346,-5.13L77.346,-4.92C77.346,-2.76 75.726,-1.47 72.246,-1.47C68.316,-1.47 66.606,-3.48 66.486,-6.81L79.536,-6.81C79.626,-7.2 79.686,-7.65 79.686,-8.19C79.686,-12.6 76.596,-15.12 72.246,-15.12C67.476,-15.12 64.476,-11.91 64.476,-7.41C64.476,-2.7 67.506,0.3 72.276,0.3ZM72.216,-13.35C75.696,-13.35 77.676,-11.7 77.676,-8.58L77.676,-8.13L66.486,-8.13C66.636,-11.37 68.376,-13.35 72.216,-13.35Z" style="fill:rgb(50,25,20);fill-rule:nonzero;"/>
                <path d="M86.695,0.3C90.145,0.3 92.755,-1.26 93.625,-3.99L93.775,-3.99L93.775,0L95.695,0L95.695,-9.27C95.695,-12.54 93.775,-15.12 89.275,-15.12C84.715,-15.12 82.135,-12.57 82.135,-9.45L82.135,-9.33L84.265,-9.33L84.265,-9.45C84.265,-12.06 85.945,-13.2 89.125,-13.2C92.365,-13.2 93.625,-12.06 93.625,-9.18L93.625,-8.04L86.575,-7.26C83.815,-6.96 81.805,-5.91 81.805,-3.48C81.805,-1.08 83.785,0.3 86.695,0.3ZM83.935,-3.63C83.935,-5.16 85.015,-5.7 87.235,-5.91L93.625,-6.63L93.625,-6.51C93.625,-2.94 90.775,-1.35 87.175,-1.35C84.925,-1.35 83.935,-2.13 83.935,-3.63Z" style="fill:rgb(50,25,20);fill-rule:nonzero;"/>
                <path d="M111.934,0.3C116.074,0.3 119.134,-1.83 119.134,-4.92L119.134,-5.13L117.004,-5.13L117.004,-4.92C117.004,-2.76 115.384,-1.47 111.904,-1.47C107.974,-1.47 106.264,-3.48 106.144,-6.81L119.194,-6.81C119.284,-7.2 119.344,-7.65 119.344,-8.19C119.344,-12.6 116.254,-15.12 111.904,-15.12C107.134,-15.12 104.134,-11.91 104.134,-7.41C104.134,-2.7 107.164,0.3 111.934,0.3ZM111.874,-13.35C115.354,-13.35 117.334,-11.7 117.334,-8.58L117.334,-8.13L106.144,-8.13C106.294,-11.37 108.034,-13.35 111.874,-13.35Z" style="fill:rgb(50,25,20);fill-rule:nonzero;"/>
                <path d="M131.333,0L131.333,-1.95L128.633,-1.95C126.473,-1.95 125.453,-2.52 125.453,-4.59L125.453,-12.99L131.333,-12.99L131.333,-14.82L125.453,-14.82L125.453,-18.36L123.293,-18.36L123.293,-14.82L120.653,-14.82L120.653,-12.99L123.293,-12.99L123.293,-4.71C123.293,-1.23 125.183,0 128.123,0L131.333,0Z" style="fill:rgb(50,25,20);fill-rule:nonzero;"/>
                <path d="M137.862,0.3C141.312,0.3 143.922,-1.26 144.792,-3.99L144.942,-3.99L144.942,0L146.862,0L146.862,-9.27C146.862,-12.54 144.942,-15.12 140.442,-15.12C135.882,-15.12 133.302,-12.57 133.302,-9.45L133.302,-9.33L135.432,-9.33L135.432,-9.45C135.432,-12.06 137.112,-13.2 140.292,-13.2C143.532,-13.2 144.792,-12.06 144.792,-9.18L144.792,-8.04L137.742,-7.26C134.982,-6.96 132.972,-5.91 132.972,-3.48C132.972,-1.08 134.952,0.3 137.862,0.3ZM135.102,-3.63C135.102,-5.16 136.182,-5.7 138.402,-5.91L144.792,-6.63L144.792,-6.51C144.792,-2.94 141.942,-1.35 138.342,-1.35C136.092,-1.35 135.102,-2.13 135.102,-3.63Z" style="fill:rgb(50,25,20);fill-rule:nonzero;"/>
                <path d="M162.41,-1.2C165.83,-1.2 168.02,-2.88 168.62,-5.16L168.77,-5.16L168.77,-1.29C168.77,2.4 167.27,3.57 163.43,3.57C160.13,3.57 158.39,2.55 158.39,-0.06L156.26,-0.06C156.26,3.39 159.32,5.4 163.34,5.4C167.81,5.4 170.9,3.48 170.9,-1.41L170.9,-14.82L168.98,-14.82L168.98,-11.01L168.83,-11.01C168.23,-13.65 165.77,-15.12 162.65,-15.12C158.09,-15.12 155.3,-12.21 155.3,-8.16C155.3,-4.11 158,-1.2 162.41,-1.2ZM157.43,-8.16C157.43,-11.94 159.8,-13.23 163.13,-13.23C166.55,-13.23 168.77,-11.49 168.77,-8.58L168.77,-8.07C168.77,-4.92 166.64,-3.09 162.98,-3.09C159.77,-3.09 157.43,-4.38 157.43,-8.16Z" style="fill:rgb(50,25,20);fill-rule:nonzero;"/>
                <path d="M176.71,-16.71L176.71,-20.1L174.58,-20.1L174.58,-16.71L176.71,-16.71ZM176.71,0L176.71,-14.82L174.58,-14.82L174.58,0L176.71,0Z" style="fill:rgb(50,25,20);fill-rule:nonzero;"/>
                <path d="M186.749,0.3C190.019,0.3 192.419,-1.41 193.139,-4.38L193.259,-4.38L193.259,0L195.209,0L195.209,-20.1L193.079,-20.1L193.079,-10.68L192.929,-10.68C192.269,-13.23 190.079,-15.12 186.569,-15.12C182.009,-15.12 179.369,-11.91 179.369,-7.41C179.369,-2.91 182.009,0.3 186.749,0.3ZM181.529,-7.41C181.529,-11.7 183.839,-13.14 187.229,-13.14C190.889,-13.14 193.079,-11.1 193.079,-7.44L193.079,-7.17C193.079,-3.66 190.769,-1.65 187.289,-1.65C183.809,-1.65 181.529,-3.12 181.529,-7.41Z" style="fill:rgb(50,25,20);fill-rule:nonzero;"/>
                <path d="M206.118,0.3C210.978,0.3 214.188,-2.91 214.188,-7.41C214.188,-11.91 210.978,-15.12 206.118,-15.12C201.288,-15.12 198.078,-11.91 198.078,-7.41C198.078,-2.91 201.288,0.3 206.118,0.3ZM206.118,-1.62C202.038,-1.62 200.178,-3.81 200.178,-7.41C200.178,-10.98 202.038,-13.2 206.118,-13.2C210.198,-13.2 212.088,-10.98 212.088,-7.41C212.088,-3.81 210.198,-1.62 206.118,-1.62Z" style="fill:rgb(50,25,20);fill-rule:nonzero;"/>
                <path d="M219.217,-16.71L219.217,-20.1L217.087,-20.1L217.087,-16.71L219.217,-16.71ZM219.217,0L219.217,-14.82L217.087,-14.82L217.087,0L219.217,0Z" style="fill:rgb(50,25,20);fill-rule:nonzero;"/>
                <rect x="222.866" y="-20.1" width="2.13" height="20.1" style="fill:rgb(50,25,20);fill-rule:nonzero;"/>
                <path d="M232.756,0.3C236.206,0.3 238.816,-1.26 239.686,-3.99L239.836,-3.99L239.836,0L241.756,0L241.756,-9.27C241.756,-12.54 239.836,-15.12 235.336,-15.12C230.776,-15.12 228.196,-12.57 228.196,-9.45L228.196,-9.33L230.326,-9.33L230.326,-9.45C230.326,-12.06 232.006,-13.2 235.186,-13.2C238.426,-13.2 239.686,-12.06 239.686,-9.18L239.686,-8.04L232.636,-7.26C229.876,-6.96 227.866,-5.91 227.866,-3.48C227.866,-1.08 229.846,0.3 232.756,0.3ZM229.996,-3.63C229.996,-5.16 231.076,-5.7 233.296,-5.91L239.686,-6.63L239.686,-6.51C239.686,-2.94 236.836,-1.35 233.236,-1.35C230.986,-1.35 229.996,-2.13 229.996,-3.63Z" style="fill:rgb(50,25,20);fill-rule:nonzero;"/>
                <path d="M247.475,0L247.475,-8.04C247.475,-11.37 248.795,-13.26 251.795,-13.26C254.375,-13.26 255.425,-12.03 255.425,-9.51L255.425,-8.37L257.555,-8.37L257.555,-9.84C257.555,-12.6 256.055,-15.12 252.635,-15.12C249.545,-15.12 247.865,-13.14 247.415,-10.77L247.265,-10.77L247.265,-14.82L245.345,-14.82L245.345,0L247.475,0Z" style="fill:rgb(50,25,20);fill-rule:nonzero;"/>
                <path d="M262.224,-16.71L262.224,-20.1L260.094,-20.1L260.094,-16.71L262.224,-16.71ZM262.224,0L262.224,-14.82L260.094,-14.82L260.094,0L262.224,0Z" style="fill:rgb(50,25,20);fill-rule:nonzero;"/>
                <path d="M269.983,0.3C273.433,0.3 276.043,-1.26 276.913,-3.99L277.063,-3.99L277.063,0L278.983,0L278.983,-9.27C278.983,-12.54 277.063,-15.12 272.563,-15.12C268.003,-15.12 265.423,-12.57 265.423,-9.45L265.423,-9.33L267.553,-9.33L267.553,-9.45C267.553,-12.06 269.233,-13.2 272.413,-13.2C275.653,-13.2 276.913,-12.06 276.913,-9.18L276.913,-8.04L269.863,-7.26C267.103,-6.96 265.093,-5.91 265.093,-3.48C265.093,-1.08 267.073,0.3 269.983,0.3ZM267.223,-3.63C267.223,-5.16 268.303,-5.7 270.523,-5.91L276.913,-6.63L276.913,-6.51C276.913,-2.94 274.063,-1.35 270.463,-1.35C268.213,-1.35 267.223,-2.13 267.223,-3.63Z" style="fill:rgb(50,25,20);fill-rule:nonzero;"/>
            </g>
            <g transform="matrix(1,0,0,1,1041.62,368)">
                <path d="M54.6,1.5C87.45,1.5 103.95,-15 103.95,-42L103.95,-100.5L81.45,-100.5L81.45,-43.65C81.45,-26.55 75.15,-20.4 54.6,-20.4C34.2,-20.4 27.75,-26.55 27.75,-43.65L27.75,-100.5L5.25,-100.5L5.25,-42C5.25,-15 21.9,1.5 54.6,1.5Z" style="fill:rgb(0,64,151);fill-rule:nonzero;"/>
                <path d="M148.35,-7.65C165.15,-7.65 174,-15.3 176.4,-26.4L177.6,-26.4L177.6,-9.45C177.6,5.25 173.25,8.25 158.85,8.25C143.55,8.25 140.25,5.7 140.25,-2.7L117.75,-2.7C117.75,16.2 133.05,27 157.35,27C184.2,27 200.1,15.3 200.1,-10.95L200.1,-75.15L179.1,-75.15L179.1,-57L177.9,-57C175.5,-70.05 164.55,-76.65 149.25,-76.65C126.75,-76.65 113.1,-63.15 113.1,-42.15C113.1,-21 126,-7.65 148.35,-7.65ZM135.75,-42.15C135.75,-53.25 142.05,-57.15 156.45,-57.15C170.4,-57.15 177.6,-53.25 177.6,-43.05L177.6,-41.4C177.6,-31.05 170.55,-27 156.15,-27C142.05,-27 135.75,-31.05 135.75,-42.15Z" style="fill:rgb(0,64,151);fill-rule:nonzero;"/>
                <path d="M235.2,1.5C251.85,1.5 262.35,-5.55 265.8,-17.25L267,-17.25L267,0L288,0L288,-44.1C288,-63.75 276.15,-76.65 251.1,-76.65C226.35,-76.65 210.75,-63.75 210.75,-45.15L210.75,-44.7L233.4,-44.7L233.4,-45.3C233.4,-53.85 238.05,-56.85 249.45,-56.85C261.45,-56.85 265.8,-54.15 265.8,-44.4L265.8,-41.55L233.55,-38.25C217.5,-36.6 209.25,-29.7 209.25,-18.6C209.25,-6 219,1.5 235.2,1.5ZM231.9,-20.1C231.9,-23.7 234.3,-25.2 239.7,-25.65L265.8,-28.65C265.2,-18 256.95,-14.4 241.65,-14.4C235.05,-14.4 231.9,-16.05 231.9,-20.1Z" style="fill:rgb(0,64,151);fill-rule:nonzero;"/>
                <path d="M321.9,0L321.9,-43.5C321.9,-52.95 325.5,-57.6 335.55,-57.6C344.7,-57.6 348,-54 348,-45.75L348,-37.95L370.5,-37.95L370.5,-50.4C370.5,-65.1 363.6,-76.65 346.8,-76.65C331.65,-76.65 323.7,-67.35 321.6,-55.2L320.25,-55.2L320.25,-75.15L299.4,-75.15L299.4,0L321.9,0Z" style="fill:rgb(0,64,151);fill-rule:nonzero;"/>
                <path d="M431.55,0L431.55,-20.25L418.05,-20.25C410.1,-20.25 407.25,-22.2 407.25,-29.7L407.25,-56.55L431.55,-56.55L431.55,-75.15L407.25,-75.15L407.25,-89.7L384.75,-89.7L384.75,-75.15L372.9,-75.15L372.9,-56.55L384.75,-56.55L384.75,-27.15C384.75,-8.25 395.4,0 412.95,0L431.55,0Z" style="fill:rgb(0,64,151);fill-rule:nonzero;"/>
                <path d="M479.85,1.5C503.7,1.5 519.6,-9.9 519.6,-26.25L519.6,-27.9L497.1,-27.9L497.1,-26.4C497.1,-19.95 492.45,-16.5 479.1,-16.5C464.55,-16.5 459.15,-21.45 458.55,-33L519.75,-33C520.05,-35.55 520.35,-37.5 520.35,-40.2C520.35,-63.75 504,-76.65 479.4,-76.65C454.65,-76.65 437.7,-61.5 437.7,-37.5C437.7,-10.8 454.8,1.5 479.85,1.5ZM478.95,-59.1C492.15,-59.1 498.15,-54.75 498.75,-44.85L458.85,-44.85C459.9,-54.6 465.6,-59.1 478.95,-59.1Z" style="fill:rgb(0,64,151);fill-rule:nonzero;"/>
            </g>
            <g transform="matrix(1,0,0,1,1003.62,233)">
                <path d="M65.55,0L65.55,-33.15L110.85,-100.5L82.95,-100.5L63.75,-71.1L55.35,-57.6L53.7,-57.6L45.3,-71.1L26.1,-100.5L-1.65,-100.5L42.9,-33.3L42.9,0L65.55,0Z" style="fill:rgb(0,64,151);fill-rule:nonzero;"/>
                <path d="M146.25,1.5C166.05,1.5 175.2,-10.35 177.15,-22.95L178.35,-22.95L178.35,0L199.35,0L199.35,-75.15L176.85,-75.15L176.85,-37.05C176.85,-24.3 171.6,-18.6 156.9,-18.6C142.65,-18.6 137.55,-23.7 137.55,-35.85L137.55,-75.15L115.05,-75.15L115.05,-28.35C115.05,-11.55 125.1,1.5 146.25,1.5Z" style="fill:rgb(0,64,151);fill-rule:nonzero;"/>
                <path d="M233.4,0L233.4,-43.5C233.4,-52.95 237,-57.6 247.05,-57.6C256.2,-57.6 259.5,-54 259.5,-45.75L259.5,-37.95L282,-37.95L282,-50.4C282,-65.1 275.1,-76.65 258.3,-76.65C243.15,-76.65 235.2,-67.35 233.1,-55.2L231.75,-55.2L231.75,-75.15L210.9,-75.15L210.9,0L233.4,0Z" style="fill:rgb(0,64,151);fill-rule:nonzero;"/>
                <path d="M312.6,0L312.6,-43.5C312.6,-52.95 316.2,-57.6 326.25,-57.6C335.4,-57.6 338.7,-54 338.7,-45.75L338.7,-37.95L361.2,-37.95L361.2,-50.4C361.2,-65.1 354.3,-76.65 337.5,-76.65C322.35,-76.65 314.4,-67.35 312.3,-55.2L310.95,-55.2L310.95,-75.15L290.1,-75.15L290.1,0L312.6,0Z" style="fill:rgb(0,64,151);fill-rule:nonzero;"/>
                <path d="M409.2,1.5C433.05,1.5 448.95,-9.9 448.95,-26.25L448.95,-27.9L426.45,-27.9L426.45,-26.4C426.45,-19.95 421.8,-16.5 408.45,-16.5C393.9,-16.5 388.5,-21.45 387.9,-33L449.1,-33C449.4,-35.55 449.7,-37.5 449.7,-40.2C449.7,-63.75 433.35,-76.65 408.75,-76.65C384,-76.65 367.05,-61.5 367.05,-37.5C367.05,-10.8 384.15,1.5 409.2,1.5ZM408.3,-59.1C421.5,-59.1 427.5,-54.75 428.1,-44.85L388.2,-44.85C389.25,-54.6 394.95,-59.1 408.3,-59.1Z" style="fill:rgb(0,64,151);fill-rule:nonzero;"/>
            </g>
        </g>
    </g>
</svg>
