<?xml version="1.0" encoding="UTF-8" standalone="no"?>
<!DOCTYPE svg PUBLIC "-//W3C//DTD SVG 1.1//EN" "http://www.w3.org/Graphics/SVG/1.1/DTD/svg11.dtd">
<svg width="100%" height="100%" viewBox="0 0 560 289" version="1.1" xmlns="http://www.w3.org/2000/svg" xmlns:xlink="http://www.w3.org/1999/xlink" xml:space="preserve" xmlns:serif="http://www.serif.com/" style="fill-rule:evenodd;clip-rule:evenodd;stroke-linejoin:round;stroke-miterlimit:2;">
    <g transform="matrix(1,0,0,1,-917.078,-1579.32)">
        <g transform="matrix(1,0,0,1,796.728,1446.82)">
            <g transform="matrix(1,0,0,1,375,416)">
                <path d="M17.07,0L17.07,-1.95L3.93,-1.95L3.93,-9.15L16.62,-9.15L16.62,-11.07L3.93,-11.07L3.93,-18.15L17.07,-18.15L17.07,-20.1L1.8,-20.1L1.8,0L17.07,0Z" style="fill:rgb(50,25,20);fill-rule:nonzero;"/>
                <path d="M26.629,0.3C30.469,0.3 33.229,-1.17 33.229,-3.96C33.229,-6.36 31.519,-7.44 28.339,-7.89L24.709,-8.4C22.249,-8.76 21.469,-9.3 21.469,-10.83C21.469,-12.6 22.759,-13.35 25.879,-13.35C29.659,-13.35 30.829,-12.15 30.829,-9.93L30.829,-9.78L32.959,-9.78L32.959,-9.84C32.959,-13.32 30.199,-15.12 25.939,-15.12C21.859,-15.12 19.369,-13.47 19.369,-10.86C19.369,-8.4 21.079,-7.35 23.779,-6.99L27.739,-6.42C30.199,-6.03 31.129,-5.52 31.129,-3.96C31.129,-2.25 29.989,-1.47 26.659,-1.47C23.029,-1.47 21.559,-2.34 21.559,-4.83L21.559,-5.01L19.429,-5.01L19.429,-4.95C19.429,-1.53 22.069,0.3 26.629,0.3Z" style="fill:rgb(50,25,20);fill-rule:nonzero;"/>
                <path d="M43.178,0.3C47.318,0.3 50.558,-2.16 50.558,-5.73L50.558,-5.97L48.458,-5.97L48.458,-5.79C48.458,-3.15 46.538,-1.65 43.148,-1.65C39.188,-1.65 37.478,-3.78 37.478,-7.41C37.478,-11.04 39.188,-13.17 43.148,-13.17C46.538,-13.17 48.458,-11.67 48.458,-9.03L48.458,-8.85L50.558,-8.85L50.558,-9.09C50.558,-12.66 47.318,-15.12 43.178,-15.12C38.438,-15.12 35.348,-11.91 35.348,-7.41C35.348,-2.91 38.438,0.3 43.178,0.3Z" style="fill:rgb(50,25,20);fill-rule:nonzero;"/>
                <path d="M55.618,0L55.618,-8.04C55.618,-11.37 56.938,-13.26 59.938,-13.26C62.518,-13.26 63.568,-12.03 63.568,-9.51L63.568,-8.37L65.698,-8.37L65.698,-9.84C65.698,-12.6 64.198,-15.12 60.778,-15.12C57.688,-15.12 56.008,-13.14 55.558,-10.77L55.408,-10.77L55.408,-14.82L53.488,-14.82L53.488,0L55.618,0Z" style="fill:rgb(50,25,20);fill-rule:nonzero;"/>
                <path d="M70.367,-16.71L70.367,-20.1L68.237,-20.1L68.237,-16.71L70.367,-16.71ZM70.367,0L70.367,-14.82L68.237,-14.82L68.237,0L70.367,0Z" style="fill:rgb(50,25,20);fill-rule:nonzero;"/>
                <path d="M83.106,0L83.106,-1.95L80.406,-1.95C78.246,-1.95 77.226,-2.52 77.226,-4.59L77.226,-12.99L83.106,-12.99L83.106,-14.82L77.226,-14.82L77.226,-18.36L75.066,-18.36L75.066,-14.82L72.426,-14.82L72.426,-12.99L75.066,-12.99L75.066,-4.71C75.066,-1.23 76.956,0 79.896,0L83.106,0Z" style="fill:rgb(50,25,20);fill-rule:nonzero;"/>
                <path d="M92.785,0.3C97.645,0.3 100.855,-2.91 100.855,-7.41C100.855,-11.91 97.645,-15.12 92.785,-15.12C87.955,-15.12 84.745,-11.91 84.745,-7.41C84.745,-2.91 87.955,0.3 92.785,0.3ZM92.785,-1.62C88.705,-1.62 86.845,-3.81 86.845,-7.41C86.845,-10.98 88.705,-13.2 92.785,-13.2C96.865,-13.2 98.755,-10.98 98.755,-7.41C98.755,-3.81 96.865,-1.62 92.785,-1.62Z" style="fill:rgb(50,25,20);fill-rule:nonzero;"/>
                <path d="M105.884,0L105.884,-8.04C105.884,-11.37 107.204,-13.26 110.204,-13.26C112.784,-13.26 113.834,-12.03 113.834,-9.51L113.834,-8.37L115.964,-8.37L115.964,-9.84C115.964,-12.6 114.464,-15.12 111.044,-15.12C107.954,-15.12 106.274,-13.14 105.824,-10.77L105.674,-10.77L105.674,-14.82L103.754,-14.82L103.754,0L105.884,0Z" style="fill:rgb(50,25,20);fill-rule:nonzero;"/>
                <path d="M122.614,0.3C126.064,0.3 128.674,-1.26 129.544,-3.99L129.694,-3.99L129.694,0L131.614,0L131.614,-9.27C131.614,-12.54 129.694,-15.12 125.194,-15.12C120.634,-15.12 118.054,-12.57 118.054,-9.45L118.054,-9.33L120.184,-9.33L120.184,-9.45C120.184,-12.06 121.864,-13.2 125.044,-13.2C128.284,-13.2 129.544,-12.06 129.544,-9.18L129.544,-8.04L122.494,-7.26C119.734,-6.96 117.724,-5.91 117.724,-3.48C117.724,-1.08 119.704,0.3 122.614,0.3ZM119.854,-3.63C119.854,-5.16 120.934,-5.7 123.154,-5.91L129.544,-6.63L129.544,-6.51C129.544,-2.94 126.694,-1.35 123.094,-1.35C120.844,-1.35 119.854,-2.13 119.854,-3.63Z" style="fill:rgb(50,25,20);fill-rule:nonzero;"/>
                <path d="M142.752,5.1C145.212,5.1 146.592,4.35 147.672,2.07L155.712,-14.82L153.372,-14.82L149.262,-6.03L147.672,-2.37L147.492,-2.37L145.842,-6L141.492,-14.82L139.152,-14.82L146.502,-0.03L145.782,1.47C145.212,2.7 144.642,3.15 143.142,3.15L140.892,3.15L140.892,5.1L142.752,5.1Z" style="fill:rgb(50,25,20);fill-rule:nonzero;"/>
                <path d="M169.79,-1.2C173.21,-1.2 175.4,-2.88 176,-5.16L176.15,-5.16L176.15,-1.29C176.15,2.4 174.65,3.57 170.81,3.57C167.51,3.57 165.77,2.55 165.77,-0.06L163.64,-0.06C163.64,3.39 166.7,5.4 170.72,5.4C175.19,5.4 178.28,3.48 178.28,-1.41L178.28,-14.82L176.36,-14.82L176.36,-11.01L176.21,-11.01C175.61,-13.65 173.15,-15.12 170.03,-15.12C165.47,-15.12 162.68,-12.21 162.68,-8.16C162.68,-4.11 165.38,-1.2 169.79,-1.2ZM164.81,-8.16C164.81,-11.94 167.18,-13.23 170.51,-13.23C173.93,-13.23 176.15,-11.49 176.15,-8.58L176.15,-8.07C176.15,-4.92 174.02,-3.09 170.36,-3.09C167.15,-3.09 164.81,-4.38 164.81,-8.16Z" style="fill:rgb(50,25,20);fill-rule:nonzero;"/>
                <path d="M188.17,0.3C191.86,0.3 193.99,-2.1 194.5,-4.62L194.65,-4.62L194.65,0L196.57,0L196.57,-14.82L194.44,-14.82L194.44,-7.62C194.44,-3.81 192.55,-1.62 188.92,-1.62C185.5,-1.62 184,-3.39 184,-6.48L184,-14.82L181.87,-14.82L181.87,-6.15C181.87,-2.64 183.94,0.3 188.17,0.3Z" style="fill:rgb(50,25,20);fill-rule:nonzero;"/>
                <path d="M202.349,-16.71L202.349,-20.1L200.219,-20.1L200.219,-16.71L202.349,-16.71ZM202.349,0L202.349,-14.82L200.219,-14.82L200.219,0L202.349,0Z" style="fill:rgb(50,25,20);fill-rule:nonzero;"/>
                <path d="M213.258,0.3C218.118,0.3 221.328,-2.91 221.328,-7.41C221.328,-11.91 218.118,-15.12 213.258,-15.12C208.428,-15.12 205.218,-11.91 205.218,-7.41C205.218,-2.91 208.428,0.3 213.258,0.3ZM213.258,-1.62C209.178,-1.62 207.318,-3.81 207.318,-7.41C207.318,-10.98 209.178,-13.2 213.258,-13.2C217.338,-13.2 219.228,-10.98 219.228,-7.41C219.228,-3.81 217.338,-1.62 213.258,-1.62Z" style="fill:rgb(50,25,20);fill-rule:nonzero;"/>
                <path d="M226.357,0L226.357,-7.17C226.357,-10.98 228.247,-13.17 231.847,-13.17C235.237,-13.17 236.707,-11.4 236.707,-8.34L236.707,0L238.837,0L238.837,-8.64C238.837,-12.15 236.767,-15.12 232.597,-15.12C228.907,-15.12 226.807,-12.69 226.297,-10.17L226.147,-10.17L226.147,-14.82L224.227,-14.82L224.227,0L226.357,0Z" style="fill:rgb(50,25,20);fill-rule:nonzero;"/>
                <path d="M244.526,-16.71L244.526,-20.1L242.396,-20.1L242.396,-16.71L244.526,-16.71ZM244.526,0L244.526,-14.82L242.396,-14.82L242.396,0L244.526,0Z" style="fill:rgb(50,25,20);fill-rule:nonzero;"/>
                <path d="M254.686,0.3C258.526,0.3 261.286,-1.17 261.286,-3.96C261.286,-6.36 259.576,-7.44 256.396,-7.89L252.766,-8.4C250.306,-8.76 249.526,-9.3 249.526,-10.83C249.526,-12.6 250.816,-13.35 253.936,-13.35C257.716,-13.35 258.886,-12.15 258.886,-9.93L258.886,-9.78L261.016,-9.78L261.016,-9.84C261.016,-13.32 258.256,-15.12 253.996,-15.12C249.916,-15.12 247.426,-13.47 247.426,-10.86C247.426,-8.4 249.136,-7.35 251.836,-6.99L255.796,-6.42C258.256,-6.03 259.186,-5.52 259.186,-3.96C259.186,-2.25 258.046,-1.47 254.716,-1.47C251.086,-1.47 249.616,-2.34 249.616,-4.83L249.616,-5.01L247.486,-5.01L247.486,-4.95C247.486,-1.53 250.126,0.3 254.686,0.3Z" style="fill:rgb(50,25,20);fill-rule:nonzero;"/>
                <path d="M273.245,0L273.245,-1.95L270.545,-1.95C268.385,-1.95 267.365,-2.52 267.365,-4.59L267.365,-12.99L273.245,-12.99L273.245,-14.82L267.365,-14.82L267.365,-18.36L265.205,-18.36L265.205,-14.82L262.565,-14.82L262.565,-12.99L265.205,-12.99L265.205,-4.71C265.205,-1.23 267.095,0 270.035,0L273.245,0Z" style="fill:rgb(50,25,20);fill-rule:nonzero;"/>
                <path d="M279.774,0.3C283.224,0.3 285.834,-1.26 286.704,-3.99L286.854,-3.99L286.854,0L288.774,0L288.774,-9.27C288.774,-12.54 286.854,-15.12 282.354,-15.12C277.794,-15.12 275.214,-12.57 275.214,-9.45L275.214,-9.33L277.344,-9.33L277.344,-9.45C277.344,-12.06 279.024,-13.2 282.204,-13.2C285.444,-13.2 286.704,-12.06 286.704,-9.18L286.704,-8.04L279.654,-7.26C276.894,-6.96 274.884,-5.91 274.884,-3.48C274.884,-1.08 276.864,0.3 279.774,0.3ZM277.014,-3.63C277.014,-5.16 278.094,-5.7 280.314,-5.91L286.704,-6.63L286.704,-6.51C286.704,-2.94 283.854,-1.35 280.254,-1.35C278.004,-1.35 277.014,-2.13 277.014,-3.63Z" style="fill:rgb(50,25,20);fill-rule:nonzero;"/>
            </g>
            <g transform="matrix(1,0,0,1,160,368)">
                <path d="M54.6,1.5C87.45,1.5 103.95,-15 103.95,-42L103.95,-100.5L81.45,-100.5L81.45,-43.65C81.45,-26.55 75.15,-20.4 54.6,-20.4C34.2,-20.4 27.75,-26.55 27.75,-43.65L27.75,-100.5L5.25,-100.5L5.25,-42C5.25,-15 21.9,1.5 54.6,1.5Z" style="fill:rgb(0,64,151);fill-rule:nonzero;"/>
                <path d="M148.35,-7.65C165.15,-7.65 174,-15.3 176.4,-26.4L177.6,-26.4L177.6,-9.45C177.6,5.25 173.25,8.25 158.85,8.25C143.55,8.25 140.25,5.7 140.25,-2.7L117.75,-2.7C117.75,16.2 133.05,27 157.35,27C184.2,27 200.1,15.3 200.1,-10.95L200.1,-75.15L179.1,-75.15L179.1,-57L177.9,-57C175.5,-70.05 164.55,-76.65 149.25,-76.65C126.75,-76.65 113.1,-63.15 113.1,-42.15C113.1,-21 126,-7.65 148.35,-7.65ZM135.75,-42.15C135.75,-53.25 142.05,-57.15 156.45,-57.15C170.4,-57.15 177.6,-53.25 177.6,-43.05L177.6,-41.4C177.6,-31.05 170.55,-27 156.15,-27C142.05,-27 135.75,-31.05 135.75,-42.15Z" style="fill:rgb(0,64,151);fill-rule:nonzero;"/>
                <path d="M235.2,1.5C251.85,1.5 262.35,-5.55 265.8,-17.25L267,-17.25L267,0L288,0L288,-44.1C288,-63.75 276.15,-76.65 251.1,-76.65C226.35,-76.65 210.75,-63.75 210.75,-45.15L210.75,-44.7L233.4,-44.7L233.4,-45.3C233.4,-53.85 238.05,-56.85 249.45,-56.85C261.45,-56.85 265.8,-54.15 265.8,-44.4L265.8,-41.55L233.55,-38.25C217.5,-36.6 209.25,-29.7 209.25,-18.6C209.25,-6 219,1.5 235.2,1.5ZM231.9,-20.1C231.9,-23.7 234.3,-25.2 239.7,-25.65L265.8,-28.65C265.2,-18 256.95,-14.4 241.65,-14.4C235.05,-14.4 231.9,-16.05 231.9,-20.1Z" style="fill:rgb(0,64,151);fill-rule:nonzero;"/>
                <path d="M321.9,0L321.9,-43.5C321.9,-52.95 325.5,-57.6 335.55,-57.6C344.7,-57.6 348,-54 348,-45.75L348,-37.95L370.5,-37.95L370.5,-50.4C370.5,-65.1 363.6,-76.65 346.8,-76.65C331.65,-76.65 323.7,-67.35 321.6,-55.2L320.25,-55.2L320.25,-75.15L299.4,-75.15L299.4,0L321.9,0Z" style="fill:rgb(0,64,151);fill-rule:nonzero;"/>
                <path d="M431.55,0L431.55,-20.25L418.05,-20.25C410.1,-20.25 407.25,-22.2 407.25,-29.7L407.25,-56.55L431.55,-56.55L431.55,-75.15L407.25,-75.15L407.25,-89.7L384.75,-89.7L384.75,-75.15L372.9,-75.15L372.9,-56.55L384.75,-56.55L384.75,-27.15C384.75,-8.25 395.4,0 412.95,0L431.55,0Z" style="fill:rgb(0,64,151);fill-rule:nonzero;"/>
                <path d="M479.85,1.5C503.7,1.5 519.6,-9.9 519.6,-26.25L519.6,-27.9L497.1,-27.9L497.1,-26.4C497.1,-19.95 492.45,-16.5 479.1,-16.5C464.55,-16.5 459.15,-21.45 458.55,-33L519.75,-33C520.05,-35.55 520.35,-37.5 520.35,-40.2C520.35,-63.75 504,-76.65 479.4,-76.65C454.65,-76.65 437.7,-61.5 437.7,-37.5C437.7,-10.8 454.8,1.5 479.85,1.5ZM478.95,-59.1C492.15,-59.1 498.15,-54.75 498.75,-44.85L458.85,-44.85C459.9,-54.6 465.6,-59.1 478.95,-59.1Z" style="fill:rgb(0,64,151);fill-rule:nonzero;"/>
            </g>
            <g transform="matrix(1,0,0,1,122,233)">
                <path d="M65.55,0L65.55,-33.15L110.85,-100.5L82.95,-100.5L63.75,-71.1L55.35,-57.6L53.7,-57.6L45.3,-71.1L26.1,-100.5L-1.65,-100.5L42.9,-33.3L42.9,0L65.55,0Z" style="fill:rgb(0,64,151);fill-rule:nonzero;"/>
                <path d="M146.25,1.5C166.05,1.5 175.2,-10.35 177.15,-22.95L178.35,-22.95L178.35,0L199.35,0L199.35,-75.15L176.85,-75.15L176.85,-37.05C176.85,-24.3 171.6,-18.6 156.9,-18.6C142.65,-18.6 137.55,-23.7 137.55,-35.85L137.55,-75.15L115.05,-75.15L115.05,-28.35C115.05,-11.55 125.1,1.5 146.25,1.5Z" style="fill:rgb(0,64,151);fill-rule:nonzero;"/>
                <path d="M233.4,0L233.4,-43.5C233.4,-52.95 237,-57.6 247.05,-57.6C256.2,-57.6 259.5,-54 259.5,-45.75L259.5,-37.95L282,-37.95L282,-50.4C282,-65.1 275.1,-76.65 258.3,-76.65C243.15,-76.65 235.2,-67.35 233.1,-55.2L231.75,-55.2L231.75,-75.15L210.9,-75.15L210.9,0L233.4,0Z" style="fill:rgb(0,64,151);fill-rule:nonzero;"/>
                <path d="M312.6,0L312.6,-43.5C312.6,-52.95 316.2,-57.6 326.25,-57.6C335.4,-57.6 338.7,-54 338.7,-45.75L338.7,-37.95L361.2,-37.95L361.2,-50.4C361.2,-65.1 354.3,-76.65 337.5,-76.65C322.35,-76.65 314.4,-67.35 312.3,-55.2L310.95,-55.2L310.95,-75.15L290.1,-75.15L290.1,0L312.6,0Z" style="fill:rgb(0,64,151);fill-rule:nonzero;"/>
                <path d="M409.2,1.5C433.05,1.5 448.95,-9.9 448.95,-26.25L448.95,-27.9L426.45,-27.9L426.45,-26.4C426.45,-19.95 421.8,-16.5 408.45,-16.5C393.9,-16.5 388.5,-21.45 387.9,-33L449.1,-33C449.4,-35.55 449.7,-37.5 449.7,-40.2C449.7,-63.75 433.35,-76.65 408.75,-76.65C384,-76.65 367.05,-61.5 367.05,-37.5C367.05,-10.8 384.15,1.5 409.2,1.5ZM408.3,-59.1C421.5,-59.1 427.5,-54.75 428.1,-44.85L388.2,-44.85C389.25,-54.6 394.95,-59.1 408.3,-59.1Z" style="fill:rgb(0,64,151);fill-rule:nonzero;"/>
            </g>
        </g>
    </g>
</svg>
