<?xml version="1.0" encoding="UTF-8" standalone="no"?><!DOCTYPE svg PUBLIC "-//W3C//DTD SVG 1.1//EN" "http://www.w3.org/Graphics/SVG/1.1/DTD/svg11.dtd"><svg width="100%" height="100%" viewBox="0 0 667 142" version="1.1" xmlns="http://www.w3.org/2000/svg" xmlns:xlink="http://www.w3.org/1999/xlink" xml:space="preserve" xmlns:serif="http://www.serif.com/" style="fill-rule:evenodd;clip-rule:evenodd;stroke-linejoin:round;stroke-miterlimit:2;"><g><g><rect x="240.625" y="98.792" width="3.254" height="30.708" style="fill:#321914;fill-rule:nonzero;"/><path d="M259.096,129.958c4.996,0 8.662,-2.612 9.762,-7.15l0.184,0l-0,6.692l2.979,0l-0,-30.708l-3.254,-0l-0,14.391l-0.229,0c-1.009,-3.896 -4.355,-6.783 -9.717,-6.783c-6.967,-0 -11,4.904 -11,11.779c-0,6.875 4.033,11.779 11.275,11.779Zm-7.975,-11.779c-0,-6.554 3.529,-8.754 8.708,-8.754c5.592,0 8.938,3.117 8.938,8.708l-0,0.413c-0,5.362 -3.529,8.433 -8.846,8.433c-5.317,0 -8.8,-2.246 -8.8,-8.8Z" style="fill:#321914;fill-rule:nonzero;"/><path d="M283.754,129.958c5.271,0 9.259,-2.383 10.588,-6.554l0.229,0l-0,6.096l2.933,0l0,-14.162c0,-4.996 -2.933,-8.938 -9.808,-8.938c-6.967,0 -10.909,3.896 -10.909,8.663l0,0.183l3.255,-0l-0,-0.183c-0,-3.988 2.566,-5.73 7.425,-5.73c4.95,0 6.875,1.742 6.875,6.142l-0,1.742l-10.771,1.191c-4.217,0.459 -7.288,2.063 -7.288,5.775c0,3.667 3.025,5.775 7.471,5.775Zm-4.216,-6.004c-0,-2.337 1.649,-3.162 5.041,-3.483l9.763,-1.1l-0,0.183c-0,5.454 -4.354,7.883 -9.854,7.883c-3.438,0.001 -4.95,-1.191 -4.95,-3.483Z" style="fill:#321914;fill-rule:nonzero;"/></g><g><path d="M324.846,129.5l-0,-2.888l-14.667,0.001l-4.079,0.091l0,-0.229l4.079,-3.529l13.979,-13.2l0,-2.888l-21.587,0l-0,2.934l12.421,-0l4.766,-0.092l0,0.229l-4.766,4.217l-13.109,12.512l0,2.842l22.963,0Z" style="fill:#321914;fill-rule:nonzero;"/><rect x="328.788" y="98.792" width="3.254" height="30.708" style="fill:#321914;fill-rule:nonzero;"/><path d="M348.267,129.958c6.325,0 11,-3.254 11,-7.975l-0,-0.321l-3.255,0l0,0.321c0,3.3 -2.474,5.271 -7.791,5.271c-6.004,0 -8.617,-3.071 -8.8,-8.158l19.937,-0c0.138,-0.596 0.229,-1.284 0.229,-2.109c0,-6.737 -4.72,-10.587 -11.366,-10.587c-7.288,-0 -11.871,4.904 -11.871,11.779c0,7.196 4.629,11.779 11.917,11.779Zm-0.092,-20.854c5.317,0 8.342,2.521 8.342,7.288l-0,0.687l-17.096,0c0.229,-4.95 2.887,-7.975 8.754,-7.975Z" style="fill:#321914;fill-rule:nonzero;"/></g><g><path d="M370.754,129.958c5.271,0 9.259,-2.383 10.588,-6.554l0.229,0l-0,6.096l2.933,0l0,-14.162c0,-4.996 -2.933,-8.938 -9.808,-8.938c-6.967,0 -10.909,3.896 -10.909,8.663l0,0.183l3.255,-0l-0,-0.183c-0,-3.988 2.566,-5.73 7.425,-5.73c4.95,0 6.875,1.742 6.875,6.142l-0,1.742l-10.771,1.191c-4.217,0.459 -7.288,2.063 -7.288,5.775c0,3.667 3.025,5.775 7.471,5.775Zm-4.216,-6.004c-0,-2.337 1.649,-3.162 5.041,-3.483l9.763,-1.1l-0,0.183c-0,5.454 -4.354,7.883 -9.854,7.883c-3.438,0.001 -4.95,-1.191 -4.95,-3.483Z" style="fill:#321914;fill-rule:nonzero;"/><path d="M409.071,129.958c6.325,0 11,-3.254 11,-7.975l-0,-0.321l-3.254,0l-0,0.321c-0,3.3 -2.475,5.271 -7.792,5.271c-6.004,0 -8.617,-3.071 -8.8,-8.158l19.938,-0c0.137,-0.596 0.229,-1.284 0.229,-2.109c-0,-6.737 -4.721,-10.587 -11.367,-10.587c-7.287,-0 -11.871,4.904 -11.871,11.779c0,7.196 4.629,11.779 11.917,11.779Zm-0.092,-20.854c5.317,0 8.342,2.521 8.342,7.288l-0,0.687l-17.096,0c0.229,-4.95 2.888,-7.975 8.754,-7.975Z" style="fill:#321914;fill-rule:nonzero;"/></g><g><path d="M439.167,129.5l-0,-2.979l-4.125,-0c-3.3,-0 -4.859,-0.871 -4.859,-4.034l0,-12.833l8.984,0l-0,-2.796l-8.984,0l0,-5.408l-3.3,0l0,5.408l-4.033,0l0,2.796l4.033,0l0,12.65c0,5.317 2.888,7.196 7.38,7.196l4.904,0Z" style="fill:#321914;fill-rule:nonzero;"/><path d="M449.021,129.958c5.271,0 9.258,-2.383 10.587,-6.554l0.23,0l-0,6.096l2.933,0l-0,-14.162c-0,-4.996 -2.933,-8.938 -9.808,-8.938c-6.967,0 -10.909,3.896 -10.909,8.663l0,0.183l3.254,-0l0,-0.183c0,-3.988 2.567,-5.73 7.425,-5.73c4.95,0 6.875,1.742 6.875,6.142l0,1.742l-10.771,1.191c-4.216,0.459 -7.287,2.063 -7.287,5.775c-0,3.667 3.025,5.775 7.471,5.775Zm-4.217,-6.004c0,-2.337 1.65,-3.162 5.042,-3.483l9.762,-1.1l0,0.183c0,5.454 -4.354,7.883 -9.854,7.883c-3.437,0.001 -4.95,-1.191 -4.95,-3.483Z" style="fill:#321914;fill-rule:nonzero;"/></g><g><path d="M486.858,127.667c5.225,-0 8.571,-2.567 9.488,-6.05l0.229,-0l0,5.912c0,5.638 -2.292,7.425 -8.158,7.425c-5.042,0 -7.7,-1.558 -7.7,-5.546l-3.254,0c-0,5.271 4.675,8.342 10.816,8.342c6.829,-0 11.55,-2.933 11.55,-10.404l0,-20.488l-2.933,0l-0,5.821l-0.229,0c-0.917,-4.033 -4.675,-6.279 -9.442,-6.279c-6.967,-0 -11.229,4.446 -11.229,10.633c-0,6.188 4.125,10.634 10.862,10.634Zm-7.608,-10.634c0,-5.775 3.621,-7.746 8.708,-7.746c5.225,0 8.617,2.659 8.617,7.105l0,0.779c0,4.812 -3.254,7.608 -8.846,7.608c-4.904,0 -8.479,-1.971 -8.479,-7.746Z" style="fill:#321914;fill-rule:nonzero;"/><path d="M508.583,103.971l0,-5.179l-3.254,-0l0,5.179l3.254,-0Zm0,25.529l0,-22.642l-3.254,0l0,22.642l3.254,0Z" style="fill:#321914;fill-rule:nonzero;"/><path d="M523.8,129.958c4.996,0 8.663,-2.612 9.763,-7.15l0.183,0l-0,6.692l2.979,0l0,-30.708l-3.254,-0l-0,14.391l-0.229,0c-1.009,-3.896 -4.354,-6.783 -9.717,-6.783c-6.967,-0 -11,4.904 -11,11.779c0,6.875 4.033,11.779 11.275,11.779Zm-7.975,-11.779c0,-6.554 3.529,-8.754 8.708,-8.754c5.592,0 8.938,3.117 8.938,8.708l-0,0.413c-0,5.362 -3.529,8.433 -8.846,8.433c-5.317,0 -8.8,-2.246 -8.8,-8.8Z" style="fill:#321914;fill-rule:nonzero;"/></g><g><path d="M553.85,129.958c7.425,0 12.329,-4.904 12.329,-11.779c0,-6.875 -4.904,-11.779 -12.329,-11.779c-7.379,-0 -12.283,4.904 -12.283,11.779c-0,6.875 4.904,11.779 12.283,11.779Zm0,-2.933c-6.233,0 -9.075,-3.346 -9.075,-8.846c0,-5.454 2.842,-8.846 9.075,-8.846c6.233,0 9.121,3.392 9.121,8.846c-0,5.5 -2.888,8.846 -9.121,8.846Z" style="fill:#321914;fill-rule:nonzero;"/><path d="M573.742,103.971l-0,-5.179l-3.254,-0l-0,5.179l3.254,-0Zm-0,25.529l-0,-22.642l-3.254,0l-0,22.642l3.254,0Z" style="fill:#321914;fill-rule:nonzero;"/><rect x="579.196" y="98.792" width="3.254" height="30.708" style="fill:#321914;fill-rule:nonzero;"/></g><g><path d="M594.758,129.958c5.271,0 9.259,-2.383 10.588,-6.554l0.229,0l-0,6.096l2.933,0l0,-14.162c0,-4.996 -2.933,-8.938 -9.808,-8.938c-6.967,0 -10.908,3.896 -10.908,8.663l-0,0.183l3.254,-0l-0,-0.183c-0,-3.988 2.566,-5.73 7.425,-5.73c4.95,0 6.875,1.742 6.875,6.142l-0,1.742l-10.771,1.191c-4.217,0.459 -7.288,2.063 -7.288,5.775c0,3.667 3.025,5.775 7.471,5.775Zm-4.216,-6.004c-0,-2.337 1.65,-3.162 5.041,-3.483l9.763,-1.1l-0,0.183c-0,5.454 -4.354,7.883 -9.854,7.883c-3.438,0.001 -4.95,-1.191 -4.95,-3.483Z" style="fill:#321914;fill-rule:nonzero;"/><path d="M617.125,129.5l0,-12.283c0,-5.088 2.017,-7.975 6.6,-7.975c3.942,-0 5.546,1.879 5.546,5.729l-0,1.741l3.254,0l-0,-2.245c-0,-4.217 -2.292,-8.067 -7.517,-8.067c-4.721,-0 -7.287,3.025 -7.975,6.646l-0.229,-0l0,-6.188l-2.933,0l-0,22.642l3.254,0Z" style="fill:#321914;fill-rule:nonzero;"/><path d="M639.537,103.971l0,-5.179l-3.254,-0l0,5.179l3.254,-0Zm0,25.529l0,-22.642l-3.254,0l0,22.642l3.254,0Z" style="fill:#321914;fill-rule:nonzero;"/></g><path d="M651.85,129.958c5.271,0 9.258,-2.383 10.587,-6.554l0.23,0l-0,6.096l2.933,0l0,-14.162c0,-4.996 -2.933,-8.938 -9.808,-8.938c-6.967,0 -10.909,3.896 -10.909,8.663l0,0.183l3.255,-0l-0,-0.183c-0,-3.988 2.566,-5.73 7.424,-5.73c4.951,0 6.875,1.742 6.875,6.142l0,1.742l-10.77,1.191c-4.217,0.459 -7.288,2.063 -7.288,5.775c0,3.667 3.025,5.775 7.471,5.775Zm-4.217,-6.004c0,-2.337 1.65,-3.162 5.042,-3.483l9.762,-1.1l0,0.183c0,5.454 -4.354,7.883 -9.854,7.883c-3.437,0.001 -4.95,-1.191 -4.95,-3.483Z" style="fill:#321914;fill-rule:nonzero;"/></g><g><path d="M44.8,67l0,-22.1l30.2,-44.9l-18.6,-0l-12.8,19.6l-5.6,9l-1.1,-0l-5.6,-9l-12.8,-19.6l-18.5,-0l29.7,44.8l0,22.2l15.1,0Z" style="fill:#004097;fill-rule:nonzero;"/><path d="M98.6,68c13.2,0 19.3,-7.9 20.6,-16.3l0.8,0l0,15.3l14,0l0,-50.1l-15,-0l0,25.4c0,8.5 -3.5,12.3 -13.3,12.3c-9.5,0 -12.9,-3.4 -12.9,-11.5l0,-26.2l-15,-0l0,31.2c0,11.2 6.7,19.9 20.8,19.9Z" style="fill:#004097;fill-rule:nonzero;"/><path d="M156.7,67l0,-29c0,-6.3 2.4,-9.4 9.1,-9.4c6.1,-0 8.3,2.4 8.3,7.9l0,5.2l15,0l0,-8.3c0,-9.8 -4.6,-17.5 -15.8,-17.5c-10.1,-0 -15.4,6.2 -16.8,14.3l-0.9,-0l0,-13.3l-13.9,-0l0,50.1l15,0Z" style="fill:#004097;fill-rule:nonzero;"/><path d="M209.5,67l0,-29c0,-6.3 2.4,-9.4 9.1,-9.4c6.1,-0 8.3,2.4 8.3,7.9l0,5.2l15,0l0,-8.3c0,-9.8 -4.6,-17.5 -15.8,-17.5c-10.1,-0 -15.4,6.2 -16.8,14.3l-0.9,-0l0,-13.3l-13.9,-0l0,50.1l15,0Z" style="fill:#004097;fill-rule:nonzero;"/><path d="M273.9,68c15.9,0 26.5,-7.6 26.5,-18.5l0,-1.1l-15,0l0,1c0,4.3 -3.1,6.6 -12,6.6c-9.7,0 -13.3,-3.3 -13.7,-11l40.8,0c0.2,-1.7 0.4,-3 0.4,-4.8c0,-15.7 -10.9,-24.3 -27.3,-24.3c-16.5,-0 -27.8,10.1 -27.8,26.1c0,17.8 11.4,26 28.1,26Zm-0.6,-40.4c8.8,0 12.8,2.9 13.2,9.5l-26.6,-0c0.7,-6.5 4.5,-9.5 13.4,-9.5Z" style="fill:#004097;fill-rule:nonzero;"/><path d="M355.1,68c21.9,0 32.9,-11 32.9,-29l0,-39l-15,-0l0,37.9c0,11.4 -4.2,15.5 -17.9,15.5c-13.6,0 -17.9,-4.1 -17.9,-15.5l-0,-37.9l-15,-0l-0,39c-0,18 11.1,29 32.9,29Z" style="fill:#004097;fill-rule:nonzero;"/><path d="M417.6,61.9c11.2,0 17.1,-5.1 18.7,-12.5l0.8,0l0,11.3c0,9.8 -2.9,11.8 -12.5,11.8c-10.2,0 -12.4,-1.7 -12.4,-7.3l-15,0c-0,12.6 10.2,19.8 26.4,19.8c17.9,0 28.5,-7.8 28.5,-25.3l-0,-42.8l-14,-0l-0,12.1l-0.8,-0c-1.6,-8.7 -8.9,-13.1 -19.1,-13.1c-15,-0 -24.1,9 -24.1,23c0,14.1 8.6,23 23.5,23Zm-8.4,-23c0,-7.4 4.2,-10 13.8,-10c9.3,0 14.1,2.6 14.1,9.4l0,1.1c0,6.9 -4.7,9.6 -14.3,9.6c-9.4,0 -13.6,-2.7 -13.6,-10.1Z" style="fill:#004097;fill-rule:nonzero;"/><path d="M475.5,68c11.1,0 18.1,-4.7 20.4,-12.5l0.8,0l0,11.5l14,0l0,-29.4c0,-13.1 -7.9,-21.7 -24.6,-21.7c-16.5,0 -26.9,8.6 -26.9,21l0,0.3l15.1,0l0,-0.4c0,-5.7 3.1,-7.7 10.7,-7.7c8,0 10.9,1.8 10.9,8.3l0,1.9l-21.5,2.2c-10.7,1.1 -16.2,5.7 -16.2,13.1c0,8.4 6.5,13.4 17.3,13.4Zm-2.2,-14.4c0,-2.4 1.6,-3.4 5.2,-3.7l17.4,-2c-0.4,7.1 -5.9,9.5 -16.1,9.5c-4.4,0 -6.5,-1.1 -6.5,-3.8Z" style="fill:#004097;fill-rule:nonzero;"/><path d="M533.3,67l0,-29c0,-6.3 2.4,-9.4 9.1,-9.4c6.1,-0 8.3,2.4 8.3,7.9l0,5.2l15,0l0,-8.3c0,-9.8 -4.6,-17.5 -15.8,-17.5c-10.1,-0 -15.4,6.2 -16.8,14.3l-0.9,-0l0,-13.3l-13.9,-0l-0,50.1l15,0Z" style="fill:#004097;fill-rule:nonzero;"/><path d="M606.4,67l0,-13.5l-9,0c-5.3,0 -7.2,-1.3 -7.2,-6.3l0,-17.9l16.2,-0l0,-12.4l-16.2,-0l0,-9.7l-15,-0l0,9.7l-7.9,-0l0,12.4l7.9,0l0,19.6c0,12.6 7.1,18.1 18.8,18.1l12.4,0Z" style="fill:#004097;fill-rule:nonzero;"/><path d="M638.6,68c15.9,0 26.5,-7.6 26.5,-18.5l0,-1.1l-15,0l0,1c0,4.3 -3.1,6.6 -12,6.6c-9.7,0 -13.3,-3.3 -13.7,-11l40.8,0c0.2,-1.7 0.4,-3 0.4,-4.8c0,-15.7 -10.9,-24.3 -27.3,-24.3c-16.5,-0 -27.8,10.1 -27.8,26.1c0,17.8 11.4,26 28.1,26Zm-0.6,-40.4c8.8,0 12.8,2.9 13.2,9.5l-26.6,-0c0.7,-6.5 4.5,-9.5 13.4,-9.5Z" style="fill:#004097;fill-rule:nonzero;"/></g></svg>