<?xml version="1.0" encoding="UTF-8" standalone="no"?><!DOCTYPE svg PUBLIC "-//W3C//DTD SVG 1.1//EN" "http://www.w3.org/Graphics/SVG/1.1/DTD/svg11.dtd"><svg width="100%" height="100%" viewBox="0 0 560 301" version="1.1" xmlns="http://www.w3.org/2000/svg" xmlns:xlink="http://www.w3.org/1999/xlink" xml:space="preserve" xmlns:serif="http://www.serif.com/" style="fill-rule:evenodd;clip-rule:evenodd;stroke-linejoin:round;stroke-miterlimit:2;"><g><path d="M162.232,279.405l-0,-3.335l-3.132,-0l-0,3.335l3.132,-0Zm-0,16.095l-0,-14.413l-3.132,0l-0,14.413l3.132,0Z" style="fill:#321914;fill-rule:nonzero;"/><path d="M171.483,295.79c3.248,0 5.365,-1.566 5.974,-4.437l0.203,0l-0,4.147l2.871,0l-0,-19.43l-3.132,0l-0,8.932l-0.174,0c-0.58,-2.436 -2.523,-4.205 -5.945,-4.205c-4.379,0 -6.873,3.016 -6.873,7.511c-0,4.437 2.523,7.482 7.076,7.482Zm-3.915,-7.482c-0,-3.48 1.798,-4.669 4.814,-4.669c3.219,-0 5.017,1.508 5.017,4.582l-0,0.232c-0,3.016 -1.885,4.466 -4.959,4.466c-3.103,-0 -4.872,-1.16 -4.872,-4.611Z" style="fill:#321914;fill-rule:nonzero;"/><path d="M187.665,295.79c3.277,0 5.568,-1.45 6.322,-3.886l0.203,0l-0,3.596l2.871,0l-0,-8.758c-0,-3.451 -2.059,-5.945 -6.641,-5.945c-4.582,0 -7.308,2.465 -7.308,5.742l-0,0.116l3.103,-0l-0,-0.116c-0,-2.117 1.305,-2.987 3.973,-2.987c2.755,0 3.799,0.841 3.799,3.219l-0,0.841l-6.554,0.696c-2.842,0.319 -4.64,1.479 -4.64,3.712c-0,2.378 1.885,3.77 4.872,3.77Zm-1.74,-3.973c-0,-1.131 0.783,-1.508 2.407,-1.711l5.655,-0.638c-0,2.842 -2.204,4.06 -5.481,4.06c-1.798,0 -2.581,-0.551 -2.581,-1.711Z" style="fill:#321914;fill-rule:nonzero;"/><path d="M213.997,295.5l-0,-2.755l-8.294,0l-2.668,0.145l-0,-0.232l2.668,-1.972l7.859,-6.902l-0,-2.697l-14.065,0l-0,2.755l6.902,0l3.045,-0.116l-0,0.232l-3.045,2.291l-7.337,6.554l-0,2.697l14.935,0Z" style="fill:#321914;fill-rule:nonzero;"/><rect x="216.114" y="276.07" width="3.132" height="19.43" style="fill:#321914;fill-rule:nonzero;"/><path d="M229.396,295.79c4.292,0 7.308,-2.117 7.308,-5.191l-0,-0.261l-3.132,0l-0,0.232c-0,1.711 -1.247,2.697 -4.263,2.697c-3.335,-0 -4.698,-1.479 -4.814,-4.263l12.238,-0c0.087,-0.435 0.116,-0.841 0.116,-1.363c-0,-4.379 -3.045,-6.844 -7.511,-6.844c-4.698,-0 -7.772,3.016 -7.772,7.511c-0,4.814 3.103,7.482 7.83,7.482Zm-0.116,-12.528c3.074,-0 4.611,1.276 4.611,3.944l-0,0.058l-9.367,-0c0.174,-2.581 1.566,-4.002 4.756,-4.002Z" style="fill:#321914;fill-rule:nonzero;"/><path d="M243.432,295.79c3.277,0 5.568,-1.45 6.322,-3.886l0.203,0l-0,3.596l2.871,0l-0,-8.758c-0,-3.451 -2.059,-5.945 -6.641,-5.945c-4.582,0 -7.308,2.465 -7.308,5.742l-0,0.116l3.103,-0l-0,-0.116c-0,-2.117 1.305,-2.987 3.973,-2.987c2.755,0 3.799,0.841 3.799,3.219l-0,0.841l-6.554,0.696c-2.842,0.319 -4.64,1.479 -4.64,3.712c-0,2.378 1.885,3.77 4.872,3.77Zm-1.74,-3.973c-0,-1.131 0.783,-1.508 2.407,-1.711l5.655,-0.638c-0,2.842 -2.204,4.06 -5.481,4.06c-1.798,0 -2.581,-0.551 -2.581,-1.711Z" style="fill:#321914;fill-rule:nonzero;"/><path d="M256.134,298.748c1.798,0 2.842,-0.87 2.842,-2.668l-0,-5.075l-3.944,0l-0,4.495l1.74,0l-0,0.609c-0,0.609 -0.232,0.725 -0.725,0.725l-0.957,0l-0,1.914l1.044,0Z" style="fill:#321914;fill-rule:nonzero;"/><path d="M272.519,294.195c3.277,0 5.22,-1.566 5.742,-3.741l0.203,0l-0,3.538c-0,3.219 -1.189,4.118 -4.466,4.118c-3.074,0 -4.292,-0.783 -4.292,-2.871l-3.103,-0c-0,3.48 2.958,5.481 7.221,5.481c4.727,0 7.743,-2.059 7.743,-6.902l-0,-12.731l-2.871,-0l-0,3.596l-0.174,-0c-0.522,-2.523 -2.784,-3.886 -5.8,-3.886c-4.379,0 -7.047,2.697 -7.047,6.699c-0,4.002 2.552,6.699 6.844,6.699Zm-3.683,-6.699c-0,-2.958 1.769,-3.973 4.785,-3.973c3.045,0 4.843,1.247 4.843,3.683l-0,0.406c-0,2.552 -1.74,3.886 -4.93,3.886c-2.958,-0 -4.698,-1.044 -4.698,-4.002Z" style="fill:#321914;fill-rule:nonzero;"/><path d="M287.599,279.405l-0,-3.335l-3.132,-0l-0,3.335l3.132,-0Zm-0,16.095l-0,-14.413l-3.132,0l-0,14.413l3.132,0Z" style="fill:#321914;fill-rule:nonzero;"/><path d="M296.85,295.79c3.248,0 5.365,-1.566 5.974,-4.437l0.203,0l-0,4.147l2.871,0l-0,-19.43l-3.132,0l-0,8.932l-0.174,0c-0.58,-2.436 -2.523,-4.205 -5.945,-4.205c-4.379,0 -6.873,3.016 -6.873,7.511c-0,4.437 2.523,7.482 7.076,7.482Zm-3.915,-7.482c-0,-3.48 1.798,-4.669 4.814,-4.669c3.219,-0 5.017,1.508 5.017,4.582l-0,0.232c-0,3.016 -1.885,4.466 -4.959,4.466c-3.103,-0 -4.872,-1.16 -4.872,-4.611Z" style="fill:#321914;fill-rule:nonzero;"/><path d="M316.164,295.79c4.814,0 8.033,-3.045 8.033,-7.482c-0,-4.495 -3.219,-7.511 -8.033,-7.511c-4.785,0 -8.004,3.016 -8.004,7.511c-0,4.437 3.219,7.482 8.004,7.482Zm-0,-2.784c-3.48,-0 -4.93,-1.653 -4.93,-4.698c-0,-3.074 1.45,-4.756 4.93,-4.756c3.509,0 4.959,1.682 4.959,4.756c-0,3.045 -1.45,4.698 -4.959,4.698Z" style="fill:#321914;fill-rule:nonzero;"/><path d="M329.591,279.405l-0,-3.335l-3.132,-0l-0,3.335l3.132,-0Zm-0,16.095l-0,-14.413l-3.132,0l-0,14.413l3.132,0Z" style="fill:#321914;fill-rule:nonzero;"/><rect x="332.491" y="276.07" width="3.132" height="19.43" style="fill:#321914;fill-rule:nonzero;"/><path d="M342.757,295.79c3.277,0 5.568,-1.45 6.322,-3.886l0.203,0l-0,3.596l2.871,0l-0,-8.758c-0,-3.451 -2.059,-5.945 -6.641,-5.945c-4.582,0 -7.308,2.465 -7.308,5.742l-0,0.116l3.103,-0l-0,-0.116c-0,-2.117 1.305,-2.987 3.973,-2.987c2.755,0 3.799,0.841 3.799,3.219l-0,0.841l-6.554,0.696c-2.842,0.319 -4.64,1.479 -4.64,3.712c-0,2.378 1.885,3.77 4.872,3.77Zm-1.74,-3.973c-0,-1.131 0.783,-1.508 2.407,-1.711l5.655,-0.638c-0,2.842 -2.204,4.06 -5.481,4.06c-1.798,0 -2.581,-0.551 -2.581,-1.711Z" style="fill:#321914;fill-rule:nonzero;"/><path d="M358.069,295.5l-0,-8.091c-0,-2.581 1.015,-3.944 3.48,-3.944c2.146,0 3.016,0.957 3.016,3.016l-0,1.276l3.103,0l-0,-1.885c-0,-2.726 -1.421,-5.075 -4.698,-5.075c-2.958,0 -4.524,1.856 -4.959,4.176l-0.203,0l-0,-3.886l-2.871,0l-0,14.413l3.132,0Z" style="fill:#321914;fill-rule:nonzero;"/><path d="M372.772,279.405l-0,-3.335l-3.132,-0l-0,3.335l3.132,-0Zm-0,16.095l-0,-14.413l-3.132,0l-0,14.413l3.132,0Z" style="fill:#321914;fill-rule:nonzero;"/><path d="M379.906,295.79c3.277,0 5.568,-1.45 6.322,-3.886l0.203,0l-0,3.596l2.871,0l-0,-8.758c-0,-3.451 -2.059,-5.945 -6.641,-5.945c-4.582,0 -7.308,2.465 -7.308,5.742l-0,0.116l3.103,-0l-0,-0.116c-0,-2.117 1.305,-2.987 3.973,-2.987c2.755,0 3.799,0.841 3.799,3.219l-0,0.841l-6.554,0.696c-2.842,0.319 -4.64,1.479 -4.64,3.712c-0,2.378 1.885,3.77 4.872,3.77Zm-1.74,-3.973c-0,-1.131 0.783,-1.508 2.407,-1.711l5.655,-0.638c-0,2.842 -2.204,4.06 -5.481,4.06c-1.798,0 -2.581,-0.551 -2.581,-1.711Z" style="fill:#321914;fill-rule:nonzero;"/><path d="M392.608,298.748c1.798,0 2.842,-0.87 2.842,-2.668l-0,-5.075l-3.944,0l-0,4.495l1.74,0l-0,0.609c-0,0.609 -0.232,0.725 -0.725,0.725l-0.957,0l-0,1.914l1.044,0Z" style="fill:#321914;fill-rule:nonzero;"/><path d="M416.881,295.5l-0,-2.755l-8.294,0l-2.668,0.145l-0,-0.232l2.668,-1.972l7.859,-6.902l-0,-2.697l-14.065,0l-0,2.755l6.902,0l3.045,-0.116l-0,0.232l-3.045,2.291l-7.337,6.554l-0,2.697l14.935,0Z" style="fill:#321914;fill-rule:nonzero;"/><path d="M425.001,295.79c3.712,0 5.626,-2.32 6.09,-4.756l0.174,0l-0,4.466l2.871,0l-0,-14.413l-3.103,0l-0,7.134c-0,3.132 -1.479,4.756 -4.669,4.756c-3.045,0 -4.292,-1.363 -4.292,-4.06l-0,-7.83l-3.103,0l-0,8.671c-0,3.335 1.972,6.032 6.032,6.032Z" style="fill:#321914;fill-rule:nonzero;"/><path d="M451.13,295.5l-0,-2.755l-8.294,0l-2.668,0.145l-0,-0.232l2.668,-1.972l7.859,-6.902l-0,-2.697l-14.065,0l-0,2.755l6.902,0l3.045,-0.116l-0,0.232l-3.045,2.291l-7.337,6.554l-0,2.697l14.935,0Z" style="fill:#321914;fill-rule:nonzero;"/><path d="M460.497,295.79c4.292,0 7.308,-2.117 7.308,-5.191l-0,-0.261l-3.132,0l-0,0.232c-0,1.711 -1.247,2.697 -4.263,2.697c-3.335,-0 -4.698,-1.479 -4.814,-4.263l12.238,-0c0.087,-0.435 0.116,-0.841 0.116,-1.363c-0,-4.379 -3.045,-6.844 -7.511,-6.844c-4.698,-0 -7.772,3.016 -7.772,7.511c-0,4.814 3.103,7.482 7.83,7.482Zm-0.116,-12.528c3.074,-0 4.611,1.276 4.611,3.944l-0,0.058l-9.367,-0c0.174,-2.581 1.566,-4.002 4.756,-4.002Z" style="fill:#321914;fill-rule:nonzero;"/><path d="M473.431,295.5l-0,-7.134c-0,-3.132 1.421,-4.756 4.582,-4.756c2.987,0 4.205,1.363 4.205,4.06l0,7.83l3.132,0l-0,-8.671c-0,-3.335 -1.972,-6.032 -5.974,-6.032c-3.654,0 -5.568,2.32 -6.003,4.756l-0.203,0l-0,-4.466l-2.871,0l-0,14.413l3.132,0Z" style="fill:#321914;fill-rule:nonzero;"/><path d="M494.485,295.79c3.248,0 5.365,-1.566 5.974,-4.437l0.203,0l-0,4.147l2.871,0l-0,-19.43l-3.132,0l-0,8.932l-0.174,0c-0.58,-2.436 -2.523,-4.205 -5.945,-4.205c-4.379,0 -6.873,3.016 -6.873,7.511c-0,4.437 2.523,7.482 7.076,7.482Zm-3.915,-7.482c-0,-3.48 1.798,-4.669 4.814,-4.669c3.219,-0 5.017,1.508 5.017,4.582l-0,0.232c-0,3.016 -1.885,4.466 -4.959,4.466c-3.103,-0 -4.872,-1.16 -4.872,-4.611Z" style="fill:#321914;fill-rule:nonzero;"/><path d="M510.667,295.79c3.277,0 5.568,-1.45 6.322,-3.886l0.203,0l-0,3.596l2.871,0l-0,-8.758c-0,-3.451 -2.059,-5.945 -6.641,-5.945c-4.582,0 -7.308,2.465 -7.308,5.742l-0,0.116l3.103,-0l-0,-0.116c-0,-2.117 1.305,-2.987 3.973,-2.987c2.755,0 3.799,0.841 3.799,3.219l-0,0.841l-6.554,0.696c-2.842,0.319 -4.64,1.479 -4.64,3.712c-0,2.378 1.885,3.77 4.872,3.77Zm-1.74,-3.973c-0,-1.131 0.783,-1.508 2.407,-1.711l5.655,-0.638c-0,2.842 -2.204,4.06 -5.481,4.06c-1.798,0 -2.581,-0.551 -2.581,-1.711Z" style="fill:#321914;fill-rule:nonzero;"/><path d="M525.979,295.5l-0,-8.091c-0,-2.581 1.015,-3.944 3.48,-3.944c2.146,0 3.016,0.957 3.016,3.016l-0,1.276l3.103,0l-0,-1.885c-0,-2.726 -1.421,-5.075 -4.698,-5.075c-2.958,0 -4.524,1.856 -4.959,4.176l-0.203,0l-0,-3.886l-2.871,0l-0,14.413l3.132,0Z" style="fill:#321914;fill-rule:nonzero;"/><path d="M540.682,279.405l-0,-3.335l-3.132,-0l-0,3.335l3.132,-0Zm-0,16.095l-0,-14.413l-3.132,0l-0,14.413l3.132,0Z" style="fill:#321914;fill-rule:nonzero;"/><path d="M547.816,295.79c3.277,0 5.568,-1.45 6.322,-3.886l0.203,0l-0,3.596l2.871,0l-0,-8.758c-0,-3.451 -2.059,-5.945 -6.641,-5.945c-4.582,0 -7.308,2.465 -7.308,5.742l-0,0.116l3.103,-0l-0,-0.116c-0,-2.117 1.305,-2.987 3.973,-2.987c2.755,0 3.799,0.841 3.799,3.219l-0,0.841l-6.554,0.696c-2.842,0.319 -4.64,1.479 -4.64,3.712c-0,2.378 1.885,3.77 4.872,3.77Zm-1.74,-3.973c-0,-1.131 0.783,-1.508 2.407,-1.711l5.655,-0.638c-0,2.842 -2.204,4.06 -5.481,4.06c-1.798,0 -2.581,-0.551 -2.581,-1.711Z" style="fill:#321914;fill-rule:nonzero;"/></g><g><path d="M94.25,237c32.85,0 49.35,-16.5 49.35,-43.5l-0,-58.5l-22.5,0l-0,56.85c-0,17.1 -6.3,23.25 -26.85,23.25c-20.4,0 -26.85,-6.15 -26.85,-23.25l-0,-56.85l-22.5,0l-0,58.5c-0,27 16.65,43.5 49.35,43.5Z" style="fill:#004097;fill-rule:nonzero;"/><path d="M188,227.85c16.8,0 25.65,-7.65 28.05,-18.75l1.2,0l-0,16.95c-0,14.7 -4.35,17.7 -18.75,17.7c-15.3,0 -18.6,-2.55 -18.6,-10.95l-22.5,0c-0,18.9 15.3,29.7 39.6,29.7c26.85,0 42.75,-11.7 42.75,-37.95l-0,-64.2l-21,-0l-0,18.15l-1.2,-0c-2.4,-13.05 -13.35,-19.65 -28.65,-19.65c-22.5,-0 -36.15,13.5 -36.15,34.5c-0,21.15 12.9,34.5 35.25,34.5Zm-12.6,-34.5c-0,-11.1 6.3,-15 20.7,-15c13.95,-0 21.15,3.9 21.15,14.1l-0,1.65c-0,10.35 -7.05,14.4 -21.45,14.4c-14.1,-0 -20.4,-4.05 -20.4,-15.15Z" style="fill:#004097;fill-rule:nonzero;"/><path d="M274.85,237c16.65,0 27.15,-7.05 30.6,-18.75l1.2,0l-0,17.25l21,0l-0,-44.1c-0,-19.65 -11.85,-32.55 -36.9,-32.55c-24.75,-0 -40.35,12.9 -40.35,31.5l-0,0.45l22.65,0l-0,-0.6c-0,-8.55 4.65,-11.55 16.05,-11.55c12,0 16.35,2.7 16.35,12.45l-0,2.85l-32.25,3.3c-16.05,1.65 -24.3,8.55 -24.3,19.65c-0,12.6 9.75,20.1 25.95,20.1Zm-3.3,-21.6c-0,-3.6 2.4,-5.1 7.8,-5.55l26.1,-3c-0.6,10.65 -8.85,14.25 -24.15,14.25c-6.6,0 -9.75,-1.65 -9.75,-5.7Z" style="fill:#004097;fill-rule:nonzero;"/><path d="M361.55,235.5l-0,-43.5c-0,-9.45 3.6,-14.1 13.65,-14.1c9.15,0 12.45,3.6 12.45,11.85l0,7.8l22.5,0l0,-12.45c0,-14.7 -6.9,-26.25 -23.7,-26.25c-15.15,-0 -23.1,9.3 -25.2,21.45l-1.35,0l0,-19.95l-20.85,-0l0,75.15l22.5,-0Z" style="fill:#004097;fill-rule:nonzero;"/><path d="M471.2,235.5l-0,-20.25l-13.5,0c-7.95,0 -10.8,-1.95 -10.8,-9.45l-0,-26.85l24.3,-0l-0,-18.6l-24.3,-0l-0,-14.55l-22.5,0l-0,14.55l-11.85,-0l0,18.6l11.85,-0l-0,29.4c-0,18.9 10.65,27.15 28.2,27.15l18.6,-0Z" style="fill:#004097;fill-rule:nonzero;"/><path d="M519.5,237c23.85,0 39.75,-11.4 39.75,-27.75l-0,-1.65l-22.5,0l-0,1.5c-0,6.45 -4.65,9.9 -18,9.9c-14.55,0 -19.95,-4.95 -20.55,-16.5l61.2,0c0.3,-2.55 0.6,-4.5 0.6,-7.2c-0,-23.55 -16.35,-36.45 -40.95,-36.45c-24.75,-0 -41.7,15.15 -41.7,39.15c-0,26.7 17.1,39 42.15,39Zm-0.9,-60.6c13.2,-0 19.2,4.35 19.8,14.25l-39.9,-0c1.05,-9.75 6.75,-14.25 20.1,-14.25Z" style="fill:#004097;fill-rule:nonzero;"/></g><g><path d="M67.2,100.5l-0,-33.15l45.3,-67.35l-27.9,0l-19.2,29.4l-8.4,13.5l-1.65,-0l-8.4,-13.5l-19.2,-29.4l-27.75,-0l44.55,67.2l-0,33.3l22.65,0Z" style="fill:#004097;fill-rule:nonzero;"/><path d="M147.9,102c19.8,0 28.95,-11.85 30.9,-24.45l1.2,0l0,22.95l21,0l-0,-75.15l-22.5,0l0,38.1c0,12.75 -5.25,18.45 -19.95,18.45c-14.25,0 -19.35,-5.1 -19.35,-17.25l-0,-39.3l-22.5,0l-0,46.8c-0,16.8 10.05,29.85 31.2,29.85Z" style="fill:#004097;fill-rule:nonzero;"/><path d="M235.05,100.5l-0,-43.5c-0,-9.45 3.6,-14.1 13.65,-14.1c9.15,0 12.45,3.6 12.45,11.85l-0,7.8l22.5,0l-0,-12.45c-0,-14.7 -6.9,-26.25 -23.7,-26.25c-15.15,0 -23.1,9.3 -25.2,21.45l-1.35,0l-0,-19.95l-20.85,-0l-0,75.15l22.5,0Z" style="fill:#004097;fill-rule:nonzero;"/><path d="M314.25,100.5l0,-43.5c0,-9.45 3.6,-14.1 13.65,-14.1c9.15,0 12.45,3.6 12.45,11.85l0,7.8l22.5,0l0,-12.45c0,-14.7 -6.9,-26.25 -23.7,-26.25c-15.15,0 -23.1,9.3 -25.2,21.45l-1.35,0l0,-19.95l-20.85,-0l0,75.15l22.5,0Z" style="fill:#004097;fill-rule:nonzero;"/><path d="M410.85,102c23.85,0 39.75,-11.4 39.75,-27.75l-0,-1.65l-22.5,0l-0,1.5c-0,6.45 -4.65,9.9 -18,9.9c-14.55,0 -19.95,-4.95 -20.55,-16.5l61.2,0c0.3,-2.55 0.6,-4.5 0.6,-7.2c-0,-23.55 -16.35,-36.45 -40.95,-36.45c-24.75,0 -41.7,15.15 -41.7,39.15c-0,26.7 17.1,39 42.15,39Zm-0.9,-60.6c13.2,0 19.2,4.35 19.8,14.25l-39.9,0c1.05,-9.75 6.75,-14.25 20.1,-14.25Z" style="fill:#004097;fill-rule:nonzero;"/></g></svg>