<?xml version="1.0" encoding="UTF-8" standalone="no"?><!DOCTYPE svg PUBLIC "-//W3C//DTD SVG 1.1//EN" "http://www.w3.org/Graphics/SVG/1.1/DTD/svg11.dtd"><svg width="100%" height="100%" viewBox="0 0 560 301" version="1.1" xmlns="http://www.w3.org/2000/svg" xmlns:xlink="http://www.w3.org/1999/xlink" xml:space="preserve" xmlns:serif="http://www.serif.com/" style="fill-rule:evenodd;clip-rule:evenodd;stroke-linejoin:round;stroke-miterlimit:2;"><g><rect x="158.95" y="278.08" width="2.808" height="17.42" style="fill:#321914;fill-rule:nonzero;"/><path d="M170.052,295.76c2.912,0 4.81,-1.404 5.356,-3.978l0.182,0l0,3.718l2.574,0l0,-17.42l-2.808,0l0,8.008l-0.156,0c-0.52,-2.184 -2.262,-3.77 -5.33,-3.77c-3.926,0 -6.162,2.704 -6.162,6.734c0,3.978 2.262,6.708 6.344,6.708Zm-3.51,-6.708c0,-3.12 1.612,-4.186 4.316,-4.186c2.886,0 4.498,1.352 4.498,4.108l0,0.208c0,2.704 -1.69,4.004 -4.446,4.004c-2.782,-0 -4.368,-1.04 -4.368,-4.134Z" style="fill:#321914;fill-rule:nonzero;"/><path d="M184.56,295.76c2.938,0 4.992,-1.3 5.668,-3.484l0.182,0l0,3.224l2.574,0l0,-7.852c0,-3.094 -1.846,-5.33 -5.954,-5.33c-4.108,-0 -6.552,2.21 -6.552,5.148l0,0.104l2.782,-0l0,-0.104c0,-1.898 1.17,-2.678 3.562,-2.678c2.47,-0 3.406,0.754 3.406,2.886l0,0.754l-5.876,0.624c-2.548,0.286 -4.16,1.326 -4.16,3.328c0,2.132 1.69,3.38 4.368,3.38Zm-1.56,-3.562c0,-1.014 0.702,-1.352 2.158,-1.534l5.07,-0.572c0,2.548 -1.976,3.64 -4.914,3.64c-1.612,-0 -2.314,-0.494 -2.314,-1.534Z" style="fill:#321914;fill-rule:nonzero;"/><path d="M208.168,295.5l0,-2.47l-7.436,0l-2.392,0.13l0,-0.208l2.392,-1.768l7.046,-6.188l0,-2.418l-12.61,0l0,2.47l6.188,0l2.73,-0.104l0,0.208l-2.73,2.054l-6.578,5.876l0,2.418l13.39,0Z" style="fill:#321914;fill-rule:nonzero;"/><rect x="210.066" y="278.08" width="2.808" height="17.42" style="fill:#321914;fill-rule:nonzero;"/><path d="M221.974,295.76c3.848,0 6.552,-1.898 6.552,-4.654l0,-0.234l-2.808,0l0,0.208c0,1.534 -1.118,2.418 -3.822,2.418c-2.99,-0 -4.212,-1.326 -4.316,-3.822l10.972,-0c0.078,-0.39 0.104,-0.754 0.104,-1.222c0,-3.926 -2.73,-6.136 -6.734,-6.136c-4.212,-0 -6.968,2.704 -6.968,6.734c0,4.316 2.782,6.708 7.02,6.708Zm-0.104,-11.232c2.756,0 4.134,1.144 4.134,3.536l0,0.052l-8.398,-0c0.156,-2.314 1.404,-3.588 4.264,-3.588Z" style="fill:#321914;fill-rule:nonzero;"/><path d="M234.558,295.76c2.938,0 4.992,-1.3 5.668,-3.484l0.182,0l0,3.224l2.574,0l0,-7.852c0,-3.094 -1.846,-5.33 -5.954,-5.33c-4.108,-0 -6.552,2.21 -6.552,5.148l0,0.104l2.782,-0l0,-0.104c0,-1.898 1.17,-2.678 3.562,-2.678c2.47,-0 3.406,0.754 3.406,2.886l0,0.754l-5.876,0.624c-2.548,0.286 -4.16,1.326 -4.16,3.328c0,2.132 1.69,3.38 4.368,3.38Zm-1.56,-3.562c0,-1.014 0.702,-1.352 2.158,-1.534l5.07,-0.572c0,2.548 -1.976,3.64 -4.914,3.64c-1.612,-0 -2.314,-0.494 -2.314,-1.534Z" style="fill:#321914;fill-rule:nonzero;"/><path d="M245.946,298.412c1.612,-0 2.548,-0.78 2.548,-2.392l0,-4.55l-3.536,0l0,4.03l1.56,0l0,0.546c0,0.546 -0.208,0.65 -0.65,0.65l-0.858,0l0,1.716l0.936,0Z" style="fill:#321914;fill-rule:nonzero;"/><path d="M260.636,294.33c2.938,0 4.68,-1.404 5.148,-3.354l0.182,0l0,3.172c0,2.886 -1.066,3.692 -4.004,3.692c-2.756,-0 -3.848,-0.702 -3.848,-2.574l-2.782,0c0,3.12 2.652,4.914 6.474,4.914c4.238,0 6.942,-1.846 6.942,-6.188l0,-11.414l-2.574,-0l0,3.224l-0.156,0c-0.468,-2.262 -2.496,-3.484 -5.2,-3.484c-3.926,-0 -6.318,2.418 -6.318,6.006c0,3.588 2.288,6.006 6.136,6.006Zm-3.302,-6.006c0,-2.652 1.586,-3.562 4.29,-3.562c2.73,-0 4.342,1.118 4.342,3.302l0,0.364c0,2.288 -1.56,3.484 -4.42,3.484c-2.652,-0 -4.212,-0.936 -4.212,-3.588Z" style="fill:#321914;fill-rule:nonzero;"/><path d="M274.156,281.07l0,-2.99l-2.808,0l0,2.99l2.808,0Zm0,14.43l0,-12.922l-2.808,0l0,12.922l2.808,0Z" style="fill:#321914;fill-rule:nonzero;"/><path d="M282.45,295.76c2.912,0 4.81,-1.404 5.356,-3.978l0.182,0l0,3.718l2.574,0l0,-17.42l-2.808,0l0,8.008l-0.156,0c-0.52,-2.184 -2.262,-3.77 -5.33,-3.77c-3.926,0 -6.162,2.704 -6.162,6.734c0,3.978 2.262,6.708 6.344,6.708Zm-3.51,-6.708c0,-3.12 1.612,-4.186 4.316,-4.186c2.886,0 4.498,1.352 4.498,4.108l0,0.208c0,2.704 -1.69,4.004 -4.446,4.004c-2.782,-0 -4.368,-1.04 -4.368,-4.134Z" style="fill:#321914;fill-rule:nonzero;"/><path d="M299.766,295.76c4.316,0 7.202,-2.73 7.202,-6.708c0,-4.03 -2.886,-6.734 -7.202,-6.734c-4.29,0 -7.176,2.704 -7.176,6.734c0,3.978 2.886,6.708 7.176,6.708Zm0,-2.496c-3.12,0 -4.42,-1.482 -4.42,-4.212c0,-2.756 1.3,-4.264 4.42,-4.264c3.146,0 4.446,1.508 4.446,4.264c0,2.73 -1.3,4.212 -4.446,4.212Z" style="fill:#321914;fill-rule:nonzero;"/><path d="M311.804,281.07l0,-2.99l-2.808,0l0,2.99l2.808,0Zm0,14.43l0,-12.922l-2.808,0l0,12.922l2.808,0Z" style="fill:#321914;fill-rule:nonzero;"/><rect x="314.404" y="278.08" width="2.808" height="17.42" style="fill:#321914;fill-rule:nonzero;"/><path d="M323.608,295.76c2.938,0 4.992,-1.3 5.668,-3.484l0.182,0l0,3.224l2.574,0l0,-7.852c0,-3.094 -1.846,-5.33 -5.954,-5.33c-4.108,-0 -6.552,2.21 -6.552,5.148l0,0.104l2.782,-0l0,-0.104c0,-1.898 1.17,-2.678 3.562,-2.678c2.47,-0 3.406,0.754 3.406,2.886l0,0.754l-5.876,0.624c-2.548,0.286 -4.16,1.326 -4.16,3.328c0,2.132 1.69,3.38 4.368,3.38Zm-1.56,-3.562c0,-1.014 0.702,-1.352 2.158,-1.534l5.07,-0.572c0,2.548 -1.976,3.64 -4.914,3.64c-1.612,-0 -2.314,-0.494 -2.314,-1.534Z" style="fill:#321914;fill-rule:nonzero;"/><path d="M337.336,295.5l0,-7.254c0,-2.314 0.91,-3.536 3.12,-3.536c1.924,0 2.704,0.858 2.704,2.704l0,1.144l2.782,0l0,-1.69c0,-2.444 -1.274,-4.55 -4.212,-4.55c-2.652,0 -4.056,1.664 -4.446,3.744l-0.182,0l0,-3.484l-2.574,-0l0,12.922l2.808,-0Z" style="fill:#321914;fill-rule:nonzero;"/><path d="M350.518,281.07l0,-2.99l-2.808,0l0,2.99l2.808,0Zm0,14.43l0,-12.922l-2.808,0l0,12.922l2.808,0Z" style="fill:#321914;fill-rule:nonzero;"/><path d="M356.914,295.76c2.938,0 4.992,-1.3 5.668,-3.484l0.182,0l0,3.224l2.574,0l0,-7.852c0,-3.094 -1.846,-5.33 -5.954,-5.33c-4.108,-0 -6.552,2.21 -6.552,5.148l0,0.104l2.782,-0l0,-0.104c0,-1.898 1.17,-2.678 3.562,-2.678c2.47,-0 3.406,0.754 3.406,2.886l0,0.754l-5.876,0.624c-2.548,0.286 -4.16,1.326 -4.16,3.328c0,2.132 1.69,3.38 4.368,3.38Zm-1.56,-3.562c0,-1.014 0.702,-1.352 2.158,-1.534l5.07,-0.572c0,2.548 -1.976,3.64 -4.914,3.64c-1.612,-0 -2.314,-0.494 -2.314,-1.534Z" style="fill:#321914;fill-rule:nonzero;"/><path d="M378.78,295.76c3.848,0 6.552,-1.898 6.552,-4.654l0,-0.234l-2.808,0l0,0.208c0,1.534 -1.118,2.418 -3.822,2.418c-2.99,-0 -4.212,-1.326 -4.316,-3.822l10.972,-0c0.078,-0.39 0.104,-0.754 0.104,-1.222c0,-3.926 -2.73,-6.136 -6.734,-6.136c-4.212,-0 -6.968,2.704 -6.968,6.734c0,4.316 2.782,6.708 7.02,6.708Zm-0.104,-11.232c2.756,0 4.134,1.144 4.134,3.536l0,0.052l-8.398,-0c0.156,-2.314 1.404,-3.588 4.264,-3.588Z" style="fill:#321914;fill-rule:nonzero;"/><path d="M396.044,295.5l0,-2.522l-2.34,0c-1.612,0 -2.34,-0.416 -2.34,-2.002l0,-6.058l4.68,0l0,-2.34l-4.68,-0l0,-2.834l-2.782,0l0,2.834l-2.184,-0l0,2.34l2.184,0l0,6.214c0,3.146 1.716,4.368 4.498,4.368l2.964,0Z" style="fill:#321914;fill-rule:nonzero;"/><path d="M401.608,295.76c2.938,0 4.992,-1.3 5.668,-3.484l0.182,0l0,3.224l2.574,0l0,-7.852c0,-3.094 -1.846,-5.33 -5.954,-5.33c-4.108,-0 -6.552,2.21 -6.552,5.148l0,0.104l2.782,-0l0,-0.104c0,-1.898 1.17,-2.678 3.562,-2.678c2.47,-0 3.406,0.754 3.406,2.886l0,0.754l-5.876,0.624c-2.548,0.286 -4.16,1.326 -4.16,3.328c0,2.132 1.69,3.38 4.368,3.38Zm-1.56,-3.562c0,-1.014 0.702,-1.352 2.158,-1.534l5.07,-0.572c0,2.548 -1.976,3.64 -4.914,3.64c-1.612,-0 -2.314,-0.494 -2.314,-1.534Z" style="fill:#321914;fill-rule:nonzero;"/><path d="M429.662,295.5l0,-2.47l-7.436,0l-2.392,0.13l0,-0.208l2.392,-1.768l7.046,-6.188l0,-2.418l-12.61,0l0,2.47l6.188,0l2.73,-0.104l0,0.208l-2.73,2.054l-6.578,5.876l0,2.418l13.39,0Z" style="fill:#321914;fill-rule:nonzero;"/><path d="M436.942,295.76c3.328,0 5.044,-2.08 5.46,-4.264l0.156,0l0,4.004l2.574,0l0,-12.922l-2.782,0l0,6.396c0,2.808 -1.326,4.264 -4.186,4.264c-2.73,0 -3.848,-1.222 -3.848,-3.64l0,-7.02l-2.782,-0l0,7.774c0,2.99 1.768,5.408 5.408,5.408Z" style="fill:#321914;fill-rule:nonzero;"/><path d="M460.368,295.5l0,-2.47l-7.436,0l-2.392,0.13l0,-0.208l2.392,-1.768l7.046,-6.188l0,-2.418l-12.61,0l0,2.47l6.188,0l2.73,-0.104l0,0.208l-2.73,2.054l-6.578,5.876l0,2.418l13.39,0Z" style="fill:#321914;fill-rule:nonzero;"/><path d="M468.766,295.76c3.848,0 6.552,-1.898 6.552,-4.654l0,-0.234l-2.808,0l0,0.208c0,1.534 -1.118,2.418 -3.822,2.418c-2.99,-0 -4.212,-1.326 -4.316,-3.822l10.972,-0c0.078,-0.39 0.104,-0.754 0.104,-1.222c0,-3.926 -2.73,-6.136 -6.734,-6.136c-4.212,-0 -6.968,2.704 -6.968,6.734c0,4.316 2.782,6.708 7.02,6.708Zm-0.104,-11.232c2.756,0 4.134,1.144 4.134,3.536l0,0.052l-8.398,-0c0.156,-2.314 1.404,-3.588 4.264,-3.588Z" style="fill:#321914;fill-rule:nonzero;"/><path d="M480.362,295.5l0,-6.396c0,-2.808 1.274,-4.264 4.108,-4.264c2.678,0 3.77,1.222 3.77,3.64l0,7.02l2.808,0l0,-7.774c0,-2.99 -1.768,-5.408 -5.356,-5.408c-3.276,0 -4.992,2.08 -5.382,4.264l-0.182,0l0,-4.004l-2.574,0l0,12.922l2.808,0Z" style="fill:#321914;fill-rule:nonzero;"/><path d="M499.238,295.76c2.912,0 4.81,-1.404 5.356,-3.978l0.182,0l0,3.718l2.574,0l0,-17.42l-2.808,0l0,8.008l-0.156,0c-0.52,-2.184 -2.262,-3.77 -5.33,-3.77c-3.926,0 -6.162,2.704 -6.162,6.734c0,3.978 2.262,6.708 6.344,6.708Zm-3.51,-6.708c0,-3.12 1.612,-4.186 4.316,-4.186c2.886,0 4.498,1.352 4.498,4.108l0,0.208c0,2.704 -1.69,4.004 -4.446,4.004c-2.782,-0 -4.368,-1.04 -4.368,-4.134Z" style="fill:#321914;fill-rule:nonzero;"/><path d="M513.746,295.76c2.938,0 4.992,-1.3 5.668,-3.484l0.182,0l0,3.224l2.574,0l0,-7.852c0,-3.094 -1.846,-5.33 -5.954,-5.33c-4.108,-0 -6.552,2.21 -6.552,5.148l0,0.104l2.782,-0l0,-0.104c0,-1.898 1.17,-2.678 3.562,-2.678c2.47,-0 3.406,0.754 3.406,2.886l0,0.754l-5.876,0.624c-2.548,0.286 -4.16,1.326 -4.16,3.328c0,2.132 1.69,3.38 4.368,3.38Zm-1.56,-3.562c0,-1.014 0.702,-1.352 2.158,-1.534l5.07,-0.572c0,2.548 -1.976,3.64 -4.914,3.64c-1.612,-0 -2.314,-0.494 -2.314,-1.534Z" style="fill:#321914;fill-rule:nonzero;"/><path d="M527.474,295.5l0,-7.254c0,-2.314 0.91,-3.536 3.12,-3.536c1.924,0 2.704,0.858 2.704,2.704l0,1.144l2.782,0l0,-1.69c0,-2.444 -1.274,-4.55 -4.212,-4.55c-2.652,0 -4.056,1.664 -4.446,3.744l-0.182,0l0,-3.484l-2.574,-0l0,12.922l2.808,-0Z" style="fill:#321914;fill-rule:nonzero;"/><path d="M540.656,281.07l0,-2.99l-2.808,0l0,2.99l2.808,0Zm0,14.43l0,-12.922l-2.808,0l0,12.922l2.808,0Z" style="fill:#321914;fill-rule:nonzero;"/><path d="M547.052,295.76c2.938,0 4.992,-1.3 5.668,-3.484l0.182,0l0,3.224l2.574,0l0,-7.852c0,-3.094 -1.846,-5.33 -5.954,-5.33c-4.108,-0 -6.552,2.21 -6.552,5.148l0,0.104l2.782,-0l0,-0.104c0,-1.898 1.17,-2.678 3.562,-2.678c2.47,-0 3.406,0.754 3.406,2.886l0,0.754l-5.876,0.624c-2.548,0.286 -4.16,1.326 -4.16,3.328c0,2.132 1.69,3.38 4.368,3.38Zm-1.56,-3.562c0,-1.014 0.702,-1.352 2.158,-1.534l5.07,-0.572c0,2.548 -1.976,3.64 -4.914,3.64c-1.612,-0 -2.314,-0.494 -2.314,-1.534Z" style="fill:#321914;fill-rule:nonzero;"/></g><g><path d="M94.25,237c32.85,0 49.35,-16.5 49.35,-43.5l-0,-58.5l-22.5,0l-0,56.85c-0,17.1 -6.3,23.25 -26.85,23.25c-20.4,0 -26.85,-6.15 -26.85,-23.25l-0,-56.85l-22.5,0l-0,58.5c-0,27 16.65,43.5 49.35,43.5Z" style="fill:#004097;fill-rule:nonzero;"/><path d="M188,227.85c16.8,0 25.65,-7.65 28.05,-18.75l1.2,0l-0,16.95c-0,14.7 -4.35,17.7 -18.75,17.7c-15.3,0 -18.6,-2.55 -18.6,-10.95l-22.5,0c-0,18.9 15.3,29.7 39.6,29.7c26.85,0 42.75,-11.7 42.75,-37.95l-0,-64.2l-21,-0l-0,18.15l-1.2,-0c-2.4,-13.05 -13.35,-19.65 -28.65,-19.65c-22.5,-0 -36.15,13.5 -36.15,34.5c-0,21.15 12.9,34.5 35.25,34.5Zm-12.6,-34.5c-0,-11.1 6.3,-15 20.7,-15c13.95,-0 21.15,3.9 21.15,14.1l-0,1.65c-0,10.35 -7.05,14.4 -21.45,14.4c-14.1,-0 -20.4,-4.05 -20.4,-15.15Z" style="fill:#004097;fill-rule:nonzero;"/><path d="M274.85,237c16.65,0 27.15,-7.05 30.6,-18.75l1.2,0l-0,17.25l21,0l-0,-44.1c-0,-19.65 -11.85,-32.55 -36.9,-32.55c-24.75,-0 -40.35,12.9 -40.35,31.5l-0,0.45l22.65,0l-0,-0.6c-0,-8.55 4.65,-11.55 16.05,-11.55c12,0 16.35,2.7 16.35,12.45l-0,2.85l-32.25,3.3c-16.05,1.65 -24.3,8.55 -24.3,19.65c-0,12.6 9.75,20.1 25.95,20.1Zm-3.3,-21.6c-0,-3.6 2.4,-5.1 7.8,-5.55l26.1,-3c-0.6,10.65 -8.85,14.25 -24.15,14.25c-6.6,0 -9.75,-1.65 -9.75,-5.7Z" style="fill:#004097;fill-rule:nonzero;"/><path d="M361.55,235.5l-0,-43.5c-0,-9.45 3.6,-14.1 13.65,-14.1c9.15,0 12.45,3.6 12.45,11.85l0,7.8l22.5,0l0,-12.45c0,-14.7 -6.9,-26.25 -23.7,-26.25c-15.15,-0 -23.1,9.3 -25.2,21.45l-1.35,0l0,-19.95l-20.85,-0l0,75.15l22.5,-0Z" style="fill:#004097;fill-rule:nonzero;"/><path d="M471.2,235.5l-0,-20.25l-13.5,0c-7.95,0 -10.8,-1.95 -10.8,-9.45l-0,-26.85l24.3,-0l-0,-18.6l-24.3,-0l-0,-14.55l-22.5,0l-0,14.55l-11.85,-0l0,18.6l11.85,-0l-0,29.4c-0,18.9 10.65,27.15 28.2,27.15l18.6,-0Z" style="fill:#004097;fill-rule:nonzero;"/><path d="M519.5,237c23.85,0 39.75,-11.4 39.75,-27.75l-0,-1.65l-22.5,0l-0,1.5c-0,6.45 -4.65,9.9 -18,9.9c-14.55,0 -19.95,-4.95 -20.55,-16.5l61.2,0c0.3,-2.55 0.6,-4.5 0.6,-7.2c-0,-23.55 -16.35,-36.45 -40.95,-36.45c-24.75,-0 -41.7,15.15 -41.7,39.15c-0,26.7 17.1,39 42.15,39Zm-0.9,-60.6c13.2,-0 19.2,4.35 19.8,14.25l-39.9,-0c1.05,-9.75 6.75,-14.25 20.1,-14.25Z" style="fill:#004097;fill-rule:nonzero;"/></g><g><path d="M67.2,100.5l-0,-33.15l45.3,-67.35l-27.9,0l-19.2,29.4l-8.4,13.5l-1.65,-0l-8.4,-13.5l-19.2,-29.4l-27.75,-0l44.55,67.2l-0,33.3l22.65,0Z" style="fill:#004097;fill-rule:nonzero;"/><path d="M147.9,102c19.8,0 28.95,-11.85 30.9,-24.45l1.2,0l0,22.95l21,0l-0,-75.15l-22.5,0l0,38.1c0,12.75 -5.25,18.45 -19.95,18.45c-14.25,0 -19.35,-5.1 -19.35,-17.25l-0,-39.3l-22.5,0l-0,46.8c-0,16.8 10.05,29.85 31.2,29.85Z" style="fill:#004097;fill-rule:nonzero;"/><path d="M235.05,100.5l-0,-43.5c-0,-9.45 3.6,-14.1 13.65,-14.1c9.15,0 12.45,3.6 12.45,11.85l-0,7.8l22.5,0l-0,-12.45c-0,-14.7 -6.9,-26.25 -23.7,-26.25c-15.15,0 -23.1,9.3 -25.2,21.45l-1.35,0l-0,-19.95l-20.85,-0l-0,75.15l22.5,0Z" style="fill:#004097;fill-rule:nonzero;"/><path d="M314.25,100.5l0,-43.5c0,-9.45 3.6,-14.1 13.65,-14.1c9.15,0 12.45,3.6 12.45,11.85l0,7.8l22.5,0l0,-12.45c0,-14.7 -6.9,-26.25 -23.7,-26.25c-15.15,0 -23.1,9.3 -25.2,21.45l-1.35,0l0,-19.95l-20.85,-0l0,75.15l22.5,0Z" style="fill:#004097;fill-rule:nonzero;"/><path d="M410.85,102c23.85,0 39.75,-11.4 39.75,-27.75l-0,-1.65l-22.5,0l-0,1.5c-0,6.45 -4.65,9.9 -18,9.9c-14.55,0 -19.95,-4.95 -20.55,-16.5l61.2,0c0.3,-2.55 0.6,-4.5 0.6,-7.2c-0,-23.55 -16.35,-36.45 -40.95,-36.45c-24.75,0 -41.7,15.15 -41.7,39.15c-0,26.7 17.1,39 42.15,39Zm-0.9,-60.6c13.2,0 19.2,4.35 19.8,14.25l-39.9,0c1.05,-9.75 6.75,-14.25 20.1,-14.25Z" style="fill:#004097;fill-rule:nonzero;"/></g></svg>