<?xml version="1.0" encoding="UTF-8" standalone="no"?><!DOCTYPE svg PUBLIC "-//W3C//DTD SVG 1.1//EN" "http://www.w3.org/Graphics/SVG/1.1/DTD/svg11.dtd"><svg width="100%" height="100%" viewBox="0 0 560 278" version="1.1" xmlns="http://www.w3.org/2000/svg" xmlns:xlink="http://www.w3.org/1999/xlink" xml:space="preserve" xmlns:serif="http://www.serif.com/" style="fill-rule:evenodd;clip-rule:evenodd;stroke-linejoin:round;stroke-miterlimit:2;"><g><rect x="250.65" y="260.1" width="2.16" height="13.4" style="fill:#321914;fill-rule:nonzero;"/><path d="M259.243,273.7c2.24,0 3.7,-1.08 4.12,-3.06l0.14,0l-0,2.86l1.98,0l-0,-13.4l-2.16,0l-0,6.16l-0.12,-0c-0.4,-1.68 -1.74,-2.9 -4.1,-2.9c-3.02,-0 -4.74,2.08 -4.74,5.18c-0,3.06 1.74,5.16 4.88,5.16Zm-2.7,-5.16c-0,-2.4 1.24,-3.22 3.32,-3.22c2.22,-0 3.46,1.04 3.46,3.16l-0,0.16c-0,2.08 -1.3,3.08 -3.42,3.08c-2.14,-0 -3.36,-0.8 -3.36,-3.18Z" style="fill:#321914;fill-rule:nonzero;"/><path d="M270.456,273.7c2.26,0 3.84,-1 4.36,-2.68l0.14,0l-0,2.48l1.98,0l-0,-6.04c-0,-2.38 -1.42,-4.1 -4.58,-4.1c-3.16,0 -5.04,1.7 -5.04,3.96l-0,0.08l2.14,0l-0,-0.08c-0,-1.46 0.9,-2.06 2.74,-2.06c1.9,0 2.62,0.58 2.62,2.22l-0,0.58l-4.52,0.48c-1.96,0.22 -3.2,1.02 -3.2,2.56c-0,1.64 1.3,2.6 3.36,2.6Zm-1.2,-2.74c-0,-0.78 0.54,-1.04 1.66,-1.18l3.9,-0.44c-0,1.96 -1.52,2.8 -3.78,2.8c-1.24,0 -1.78,-0.38 -1.78,-1.18Z" style="fill:#321914;fill-rule:nonzero;"/><path d="M288.668,273.5l0,-1.9l-5.72,0l-1.84,0.1l0,-0.16l1.84,-1.36l5.42,-4.76l0,-1.86l-9.7,0l0,1.9l4.76,0l2.1,-0.08l0,0.16l-2.1,1.58l-5.06,4.52l0,1.86l10.3,0Z" style="fill:#321914;fill-rule:nonzero;"/><rect x="290.181" y="260.1" width="2.16" height="13.4" style="fill:#321914;fill-rule:nonzero;"/><path d="M299.394,273.7c2.96,0 5.04,-1.46 5.04,-3.58l-0,-0.18l-2.16,0l-0,0.16c-0,1.18 -0.86,1.86 -2.94,1.86c-2.3,-0 -3.24,-1.02 -3.32,-2.94l8.44,-0c0.06,-0.3 0.08,-0.58 0.08,-0.94c-0,-3.02 -2.1,-4.72 -5.18,-4.72c-3.24,0 -5.36,2.08 -5.36,5.18c-0,3.32 2.14,5.16 5.4,5.16Zm-0.08,-8.64c2.12,-0 3.18,0.88 3.18,2.72l-0,0.04l-6.46,-0c0.12,-1.78 1.08,-2.76 3.28,-2.76Z" style="fill:#321914;fill-rule:nonzero;"/><path d="M309.127,273.7c2.26,0 3.84,-1 4.36,-2.68l0.14,0l-0,2.48l1.98,0l-0,-6.04c-0,-2.38 -1.42,-4.1 -4.58,-4.1c-3.16,0 -5.04,1.7 -5.04,3.96l-0,0.08l2.14,0l-0,-0.08c-0,-1.46 0.9,-2.06 2.74,-2.06c1.9,0 2.62,0.58 2.62,2.22l-0,0.58l-4.52,0.48c-1.96,0.22 -3.2,1.02 -3.2,2.56c-0,1.64 1.3,2.6 3.36,2.6Zm-1.2,-2.74c-0,-0.78 0.54,-1.04 1.66,-1.18l3.9,-0.44c-0,1.96 -1.52,2.8 -3.78,2.8c-1.24,0 -1.78,-0.38 -1.78,-1.18Z" style="fill:#321914;fill-rule:nonzero;"/><path d="M317.94,275.74c1.24,0 1.96,-0.6 1.96,-1.84l-0,-3.5l-2.72,-0l-0,3.1l1.2,-0l-0,0.42c-0,0.42 -0.16,0.5 -0.5,0.5l-0.66,-0l-0,1.32l0.72,-0Z" style="fill:#321914;fill-rule:nonzero;"/><path d="M329.345,272.6c2.26,0 3.6,-1.08 3.96,-2.58l0.14,-0l0,2.44c0,2.22 -0.82,2.84 -3.08,2.84c-2.12,0 -2.96,-0.54 -2.96,-1.98l-2.14,0c0,2.4 2.04,3.78 4.98,3.78c3.26,0 5.34,-1.42 5.34,-4.76l0,-8.78l-1.98,0l0,2.48l-0.12,0c-0.36,-1.74 -1.92,-2.68 -4,-2.68c-3.02,0 -4.86,1.86 -4.86,4.62c0,2.76 1.76,4.62 4.72,4.62Zm-2.54,-4.62c0,-2.04 1.22,-2.74 3.3,-2.74c2.1,0 3.34,0.86 3.34,2.54l0,0.28c0,1.76 -1.2,2.68 -3.4,2.68c-2.04,0 -3.24,-0.72 -3.24,-2.76Z" style="fill:#321914;fill-rule:nonzero;"/><path d="M339.798,262.4l-0,-2.3l-2.16,0l-0,2.3l2.16,0Zm-0,11.1l-0,-9.94l-2.16,0l-0,9.94l2.16,0Z" style="fill:#321914;fill-rule:nonzero;"/><path d="M346.231,273.7c2.24,0 3.7,-1.08 4.12,-3.06l0.14,0l-0,2.86l1.98,0l-0,-13.4l-2.16,0l-0,6.16l-0.12,-0c-0.4,-1.68 -1.74,-2.9 -4.1,-2.9c-3.02,-0 -4.74,2.08 -4.74,5.18c-0,3.06 1.74,5.16 4.88,5.16Zm-2.7,-5.16c-0,-2.4 1.24,-3.22 3.32,-3.22c2.22,-0 3.46,1.04 3.46,3.16l-0,0.16c-0,2.08 -1.3,3.08 -3.42,3.08c-2.14,-0 -3.36,-0.8 -3.36,-3.18Z" style="fill:#321914;fill-rule:nonzero;"/><path d="M359.604,273.7c3.32,0 5.54,-2.1 5.54,-5.16c-0,-3.1 -2.22,-5.18 -5.54,-5.18c-3.3,0 -5.52,2.08 -5.52,5.18c-0,3.06 2.22,5.16 5.52,5.16Zm-0,-1.92c-2.4,0 -3.4,-1.14 -3.4,-3.24c-0,-2.12 1,-3.28 3.4,-3.28c2.42,0 3.42,1.16 3.42,3.28c-0,2.1 -1,3.24 -3.42,3.24Z" style="fill:#321914;fill-rule:nonzero;"/><path d="M368.916,262.4l0,-2.3l-2.16,0l0,2.3l2.16,0Zm0,11.1l0,-9.94l-2.16,0l0,9.94l2.16,0Z" style="fill:#321914;fill-rule:nonzero;"/><rect x="370.969" y="260.1" width="2.16" height="13.4" style="fill:#321914;fill-rule:nonzero;"/><path d="M378.102,273.7c2.26,0 3.84,-1 4.36,-2.68l0.14,0l-0,2.48l1.98,0l-0,-6.04c-0,-2.38 -1.42,-4.1 -4.58,-4.1c-3.16,0 -5.04,1.7 -5.04,3.96l-0,0.08l2.14,0l-0,-0.08c-0,-1.46 0.9,-2.06 2.74,-2.06c1.9,0 2.62,0.58 2.62,2.22l-0,0.58l-4.52,0.48c-1.96,0.22 -3.2,1.02 -3.2,2.56c-0,1.64 1.3,2.6 3.36,2.6Zm-1.2,-2.74c-0,-0.78 0.54,-1.04 1.66,-1.18l3.9,-0.44c-0,1.96 -1.52,2.8 -3.78,2.8c-1.24,0 -1.78,-0.38 -1.78,-1.18Z" style="fill:#321914;fill-rule:nonzero;"/><path d="M388.715,273.5l-0,-5.58c-0,-1.78 0.7,-2.72 2.4,-2.72c1.48,0 2.08,0.66 2.08,2.08l-0,0.88l2.14,0l-0,-1.3c-0,-1.88 -0.98,-3.5 -3.24,-3.5c-2.04,0 -3.12,1.28 -3.42,2.88l-0.14,0l-0,-2.68l-1.98,0l-0,9.94l2.16,0Z" style="fill:#321914;fill-rule:nonzero;"/><path d="M398.908,262.4l-0,-2.3l-2.16,0l-0,2.3l2.16,0Zm-0,11.1l-0,-9.94l-2.16,0l-0,9.94l2.16,0Z" style="fill:#321914;fill-rule:nonzero;"/><path d="M403.88,273.7c2.26,0 3.84,-1 4.36,-2.68l0.14,0l0,2.48l1.98,0l0,-6.04c0,-2.38 -1.42,-4.1 -4.58,-4.1c-3.16,0 -5.04,1.7 -5.04,3.96l0,0.08l2.14,0l0,-0.08c0,-1.46 0.9,-2.06 2.74,-2.06c1.9,0 2.62,0.58 2.62,2.22l0,0.58l-4.52,0.48c-1.96,0.22 -3.2,1.02 -3.2,2.56c0,1.64 1.3,2.6 3.36,2.6Zm-1.2,-2.74c0,-0.78 0.54,-1.04 1.66,-1.18l3.9,-0.44c0,1.96 -1.52,2.8 -3.78,2.8c-1.24,0 -1.78,-0.38 -1.78,-1.18Z" style="fill:#321914;fill-rule:nonzero;"/><path d="M420.806,273.7c2.96,0 5.04,-1.46 5.04,-3.58l-0,-0.18l-2.16,0l-0,0.16c-0,1.18 -0.86,1.86 -2.94,1.86c-2.3,-0 -3.24,-1.02 -3.32,-2.94l8.44,-0c0.06,-0.3 0.08,-0.58 0.08,-0.94c-0,-3.02 -2.1,-4.72 -5.18,-4.72c-3.24,0 -5.36,2.08 -5.36,5.18c-0,3.32 2.14,5.16 5.4,5.16Zm-0.08,-8.64c2.12,-0 3.18,0.88 3.18,2.72l-0,0.04l-6.46,-0c0.12,-1.78 1.08,-2.76 3.28,-2.76Z" style="fill:#321914;fill-rule:nonzero;"/><path d="M434.139,273.5l-0,-1.94l-1.8,0c-1.24,0 -1.8,-0.32 -1.8,-1.54l-0,-4.66l3.6,0l-0,-1.8l-3.6,0l-0,-2.18l-2.14,0l-0,2.18l-1.68,0l-0,1.8l1.68,0l-0,4.78c-0,2.42 1.32,3.36 3.46,3.36l2.28,0Z" style="fill:#321914;fill-rule:nonzero;"/><path d="M438.472,273.7c2.26,0 3.84,-1 4.36,-2.68l0.14,0l-0,2.48l1.98,0l-0,-6.04c-0,-2.38 -1.42,-4.1 -4.58,-4.1c-3.16,0 -5.04,1.7 -5.04,3.96l-0,0.08l2.14,0l-0,-0.08c-0,-1.46 0.9,-2.06 2.74,-2.06c1.9,0 2.62,0.58 2.62,2.22l-0,0.58l-4.52,0.48c-1.96,0.22 -3.2,1.02 -3.2,2.56c-0,1.64 1.3,2.6 3.36,2.6Zm-1.2,-2.74c-0,-0.78 0.54,-1.04 1.66,-1.18l3.9,-0.44c-0,1.96 -1.52,2.8 -3.78,2.8c-1.24,0 -1.78,-0.38 -1.78,-1.18Z" style="fill:#321914;fill-rule:nonzero;"/><path d="M460.157,273.5l0,-1.9l-5.72,0l-1.84,0.1l0,-0.16l1.84,-1.36l5.42,-4.76l0,-1.86l-9.7,0l0,1.9l4.76,0l2.1,-0.08l0,0.16l-2.1,1.58l-5.06,4.52l0,1.86l10.3,0Z" style="fill:#321914;fill-rule:nonzero;"/><path d="M465.81,273.7c2.56,0 3.88,-1.6 4.2,-3.28l0.12,0l-0,3.08l1.98,0l-0,-9.94l-2.14,0l-0,4.92c-0,2.16 -1.02,3.28 -3.22,3.28c-2.1,0 -2.96,-0.94 -2.96,-2.8l-0,-5.4l-2.14,0l-0,5.98c-0,2.3 1.36,4.16 4.16,4.16Z" style="fill:#321914;fill-rule:nonzero;"/><path d="M483.883,273.5l-0,-1.9l-5.72,0l-1.84,0.1l-0,-0.16l1.84,-1.36l5.42,-4.76l-0,-1.86l-9.7,0l-0,1.9l4.76,0l2.1,-0.08l-0,0.16l-2.1,1.58l-5.06,4.52l-0,1.86l10.3,0Z" style="fill:#321914;fill-rule:nonzero;"/><path d="M490.396,273.7c2.96,0 5.04,-1.46 5.04,-3.58l-0,-0.18l-2.16,0l-0,0.16c-0,1.18 -0.86,1.86 -2.94,1.86c-2.3,-0 -3.24,-1.02 -3.32,-2.94l8.44,-0c0.06,-0.3 0.08,-0.58 0.08,-0.94c-0,-3.02 -2.1,-4.72 -5.18,-4.72c-3.24,0 -5.36,2.08 -5.36,5.18c-0,3.32 2.14,5.16 5.4,5.16Zm-0.08,-8.64c2.12,-0 3.18,0.88 3.18,2.72l-0,0.04l-6.46,-0c0.12,-1.78 1.08,-2.76 3.28,-2.76Z" style="fill:#321914;fill-rule:nonzero;"/><path d="M499.368,273.5l0,-4.92c0,-2.16 0.98,-3.28 3.16,-3.28c2.06,0 2.9,0.94 2.9,2.8l0,5.4l2.16,0l0,-5.98c0,-2.3 -1.36,-4.16 -4.12,-4.16c-2.52,0 -3.84,1.6 -4.14,3.28l-0.14,0l0,-3.08l-1.98,0l0,9.94l2.16,0Z" style="fill:#321914;fill-rule:nonzero;"/><path d="M513.941,273.7c2.24,0 3.7,-1.08 4.12,-3.06l0.14,0l0,2.86l1.98,0l0,-13.4l-2.16,0l0,6.16l-0.12,-0c-0.4,-1.68 -1.74,-2.9 -4.1,-2.9c-3.02,-0 -4.74,2.08 -4.74,5.18c0,3.06 1.74,5.16 4.88,5.16Zm-2.7,-5.16c0,-2.4 1.24,-3.22 3.32,-3.22c2.22,-0 3.46,1.04 3.46,3.16l0,0.16c0,2.08 -1.3,3.08 -3.42,3.08c-2.14,-0 -3.36,-0.8 -3.36,-3.18Z" style="fill:#321914;fill-rule:nonzero;"/><path d="M525.154,273.7c2.26,0 3.84,-1 4.36,-2.68l0.14,0l-0,2.48l1.98,0l-0,-6.04c-0,-2.38 -1.42,-4.1 -4.58,-4.1c-3.16,0 -5.04,1.7 -5.04,3.96l-0,0.08l2.14,0l-0,-0.08c-0,-1.46 0.9,-2.06 2.74,-2.06c1.9,0 2.62,0.58 2.62,2.22l-0,0.58l-4.52,0.48c-1.96,0.22 -3.2,1.02 -3.2,2.56c-0,1.64 1.3,2.6 3.36,2.6Zm-1.2,-2.74c0,-0.78 0.54,-1.04 1.66,-1.18l3.9,-0.44c0,1.96 -1.52,2.8 -3.78,2.8c-1.24,0 -1.78,-0.38 -1.78,-1.18Z" style="fill:#321914;fill-rule:nonzero;"/><path d="M535.767,273.5l-0,-5.58c-0,-1.78 0.7,-2.72 2.4,-2.72c1.48,0 2.08,0.66 2.08,2.08l-0,0.88l2.14,0l-0,-1.3c-0,-1.88 -0.98,-3.5 -3.24,-3.5c-2.04,0 -3.12,1.28 -3.42,2.88l-0.14,0l-0,-2.68l-1.98,0l-0,9.94l2.16,0Z" style="fill:#321914;fill-rule:nonzero;"/><path d="M545.96,262.4l-0,-2.3l-2.16,0l-0,2.3l2.16,0Zm-0,11.1l-0,-9.94l-2.16,0l-0,9.94l2.16,0Z" style="fill:#321914;fill-rule:nonzero;"/><path d="M550.932,273.7c2.26,0 3.84,-1 4.36,-2.68l0.14,0l0,2.48l1.98,0l0,-6.04c0,-2.38 -1.42,-4.1 -4.58,-4.1c-3.16,0 -5.04,1.7 -5.04,3.96l0,0.08l2.14,0l0,-0.08c0,-1.46 0.9,-2.06 2.74,-2.06c1.9,0 2.62,0.58 2.62,2.22l0,0.58l-4.52,0.48c-1.96,0.22 -3.2,1.02 -3.2,2.56c0,1.64 1.3,2.6 3.36,2.6Zm-1.2,-2.74c0,-0.78 0.54,-1.04 1.66,-1.18l3.9,-0.44c0,1.96 -1.52,2.8 -3.78,2.8c-1.24,0 -1.78,-0.38 -1.78,-1.18Z" style="fill:#321914;fill-rule:nonzero;"/></g><g><path d="M94.25,237c32.85,0 49.35,-16.5 49.35,-43.5l-0,-58.5l-22.5,0l-0,56.85c-0,17.1 -6.3,23.25 -26.85,23.25c-20.4,0 -26.85,-6.15 -26.85,-23.25l-0,-56.85l-22.5,0l-0,58.5c-0,27 16.65,43.5 49.35,43.5Z" style="fill:#004097;fill-rule:nonzero;"/><path d="M188,227.85c16.8,0 25.65,-7.65 28.05,-18.75l1.2,0l-0,16.95c-0,14.7 -4.35,17.7 -18.75,17.7c-15.3,0 -18.6,-2.55 -18.6,-10.95l-22.5,0c-0,18.9 15.3,29.7 39.6,29.7c26.85,0 42.75,-11.7 42.75,-37.95l-0,-64.2l-21,-0l-0,18.15l-1.2,-0c-2.4,-13.05 -13.35,-19.65 -28.65,-19.65c-22.5,-0 -36.15,13.5 -36.15,34.5c-0,21.15 12.9,34.5 35.25,34.5Zm-12.6,-34.5c-0,-11.1 6.3,-15 20.7,-15c13.95,-0 21.15,3.9 21.15,14.1l-0,1.65c-0,10.35 -7.05,14.4 -21.45,14.4c-14.1,-0 -20.4,-4.05 -20.4,-15.15Z" style="fill:#004097;fill-rule:nonzero;"/><path d="M274.85,237c16.65,0 27.15,-7.05 30.6,-18.75l1.2,0l-0,17.25l21,0l-0,-44.1c-0,-19.65 -11.85,-32.55 -36.9,-32.55c-24.75,-0 -40.35,12.9 -40.35,31.5l-0,0.45l22.65,0l-0,-0.6c-0,-8.55 4.65,-11.55 16.05,-11.55c12,0 16.35,2.7 16.35,12.45l-0,2.85l-32.25,3.3c-16.05,1.65 -24.3,8.55 -24.3,19.65c-0,12.6 9.75,20.1 25.95,20.1Zm-3.3,-21.6c-0,-3.6 2.4,-5.1 7.8,-5.55l26.1,-3c-0.6,10.65 -8.85,14.25 -24.15,14.25c-6.6,0 -9.75,-1.65 -9.75,-5.7Z" style="fill:#004097;fill-rule:nonzero;"/><path d="M361.55,235.5l-0,-43.5c-0,-9.45 3.6,-14.1 13.65,-14.1c9.15,0 12.45,3.6 12.45,11.85l0,7.8l22.5,0l0,-12.45c0,-14.7 -6.9,-26.25 -23.7,-26.25c-15.15,-0 -23.1,9.3 -25.2,21.45l-1.35,0l0,-19.95l-20.85,-0l0,75.15l22.5,-0Z" style="fill:#004097;fill-rule:nonzero;"/><path d="M471.2,235.5l-0,-20.25l-13.5,0c-7.95,0 -10.8,-1.95 -10.8,-9.45l-0,-26.85l24.3,-0l-0,-18.6l-24.3,-0l-0,-14.55l-22.5,0l-0,14.55l-11.85,-0l0,18.6l11.85,-0l-0,29.4c-0,18.9 10.65,27.15 28.2,27.15l18.6,-0Z" style="fill:#004097;fill-rule:nonzero;"/><path d="M519.5,237c23.85,0 39.75,-11.4 39.75,-27.75l-0,-1.65l-22.5,0l-0,1.5c-0,6.45 -4.65,9.9 -18,9.9c-14.55,0 -19.95,-4.95 -20.55,-16.5l61.2,0c0.3,-2.55 0.6,-4.5 0.6,-7.2c-0,-23.55 -16.35,-36.45 -40.95,-36.45c-24.75,-0 -41.7,15.15 -41.7,39.15c-0,26.7 17.1,39 42.15,39Zm-0.9,-60.6c13.2,-0 19.2,4.35 19.8,14.25l-39.9,-0c1.05,-9.75 6.75,-14.25 20.1,-14.25Z" style="fill:#004097;fill-rule:nonzero;"/></g><g><path d="M67.2,100.5l-0,-33.15l45.3,-67.35l-27.9,0l-19.2,29.4l-8.4,13.5l-1.65,-0l-8.4,-13.5l-19.2,-29.4l-27.75,-0l44.55,67.2l-0,33.3l22.65,0Z" style="fill:#004097;fill-rule:nonzero;"/><path d="M147.9,102c19.8,0 28.95,-11.85 30.9,-24.45l1.2,0l0,22.95l21,0l-0,-75.15l-22.5,0l0,38.1c0,12.75 -5.25,18.45 -19.95,18.45c-14.25,0 -19.35,-5.1 -19.35,-17.25l-0,-39.3l-22.5,0l-0,46.8c-0,16.8 10.05,29.85 31.2,29.85Z" style="fill:#004097;fill-rule:nonzero;"/><path d="M235.05,100.5l-0,-43.5c-0,-9.45 3.6,-14.1 13.65,-14.1c9.15,0 12.45,3.6 12.45,11.85l-0,7.8l22.5,0l-0,-12.45c-0,-14.7 -6.9,-26.25 -23.7,-26.25c-15.15,0 -23.1,9.3 -25.2,21.45l-1.35,0l-0,-19.95l-20.85,-0l-0,75.15l22.5,0Z" style="fill:#004097;fill-rule:nonzero;"/><path d="M314.25,100.5l0,-43.5c0,-9.45 3.6,-14.1 13.65,-14.1c9.15,0 12.45,3.6 12.45,11.85l0,7.8l22.5,0l0,-12.45c0,-14.7 -6.9,-26.25 -23.7,-26.25c-15.15,0 -23.1,9.3 -25.2,21.45l-1.35,0l0,-19.95l-20.85,-0l0,75.15l22.5,0Z" style="fill:#004097;fill-rule:nonzero;"/><path d="M410.85,102c23.85,0 39.75,-11.4 39.75,-27.75l-0,-1.65l-22.5,0l-0,1.5c-0,6.45 -4.65,9.9 -18,9.9c-14.55,0 -19.95,-4.95 -20.55,-16.5l61.2,0c0.3,-2.55 0.6,-4.5 0.6,-7.2c-0,-23.55 -16.35,-36.45 -40.95,-36.45c-24.75,0 -41.7,15.15 -41.7,39.15c-0,26.7 17.1,39 42.15,39Zm-0.9,-60.6c13.2,0 19.2,4.35 19.8,14.25l-39.9,0c1.05,-9.75 6.75,-14.25 20.1,-14.25Z" style="fill:#004097;fill-rule:nonzero;"/></g></svg>