<?xml version="1.0" encoding="UTF-8" standalone="no"?><!DOCTYPE svg PUBLIC "-//W3C//DTD SVG 1.1//EN" "http://www.w3.org/Graphics/SVG/1.1/DTD/svg11.dtd"><svg width="100%" height="100%" viewBox="0 0 560 301" version="1.1" xmlns="http://www.w3.org/2000/svg" xmlns:xlink="http://www.w3.org/1999/xlink" xml:space="preserve" xmlns:serif="http://www.serif.com/" style="fill-rule:evenodd;clip-rule:evenodd;stroke-linejoin:round;stroke-miterlimit:2;"><g><path d="M173.472,295.5l0,-2.619l-11.556,-0l0,-5.184l11.151,-0l0,-2.592l-11.151,-0l0,-5.076l11.556,-0l0,-2.619l-14.472,-0l0,18.09l14.472,-0Z" style="fill:#321914;fill-rule:nonzero;"/><path d="M182.085,295.77c3.78,-0 6.264,-1.485 6.264,-3.996c0,-2.214 -1.458,-3.294 -4.644,-3.699l-3.105,-0.432c-2.025,-0.27 -2.565,-0.648 -2.565,-1.701c0,-1.269 0.864,-1.809 3.321,-1.809c2.97,-0 3.78,0.837 3.78,2.43l0,0.162l2.889,-0l0,-0.081c0,-3.186 -2.484,-4.833 -6.588,-4.833c-4.131,-0 -6.264,1.674 -6.264,4.023c0,2.241 1.539,3.321 4.077,3.645l3.672,0.486c1.917,0.27 2.565,0.621 2.565,1.728c0,1.188 -0.783,1.728 -3.402,1.728c-2.808,-0 -3.861,-0.567 -3.861,-2.322l0,-0.216l-2.916,-0l0,0.081c0,3.105 2.457,4.806 6.777,4.806Z" style="fill:#321914;fill-rule:nonzero;"/><path d="M197.232,295.77c4.023,-0 6.966,-2.268 6.966,-5.616l0,-0.297l-2.889,-0l0,0.189c0,2.079 -1.512,3.105 -4.131,3.105c-3.024,-0 -4.374,-1.458 -4.374,-4.347c0,-2.943 1.35,-4.374 4.374,-4.374c2.619,-0 4.131,1.026 4.131,3.105l0,0.162l2.889,-0l0,-0.27c0,-3.348 -2.943,-5.616 -6.966,-5.616c-4.428,-0 -7.317,2.808 -7.317,6.993c0,4.131 2.889,6.966 7.317,6.966Z" style="fill:#321914;fill-rule:nonzero;"/><path d="M209.274,295.5l0,-7.533c0,-2.403 0.945,-3.672 3.24,-3.672c1.998,-0 2.808,0.891 2.808,2.808l0,1.188l2.889,-0l0,-1.755c0,-2.538 -1.323,-4.725 -4.374,-4.725c-2.754,-0 -4.212,1.728 -4.617,3.888l-0.189,-0l0,-3.618l-2.673,-0l0,13.419l2.916,-0Z" style="fill:#321914;fill-rule:nonzero;"/><path d="M222.963,280.515l0,-3.105l-2.916,-0l0,3.105l2.916,-0Zm0,14.985l0,-13.419l-2.916,-0l0,13.419l2.916,-0Z" style="fill:#321914;fill-rule:nonzero;"/><path d="M234.465,295.5l0,-2.619l-2.43,-0c-1.674,-0 -2.43,-0.432 -2.43,-2.079l0,-6.291l4.86,-0l0,-2.43l-4.86,-0l0,-2.943l-2.889,-0l0,2.943l-2.268,-0l0,2.43l2.268,-0l0,6.453c0,3.267 1.782,4.536 4.671,4.536l3.078,-0Z" style="fill:#321914;fill-rule:nonzero;"/><path d="M243.159,295.77c4.482,-0 7.479,-2.835 7.479,-6.966c0,-4.185 -2.997,-6.993 -7.479,-6.993c-4.455,-0 -7.452,2.808 -7.452,6.993c0,4.131 2.997,6.966 7.452,6.966Zm0,-2.592c-3.24,-0 -4.59,-1.539 -4.59,-4.374c0,-2.862 1.35,-4.428 4.59,-4.428c3.267,-0 4.617,1.566 4.617,4.428c0,2.835 -1.35,4.374 -4.617,4.374Z" style="fill:#321914;fill-rule:nonzero;"/><path d="M255.66,295.5l0,-7.533c0,-2.403 0.945,-3.672 3.24,-3.672c1.998,-0 2.808,0.891 2.808,2.808l0,1.188l2.889,-0l0,-1.755c0,-2.538 -1.323,-4.725 -4.374,-4.725c-2.754,-0 -4.212,1.728 -4.617,3.888l-0.189,-0l0,-3.618l-2.673,-0l0,13.419l2.916,-0Z" style="fill:#321914;fill-rule:nonzero;"/><path d="M270.375,295.77c3.051,-0 5.184,-1.35 5.886,-3.618l0.189,-0l0,3.348l2.673,-0l0,-8.154c0,-3.213 -1.917,-5.535 -6.183,-5.535c-4.266,-0 -6.804,2.295 -6.804,5.346l0,0.108l2.889,-0l0,-0.108c0,-1.971 1.215,-2.781 3.699,-2.781c2.565,-0 3.537,0.783 3.537,2.997l0,0.783l-6.102,0.648c-2.646,0.297 -4.32,1.377 -4.32,3.456c-0,2.214 1.755,3.51 4.536,3.51Zm-1.62,-3.699c0,-1.053 0.729,-1.404 2.241,-1.593l5.265,-0.594c0,2.646 -2.052,3.78 -5.103,3.78c-1.674,-0 -2.403,-0.513 -2.403,-1.593Z" style="fill:#321914;fill-rule:nonzero;"/><path d="M282.201,298.524c1.674,-0 2.646,-0.81 2.646,-2.484l0,-4.725l-3.672,-0l0,4.185l1.62,-0l0,0.567c0,0.567 -0.216,0.675 -0.675,0.675l-0.891,-0l0,1.782l0.972,-0Z" style="fill:#321914;fill-rule:nonzero;"/><path d="M297.456,294.285c3.051,-0 4.86,-1.458 5.346,-3.483l0.189,-0l0,3.294c0,2.997 -1.107,3.834 -4.158,3.834c-2.862,-0 -3.996,-0.729 -3.996,-2.673l-2.889,-0c0,3.24 2.754,5.103 6.723,5.103c4.401,-0 7.209,-1.917 7.209,-6.426l0,-11.853l-2.673,-0l0,3.348l-0.162,-0c-0.486,-2.349 -2.592,-3.618 -5.4,-3.618c-4.077,-0 -6.561,2.511 -6.561,6.237c-0,3.726 2.376,6.237 6.372,6.237Zm-3.429,-6.237c-0,-2.754 1.647,-3.699 4.455,-3.699c2.835,-0 4.509,1.161 4.509,3.429l-0,0.378c-0,2.376 -1.62,3.618 -4.59,3.618c-2.754,-0 -4.374,-0.972 -4.374,-3.726Z" style="fill:#321914;fill-rule:nonzero;"/><path d="M314.169,295.77c3.456,-0 5.238,-2.16 5.67,-4.428l0.162,-0l0,4.158l2.673,-0l0,-13.419l-2.889,-0l0,6.642c0,2.916 -1.377,4.428 -4.347,4.428c-2.835,-0 -3.996,-1.269 -3.996,-3.78l0,-7.29l-2.889,-0l0,8.073c0,3.105 1.836,5.616 5.616,5.616Z" style="fill:#321914;fill-rule:nonzero;"/><path d="M328.236,280.515l0,-3.105l-2.916,-0l0,3.105l2.916,-0Zm0,14.985l0,-13.419l-2.916,-0l0,13.419l2.916,-0Z" style="fill:#321914;fill-rule:nonzero;"/><path d="M337.794,295.77c4.482,-0 7.479,-2.835 7.479,-6.966c0,-4.185 -2.997,-6.993 -7.479,-6.993c-4.455,-0 -7.452,2.808 -7.452,6.993c0,4.131 2.997,6.966 7.452,6.966Zm0,-2.592c-3.24,-0 -4.59,-1.539 -4.59,-4.374c0,-2.862 1.35,-4.428 4.59,-4.428c3.267,-0 4.617,1.566 4.617,4.428c0,2.835 -1.35,4.374 -4.617,4.374Z" style="fill:#321914;fill-rule:nonzero;"/><path d="M350.295,295.5l0,-6.642c0,-2.916 1.323,-4.428 4.266,-4.428c2.781,-0 3.915,1.269 3.915,3.78l0,7.29l2.916,-0l0,-8.073c0,-3.105 -1.836,-5.616 -5.562,-5.616c-3.402,-0 -5.184,2.16 -5.589,4.428l-0.189,-0l0,-4.158l-2.673,-0l0,13.419l2.916,-0Z" style="fill:#321914;fill-rule:nonzero;"/><path d="M366.9,280.515l0,-3.105l-2.916,-0l0,3.105l2.916,-0Zm0,14.985l0,-13.419l-2.916,-0l0,13.419l2.916,-0Z" style="fill:#321914;fill-rule:nonzero;"/><path d="M375.945,295.77c3.78,-0 6.264,-1.485 6.264,-3.996c0,-2.214 -1.458,-3.294 -4.644,-3.699l-3.105,-0.432c-2.025,-0.27 -2.565,-0.648 -2.565,-1.701c0,-1.269 0.864,-1.809 3.321,-1.809c2.97,-0 3.78,0.837 3.78,2.43l0,0.162l2.889,-0l0,-0.081c0,-3.186 -2.484,-4.833 -6.588,-4.833c-4.131,-0 -6.264,1.674 -6.264,4.023c0,2.241 1.539,3.321 4.077,3.645l3.672,0.486c1.917,0.27 2.565,0.621 2.565,1.728c0,1.188 -0.783,1.728 -3.402,1.728c-2.808,-0 -3.861,-0.567 -3.861,-2.322l0,-0.216l-2.916,-0l0,0.081c0,3.105 2.457,4.806 6.777,4.806Z" style="fill:#321914;fill-rule:nonzero;"/><path d="M393.117,295.5l0,-2.619l-2.43,-0c-1.674,-0 -2.43,-0.432 -2.43,-2.079l0,-6.291l4.86,-0l0,-2.43l-4.86,-0l0,-2.943l-2.889,-0l0,2.943l-2.268,-0l0,2.43l2.268,-0l0,6.453c0,3.267 1.782,4.536 4.671,4.536l3.078,-0Z" style="fill:#321914;fill-rule:nonzero;"/><path d="M398.895,295.77c3.051,-0 5.184,-1.35 5.886,-3.618l0.189,-0l0,3.348l2.673,-0l0,-8.154c0,-3.213 -1.917,-5.535 -6.183,-5.535c-4.266,-0 -6.804,2.295 -6.804,5.346l0,0.108l2.889,-0l0,-0.108c0,-1.971 1.215,-2.781 3.699,-2.781c2.565,-0 3.537,0.783 3.537,2.997l0,0.783l-6.102,0.648c-2.646,0.297 -4.32,1.377 -4.32,3.456c-0,2.214 1.755,3.51 4.536,3.51Zm-1.62,-3.699c0,-1.053 0.729,-1.404 2.241,-1.593l5.265,-0.594c0,2.646 -2.052,3.78 -5.103,3.78c-1.674,-0 -2.403,-0.513 -2.403,-1.593Z" style="fill:#321914;fill-rule:nonzero;"/><path d="M417.012,300.09c2.754,-0 4.266,-0.729 5.373,-3.132l6.993,-14.877l-3.213,-0l-3.159,7.101l-1.269,3.24l-0.216,-0l-1.323,-3.213l-3.429,-7.128l-3.267,-0l6.615,13.419l-0.324,0.702c-0.405,0.918 -0.891,1.242 -2.079,1.242l-2.619,-0l0,2.646l1.917,-0Z" style="fill:#321914;fill-rule:nonzero;"/><path d="M441.339,295.77c3.024,-0 4.995,-1.458 5.562,-4.131l0.189,-0l0,3.861l2.673,-0l0,-18.09l-2.916,-0l0,8.316l-0.162,-0c-0.54,-2.268 -2.349,-3.915 -5.535,-3.915c-4.077,-0 -6.399,2.808 -6.399,6.993c0,4.131 2.349,6.966 6.588,6.966Zm-3.645,-6.966c0,-3.24 1.674,-4.347 4.482,-4.347c2.997,-0 4.671,1.404 4.671,4.266l0,0.216c0,2.808 -1.755,4.158 -4.617,4.158c-2.889,-0 -4.536,-1.08 -4.536,-4.293Z" style="fill:#321914;fill-rule:nonzero;"/><path d="M455.379,280.515l0,-3.105l-2.916,-0l0,3.105l2.916,-0Zm0,14.985l0,-13.419l-2.916,-0l0,13.419l2.916,-0Z" style="fill:#321914;fill-rule:nonzero;"/><path d="M460.995,295.5l0,-7.533c0,-2.403 0.945,-3.672 3.24,-3.672c1.998,-0 2.808,0.891 2.808,2.808l0,1.188l2.889,-0l0,-1.755c0,-2.538 -1.323,-4.725 -4.374,-4.725c-2.754,-0 -4.212,1.728 -4.617,3.888l-0.189,-0l0,-3.618l-2.673,-0l0,13.419l2.916,-0Z" style="fill:#321914;fill-rule:nonzero;"/><path d="M478.518,295.77c3.996,-0 6.804,-1.971 6.804,-4.833l0,-0.243l-2.916,-0l0,0.216c0,1.593 -1.161,2.511 -3.969,2.511c-3.105,-0 -4.374,-1.377 -4.482,-3.969l11.394,-0c0.081,-0.405 0.108,-0.783 0.108,-1.269c0,-4.077 -2.835,-6.372 -6.993,-6.372c-4.374,-0 -7.236,2.808 -7.236,6.993c0,4.482 2.889,6.966 7.29,6.966Zm-0.108,-11.664c2.862,-0 4.293,1.188 4.293,3.672l0,0.054l-8.721,-0c0.162,-2.403 1.458,-3.726 4.428,-3.726Z" style="fill:#321914;fill-rule:nonzero;"/><path d="M494.421,295.77c4.023,-0 6.966,-2.268 6.966,-5.616l0,-0.297l-2.889,-0l0,0.189c0,2.079 -1.512,3.105 -4.131,3.105c-3.024,-0 -4.374,-1.458 -4.374,-4.347c0,-2.943 1.35,-4.374 4.374,-4.374c2.619,-0 4.131,1.026 4.131,3.105l0,0.162l2.889,-0l0,-0.27c0,-3.348 -2.943,-5.616 -6.966,-5.616c-4.428,-0 -7.317,2.808 -7.317,6.993c0,4.131 2.889,6.966 7.317,6.966Z" style="fill:#321914;fill-rule:nonzero;"/><path d="M512.349,295.5l0,-2.619l-2.43,-0c-1.674,-0 -2.43,-0.432 -2.43,-2.079l0,-6.291l4.86,-0l0,-2.43l-4.86,-0l0,-2.943l-2.889,-0l0,2.943l-2.268,-0l0,2.43l2.268,-0l0,6.453c0,3.267 1.782,4.536 4.671,4.536l3.078,-0Z" style="fill:#321914;fill-rule:nonzero;"/><path d="M521.043,295.77c4.482,-0 7.479,-2.835 7.479,-6.966c0,-4.185 -2.997,-6.993 -7.479,-6.993c-4.455,-0 -7.452,2.808 -7.452,6.993c0,4.131 2.997,6.966 7.452,6.966Zm0,-2.592c-3.24,-0 -4.59,-1.539 -4.59,-4.374c0,-2.862 1.35,-4.428 4.59,-4.428c3.267,-0 4.617,1.566 4.617,4.428c0,2.835 -1.35,4.374 -4.617,4.374Z" style="fill:#321914;fill-rule:nonzero;"/><path d="M533.544,295.5l0,-7.533c0,-2.403 0.945,-3.672 3.24,-3.672c1.998,-0 2.808,0.891 2.808,2.808l0,1.188l2.889,-0l0,-1.755c0,-2.538 -1.323,-4.725 -4.374,-4.725c-2.754,-0 -4.212,1.728 -4.617,3.888l-0.189,-0l0,-3.618l-2.673,-0l0,13.419l2.916,-0Z" style="fill:#321914;fill-rule:nonzero;"/><path d="M548.259,295.77c3.051,-0 5.184,-1.35 5.886,-3.618l0.189,-0l0,3.348l2.673,-0l0,-8.154c0,-3.213 -1.917,-5.535 -6.183,-5.535c-4.266,-0 -6.804,2.295 -6.804,5.346l0,0.108l2.889,-0l0,-0.108c0,-1.971 1.215,-2.781 3.699,-2.781c2.565,-0 3.537,0.783 3.537,2.997l0,0.783l-6.102,0.648c-2.646,0.297 -4.32,1.377 -4.32,3.456c0,2.214 1.755,3.51 4.536,3.51Zm-1.62,-3.699c0,-1.053 0.729,-1.404 2.241,-1.593l5.265,-0.594c0,2.646 -2.052,3.78 -5.103,3.78c-1.674,-0 -2.403,-0.513 -2.403,-1.593Z" style="fill:#321914;fill-rule:nonzero;"/></g><g><path d="M94.25,237c32.85,-0 49.35,-16.5 49.35,-43.5l-0,-58.5l-22.5,-0l-0,56.85c-0,17.1 -6.3,23.25 -26.85,23.25c-20.4,-0 -26.85,-6.15 -26.85,-23.25l-0,-56.85l-22.5,-0l-0,58.5c-0,27 16.65,43.5 49.35,43.5Z" style="fill:#004097;fill-rule:nonzero;"/><path d="M188,227.85c16.8,-0 25.65,-7.65 28.05,-18.75l1.2,-0l-0,16.95c-0,14.7 -4.35,17.7 -18.75,17.7c-15.3,-0 -18.6,-2.55 -18.6,-10.95l-22.5,-0c-0,18.9 15.3,29.7 39.6,29.7c26.85,-0 42.75,-11.7 42.75,-37.95l-0,-64.2l-21,-0l-0,18.15l-1.2,-0c-2.4,-13.05 -13.35,-19.65 -28.65,-19.65c-22.5,-0 -36.15,13.5 -36.15,34.5c-0,21.15 12.9,34.5 35.25,34.5Zm-12.6,-34.5c-0,-11.1 6.3,-15 20.7,-15c13.95,-0 21.15,3.9 21.15,14.1l-0,1.65c-0,10.35 -7.05,14.4 -21.45,14.4c-14.1,-0 -20.4,-4.05 -20.4,-15.15Z" style="fill:#004097;fill-rule:nonzero;"/><path d="M274.85,237c16.65,-0 27.15,-7.05 30.6,-18.75l1.2,-0l-0,17.25l21,-0l-0,-44.1c-0,-19.65 -11.85,-32.55 -36.9,-32.55c-24.75,-0 -40.35,12.9 -40.35,31.5l-0,0.45l22.65,-0l-0,-0.6c-0,-8.55 4.65,-11.55 16.05,-11.55c12,-0 16.35,2.7 16.35,12.45l-0,2.85l-32.25,3.3c-16.05,1.65 -24.3,8.55 -24.3,19.65c-0,12.6 9.75,20.1 25.95,20.1Zm-3.3,-21.6c-0,-3.6 2.4,-5.1 7.8,-5.55l26.1,-3c-0.6,10.65 -8.85,14.25 -24.15,14.25c-6.6,-0 -9.75,-1.65 -9.75,-5.7Z" style="fill:#004097;fill-rule:nonzero;"/><path d="M361.55,235.5l-0,-43.5c-0,-9.45 3.6,-14.1 13.65,-14.1c9.15,-0 12.45,3.6 12.45,11.85l0,7.8l22.5,-0l0,-12.45c0,-14.7 -6.9,-26.25 -23.7,-26.25c-15.15,-0 -23.1,9.3 -25.2,21.45l-1.35,-0l0,-19.95l-20.85,-0l0,75.15l22.5,-0Z" style="fill:#004097;fill-rule:nonzero;"/><path d="M471.2,235.5l-0,-20.25l-13.5,-0c-7.95,-0 -10.8,-1.95 -10.8,-9.45l-0,-26.85l24.3,-0l-0,-18.6l-24.3,-0l-0,-14.55l-22.5,-0l-0,14.55l-11.85,-0l0,18.6l11.85,-0l-0,29.4c-0,18.9 10.65,27.15 28.2,27.15l18.6,-0Z" style="fill:#004097;fill-rule:nonzero;"/><path d="M519.5,237c23.85,-0 39.75,-11.4 39.75,-27.75l-0,-1.65l-22.5,-0l-0,1.5c-0,6.45 -4.65,9.9 -18,9.9c-14.55,-0 -19.95,-4.95 -20.55,-16.5l61.2,-0c0.3,-2.55 0.6,-4.5 0.6,-7.2c-0,-23.55 -16.35,-36.45 -40.95,-36.45c-24.75,-0 -41.7,15.15 -41.7,39.15c-0,26.7 17.1,39 42.15,39Zm-0.9,-60.6c13.2,-0 19.2,4.35 19.8,14.25l-39.9,-0c1.05,-9.75 6.75,-14.25 20.1,-14.25Z" style="fill:#004097;fill-rule:nonzero;"/></g><g><path d="M67.2,100.5l-0,-33.15l45.3,-67.35l-27.9,0l-19.2,29.4l-8.4,13.5l-1.65,-0l-8.4,-13.5l-19.2,-29.4l-27.75,-0l44.55,67.2l-0,33.3l22.65,0Z" style="fill:#004097;fill-rule:nonzero;"/><path d="M147.9,102c19.8,0 28.95,-11.85 30.9,-24.45l1.2,0l0,22.95l21,0l-0,-75.15l-22.5,0l0,38.1c0,12.75 -5.25,18.45 -19.95,18.45c-14.25,0 -19.35,-5.1 -19.35,-17.25l-0,-39.3l-22.5,0l-0,46.8c-0,16.8 10.05,29.85 31.2,29.85Z" style="fill:#004097;fill-rule:nonzero;"/><path d="M235.05,100.5l-0,-43.5c-0,-9.45 3.6,-14.1 13.65,-14.1c9.15,0 12.45,3.6 12.45,11.85l-0,7.8l22.5,0l-0,-12.45c-0,-14.7 -6.9,-26.25 -23.7,-26.25c-15.15,0 -23.1,9.3 -25.2,21.45l-1.35,0l-0,-19.95l-20.85,-0l-0,75.15l22.5,0Z" style="fill:#004097;fill-rule:nonzero;"/><path d="M314.25,100.5l0,-43.5c0,-9.45 3.6,-14.1 13.65,-14.1c9.15,0 12.45,3.6 12.45,11.85l0,7.8l22.5,0l0,-12.45c0,-14.7 -6.9,-26.25 -23.7,-26.25c-15.15,0 -23.1,9.3 -25.2,21.45l-1.35,0l0,-19.95l-20.85,-0l0,75.15l22.5,0Z" style="fill:#004097;fill-rule:nonzero;"/><path d="M410.85,102c23.85,0 39.75,-11.4 39.75,-27.75l-0,-1.65l-22.5,0l-0,1.5c-0,6.45 -4.65,9.9 -18,9.9c-14.55,0 -19.95,-4.95 -20.55,-16.5l61.2,0c0.3,-2.55 0.6,-4.5 0.6,-7.2c-0,-23.55 -16.35,-36.45 -40.95,-36.45c-24.75,0 -41.7,15.15 -41.7,39.15c-0,26.7 17.1,39 42.15,39Zm-0.9,-60.6c13.2,0 19.2,4.35 19.8,14.25l-39.9,0c1.05,-9.75 6.75,-14.25 20.1,-14.25Z" style="fill:#004097;fill-rule:nonzero;"/></g></svg>