<?xml version="1.0" encoding="UTF-8" standalone="no"?><!DOCTYPE svg PUBLIC "-//W3C//DTD SVG 1.1//EN" "http://www.w3.org/Graphics/SVG/1.1/DTD/svg11.dtd"><svg width="100%" height="100%" viewBox="0 0 160 33" version="1.1" xmlns="http://www.w3.org/2000/svg" xmlns:xlink="http://www.w3.org/1999/xlink" xml:space="preserve" xmlns:serif="http://www.serif.com/" style="fill-rule:evenodd;clip-rule:evenodd;stroke-linejoin:round;stroke-miterlimit:2;"><g><rect x="7.084" y="24.38" width="0.71" height="6.7" style="fill:#321914;fill-rule:nonzero;"/><path d="M11.224,31.18c1.09,0 1.89,-0.57 2.13,-1.56l0.04,0l-0,1.46l0.65,0l-0,-6.7l-0.71,0l-0,3.14l-0.05,0c-0.22,-0.85 -0.95,-1.48 -2.12,-1.48c-1.52,0 -2.4,1.07 -2.4,2.57c-0,1.5 0.88,2.57 2.46,2.57Zm-1.74,-2.57c-0,-1.43 0.77,-1.91 1.9,-1.91c1.22,0 1.95,0.68 1.95,1.9l-0,0.09c-0,1.17 -0.77,1.84 -1.93,1.84c-1.16,0 -1.92,-0.49 -1.92,-1.92Z" style="fill:#321914;fill-rule:nonzero;"/><path d="M16.714,31.18c1.15,0 2.02,-0.52 2.31,-1.43l0.05,0l-0,1.33l0.64,0l-0,-3.09c-0,-1.09 -0.64,-1.95 -2.14,-1.95c-1.52,0 -2.38,0.85 -2.38,1.89l-0,0.04l0.71,0l-0,-0.04c-0,-0.87 0.56,-1.25 1.62,-1.25c1.08,0 1.5,0.38 1.5,1.34l-0,0.38l-2.35,0.26c-0.92,0.1 -1.59,0.45 -1.59,1.26c-0,0.8 0.66,1.26 1.63,1.26Zm-0.92,-1.31c-0,-0.51 0.36,-0.69 1.1,-0.76l2.13,-0.24l-0,0.04c-0,1.19 -0.95,1.72 -2.15,1.72c-0.75,0 -1.08,-0.26 -1.08,-0.76Z" style="fill:#321914;fill-rule:nonzero;"/><path d="M25.664,31.08l-0,-0.63l-3.2,0l-0.89,0.02l-0,-0.05l0.89,-0.77l3.05,-2.88l-0,-0.63l-4.71,0l-0,0.64l2.71,0l1.04,-0.02l-0,0.05l-1.04,0.92l-2.86,2.73l-0,0.62l5.01,0Z" style="fill:#321914;fill-rule:nonzero;"/><rect x="26.634" y="24.38" width="0.71" height="6.7" style="fill:#321914;fill-rule:nonzero;"/><path d="M30.994,31.18c1.38,0 2.4,-0.71 2.4,-1.74l-0,-0.07l-0.71,0l-0,0.07c-0,0.72 -0.54,1.15 -1.7,1.15c-1.31,0 -1.88,-0.67 -1.92,-1.78l4.35,0c0.03,-0.13 0.05,-0.28 0.05,-0.46c-0,-1.47 -1.03,-2.31 -2.48,-2.31c-1.59,0 -2.59,1.07 -2.59,2.57c-0,1.57 1.01,2.57 2.6,2.57Zm-0.02,-4.55c1.16,0 1.82,0.55 1.82,1.59l-0,0.15l-3.73,0c0.05,-1.08 0.63,-1.74 1.91,-1.74Z" style="fill:#321914;fill-rule:nonzero;"/><path d="M35.884,31.18c1.15,0 2.02,-0.52 2.31,-1.43l0.05,0l-0,1.33l0.64,0l-0,-3.09c-0,-1.09 -0.64,-1.95 -2.14,-1.95c-1.52,0 -2.38,0.85 -2.38,1.89l-0,0.04l0.71,0l-0,-0.04c-0,-0.87 0.56,-1.25 1.62,-1.25c1.08,0 1.5,0.38 1.5,1.34l-0,0.38l-2.35,0.26c-0.92,0.1 -1.59,0.45 -1.59,1.26c-0,0.8 0.66,1.26 1.63,1.26Zm-0.92,-1.31c-0,-0.51 0.36,-0.69 1.1,-0.76l2.13,-0.24l-0,0.04c-0,1.19 -0.95,1.72 -2.15,1.72c-0.75,0 -1.08,-0.26 -1.08,-0.76Z" style="fill:#321914;fill-rule:nonzero;"/><path d="M40.064,31.96c0.42,0 0.68,-0.21 0.68,-0.65l-0,-1.62l-0.88,0l-0,1.39l0.39,0l-0,0.24c-0,0.18 -0.07,0.21 -0.2,0.21l-0.2,0l-0,0.43l0.21,0Z" style="fill:#321914;fill-rule:nonzero;"/><path d="M45.824,30.68c1.14,0 1.87,-0.56 2.07,-1.32l0.05,0l-0,1.29c-0,1.23 -0.5,1.62 -1.78,1.62c-1.1,0 -1.68,-0.34 -1.68,-1.21l-0.71,0c-0,1.15 1.02,1.82 2.36,1.82c1.49,0 2.52,-0.64 2.52,-2.27l-0,-4.47l-0.64,0l-0,1.27l-0.05,0c-0.2,-0.88 -1.02,-1.37 -2.06,-1.37c-1.52,0 -2.45,0.97 -2.45,2.32c-0,1.35 0.9,2.32 2.37,2.32Zm-1.66,-2.32c-0,-1.26 0.79,-1.69 1.9,-1.69c1.14,0 1.88,0.58 1.88,1.55l-0,0.17c-0,1.05 -0.71,1.66 -1.93,1.66c-1.07,0 -1.85,-0.43 -1.85,-1.69Z" style="fill:#321914;fill-rule:nonzero;"/><path d="M50.674,25.51l-0,-1.13l-0.71,0l-0,1.13l0.71,0Zm-0,5.57l-0,-4.94l-0.71,0l-0,4.94l0.71,0Z" style="fill:#321914;fill-rule:nonzero;"/><path d="M54.104,31.18c1.09,0 1.89,-0.57 2.13,-1.56l0.04,0l-0,1.46l0.65,0l-0,-6.7l-0.71,0l-0,3.14l-0.05,0c-0.22,-0.85 -0.95,-1.48 -2.12,-1.48c-1.52,0 -2.4,1.07 -2.4,2.57c-0,1.5 0.88,2.57 2.46,2.57Zm-1.74,-2.57c-0,-1.43 0.77,-1.91 1.9,-1.91c1.22,0 1.95,0.68 1.95,1.9l-0,0.09c-0,1.17 -0.77,1.84 -1.93,1.84c-1.16,0 -1.92,-0.49 -1.92,-1.92Z" style="fill:#321914;fill-rule:nonzero;"/><path d="M60.644,31.18c1.62,0 2.69,-1.07 2.69,-2.57c-0,-1.5 -1.07,-2.57 -2.69,-2.57c-1.61,0 -2.68,1.07 -2.68,2.57c-0,1.5 1.07,2.57 2.68,2.57Zm-0,-0.64c-1.36,0 -1.98,-0.73 -1.98,-1.93c-0,-1.19 0.62,-1.93 1.98,-1.93c1.36,0 1.99,0.74 1.99,1.93c-0,1.2 -0.63,1.93 -1.99,1.93Z" style="fill:#321914;fill-rule:nonzero;"/><path d="M65.094,25.51l-0,-1.13l-0.71,0l-0,1.13l0.71,0Zm-0,5.57l-0,-4.94l-0.71,0l-0,4.94l0.71,0Z" style="fill:#321914;fill-rule:nonzero;"/><rect x="66.394" y="24.38" width="0.71" height="6.7" style="fill:#321914;fill-rule:nonzero;"/><path d="M69.774,31.18c1.15,0 2.02,-0.52 2.31,-1.43l0.05,0l-0,1.33l0.64,0l-0,-3.09c-0,-1.09 -0.64,-1.95 -2.14,-1.95c-1.52,0 -2.38,0.85 -2.38,1.89l-0,0.04l0.71,0l-0,-0.04c-0,-0.87 0.56,-1.25 1.62,-1.25c1.08,0 1.5,0.38 1.5,1.34l-0,0.38l-2.35,0.26c-0.92,0.1 -1.59,0.45 -1.59,1.26c-0,0.8 0.66,1.26 1.63,1.26Zm-0.92,-1.31c-0,-0.51 0.36,-0.69 1.1,-0.76l2.13,-0.24l-0,0.04c-0,1.19 -0.95,1.72 -2.15,1.72c-0.75,0 -1.08,-0.26 -1.08,-0.76Z" style="fill:#321914;fill-rule:nonzero;"/><path d="M74.764,31.08l-0,-2.68c-0,-1.11 0.44,-1.74 1.44,-1.74c0.86,0 1.21,0.41 1.21,1.25l-0,0.38l0.71,0l-0,-0.49c-0,-0.92 -0.5,-1.76 -1.64,-1.76c-1.03,0 -1.59,0.66 -1.74,1.45l-0.05,0l-0,-1.35l-0.64,0l-0,4.94l0.71,0Z" style="fill:#321914;fill-rule:nonzero;"/><path d="M79.764,25.51l-0,-1.13l-0.71,0l-0,1.13l0.71,0Zm-0,5.57l-0,-4.94l-0.71,0l-0,4.94l0.71,0Z" style="fill:#321914;fill-rule:nonzero;"/><path d="M82.434,31.18c1.15,0 2.02,-0.52 2.31,-1.43l0.05,0l-0,1.33l0.64,0l-0,-3.09c-0,-1.09 -0.64,-1.95 -2.14,-1.95c-1.52,0 -2.38,0.85 -2.38,1.89l-0,0.04l0.71,0l-0,-0.04c-0,-0.87 0.56,-1.25 1.62,-1.25c1.08,0 1.5,0.38 1.5,1.34l-0,0.38l-2.35,0.26c-0.92,0.1 -1.59,0.45 -1.59,1.26c-0,0.8 0.66,1.26 1.63,1.26Zm-0.92,-1.31c-0,-0.51 0.36,-0.69 1.1,-0.76l2.13,-0.24l-0,0.04c-0,1.19 -0.95,1.72 -2.15,1.72c-0.75,0 -1.08,-0.26 -1.08,-0.76Z" style="fill:#321914;fill-rule:nonzero;"/><path d="M91.014,31.18c1.38,0 2.4,-0.71 2.4,-1.74l-0,-0.07l-0.71,0l-0,0.07c-0,0.72 -0.54,1.15 -1.7,1.15c-1.31,0 -1.88,-0.67 -1.92,-1.78l4.35,0c0.03,-0.13 0.05,-0.28 0.05,-0.46c-0,-1.47 -1.03,-2.31 -2.48,-2.31c-1.59,0 -2.59,1.07 -2.59,2.57c-0,1.57 1.01,2.57 2.6,2.57Zm-0.02,-4.55c1.16,0 1.82,0.55 1.82,1.59l-0,0.15l-3.73,0c0.05,-1.08 0.63,-1.74 1.91,-1.74Z" style="fill:#321914;fill-rule:nonzero;"/><path d="M97.564,31.08l-0,-0.65l-0.9,0c-0.72,0 -1.06,-0.19 -1.06,-0.88l-0,-2.8l1.96,0l-0,-0.61l-1.96,0l-0,-1.18l-0.72,0l-0,1.18l-0.88,0l-0,0.61l0.88,0l-0,2.76c-0,1.16 0.63,1.57 1.61,1.57l1.07,0Z" style="fill:#321914;fill-rule:nonzero;"/><path d="M99.824,31.18c1.15,0 2.02,-0.52 2.31,-1.43l0.05,0l-0,1.33l0.64,0l-0,-3.09c-0,-1.09 -0.64,-1.95 -2.14,-1.95c-1.52,0 -2.38,0.85 -2.38,1.89l-0,0.04l0.71,0l-0,-0.04c-0,-0.87 0.56,-1.25 1.62,-1.25c1.08,0 1.5,0.38 1.5,1.34l-0,0.38l-2.35,0.26c-0.92,0.1 -1.59,0.45 -1.59,1.26c-0,0.8 0.66,1.26 1.63,1.26Zm-0.92,-1.31c-0,-0.51 0.36,-0.69 1.1,-0.76l2.13,-0.24l-0,0.04c-0,1.19 -0.95,1.72 -2.15,1.72c-0.75,0 -1.08,-0.26 -1.08,-0.76Z" style="fill:#321914;fill-rule:nonzero;"/><path d="M110.724,31.08l-0,-0.63l-3.2,0l-0.89,0.02l-0,-0.05l0.89,-0.77l3.05,-2.88l-0,-0.63l-4.71,0l-0,0.64l2.71,0l1.04,-0.02l-0,0.05l-1.04,0.92l-2.86,2.73l-0,0.62l5.01,0Z" style="fill:#321914;fill-rule:nonzero;"/><path d="M113.764,31.18c1.23,0 1.94,-0.8 2.11,-1.64l0.05,0l-0,1.54l0.64,0l-0,-4.94l-0.71,0l-0,2.4c-0,1.27 -0.63,2 -1.84,2c-1.14,0 -1.64,-0.59 -1.64,-1.62l-0,-2.78l-0.71,0l-0,2.89c-0,1.17 0.69,2.15 2.1,2.15Z" style="fill:#321914;fill-rule:nonzero;"/><path d="M122.534,31.08l-0,-0.63l-3.2,0l-0.89,0.02l-0,-0.05l0.89,-0.77l3.05,-2.88l-0,-0.63l-4.71,0l-0,0.64l2.71,0l1.04,-0.02l-0,0.05l-1.04,0.92l-2.86,2.73l-0,0.62l5.01,0Z" style="fill:#321914;fill-rule:nonzero;"/><path d="M125.854,31.18c1.38,0 2.4,-0.71 2.4,-1.74l-0,-0.07l-0.71,0l-0,0.07c-0,0.72 -0.54,1.15 -1.7,1.15c-1.31,0 -1.88,-0.67 -1.92,-1.78l4.35,0c0.03,-0.13 0.05,-0.28 0.05,-0.46c-0,-1.47 -1.03,-2.31 -2.48,-2.31c-1.59,0 -2.59,1.07 -2.59,2.57c-0,1.57 1.01,2.57 2.6,2.57Zm-0.02,-4.55c1.16,0 1.82,0.55 1.82,1.59l-0,0.15l-3.73,0c0.05,-1.08 0.63,-1.74 1.91,-1.74Z" style="fill:#321914;fill-rule:nonzero;"/><path d="M130.084,31.08l-0,-2.39c-0,-1.27 0.63,-2 1.83,-2c1.13,0 1.62,0.59 1.62,1.61l-0,2.78l0.71,0l-0,-2.88c-0,-1.17 -0.69,-2.16 -2.08,-2.16c-1.23,0 -1.93,0.81 -2.1,1.65l-0.05,0l-0,-1.55l-0.64,0l-0,4.94l0.71,0Z" style="fill:#321914;fill-rule:nonzero;"/><path d="M137.644,31.18c1.09,0 1.89,-0.57 2.13,-1.56l0.04,0l-0,1.46l0.65,0l-0,-6.7l-0.71,0l-0,3.14l-0.05,0c-0.22,-0.85 -0.95,-1.48 -2.12,-1.48c-1.52,0 -2.4,1.07 -2.4,2.57c-0,1.5 0.88,2.57 2.46,2.57Zm-1.74,-2.57c-0,-1.43 0.77,-1.91 1.9,-1.91c1.22,0 1.95,0.68 1.95,1.9l-0,0.09c-0,1.17 -0.77,1.84 -1.93,1.84c-1.16,0 -1.92,-0.49 -1.92,-1.92Z" style="fill:#321914;fill-rule:nonzero;"/><path d="M143.134,31.18c1.15,0 2.02,-0.52 2.31,-1.43l0.05,0l-0,1.33l0.64,0l-0,-3.09c-0,-1.09 -0.64,-1.95 -2.14,-1.95c-1.52,0 -2.38,0.85 -2.38,1.89l-0,0.04l0.71,0l-0,-0.04c-0,-0.87 0.56,-1.25 1.62,-1.25c1.08,0 1.5,0.38 1.5,1.34l-0,0.38l-2.35,0.26c-0.92,0.1 -1.59,0.45 -1.59,1.26c-0,0.8 0.66,1.26 1.63,1.26Zm-0.92,-1.31c-0,-0.51 0.36,-0.69 1.1,-0.76l2.13,-0.24l-0,0.04c-0,1.19 -0.95,1.72 -2.15,1.72c-0.75,0 -1.08,-0.26 -1.08,-0.76Z" style="fill:#321914;fill-rule:nonzero;"/><path d="M148.124,31.08l-0,-2.68c-0,-1.11 0.44,-1.74 1.44,-1.74c0.86,0 1.21,0.41 1.21,1.25l-0,0.38l0.71,0l-0,-0.49c-0,-0.92 -0.5,-1.76 -1.64,-1.76c-1.03,0 -1.59,0.66 -1.74,1.45l-0.05,0l-0,-1.35l-0.64,0l-0,4.94l0.71,0Z" style="fill:#321914;fill-rule:nonzero;"/><path d="M153.124,25.51l-0,-1.13l-0.71,0l-0,1.13l0.71,0Zm-0,5.57l-0,-4.94l-0.71,0l-0,4.94l0.71,0Z" style="fill:#321914;fill-rule:nonzero;"/><path d="M155.794,31.18c1.15,0 2.02,-0.52 2.31,-1.43l0.05,0l-0,1.33l0.64,0l-0,-3.09c-0,-1.09 -0.64,-1.95 -2.14,-1.95c-1.52,0 -2.38,0.85 -2.38,1.89l-0,0.04l0.71,0l-0,-0.04c-0,-0.87 0.56,-1.25 1.62,-1.25c1.08,0 1.5,0.38 1.5,1.34l-0,0.38l-2.35,0.26c-0.92,0.1 -1.59,0.45 -1.59,1.26c-0,0.8 0.66,1.26 1.63,1.26Zm-0.92,-1.31c-0,-0.51 0.36,-0.69 1.1,-0.76l2.13,-0.24l-0,0.04c-0,1.19 -0.95,1.72 -2.15,1.72c-0.75,0 -1.08,-0.26 -1.08,-0.76Z" style="fill:#321914;fill-rule:nonzero;"/></g><g><path d="M10.752,16.08l-0,-5.304l7.248,-10.776l-4.464,-0l-3.072,4.704l-1.344,2.16l-0.264,-0l-1.344,-2.16l-3.072,-4.704l-4.44,-0l7.128,10.752l-0,5.328l3.624,-0Z" style="fill:#004097;fill-rule:nonzero;"/><path d="M23.664,16.32c3.168,-0 4.632,-1.896 4.944,-3.912l0.192,-0l-0,3.672l3.36,-0l-0,-12.024l-3.6,-0l-0,6.096c-0,2.04 -0.84,2.952 -3.192,2.952c-2.28,-0 -3.096,-0.816 -3.096,-2.76l-0,-6.288l-3.6,-0l-0,7.488c-0,2.688 1.608,4.776 4.992,4.776Z" style="fill:#004097;fill-rule:nonzero;"/><path d="M37.608,16.08l-0,-6.96c-0,-1.512 0.576,-2.256 2.184,-2.256c1.464,-0 1.992,0.576 1.992,1.896l-0,1.248l3.6,-0l-0,-1.992c-0,-2.352 -1.104,-4.2 -3.792,-4.2c-2.424,-0 -3.696,1.488 -4.032,3.432l-0.216,-0l-0,-3.192l-3.336,-0l-0,12.024l3.6,-0Z" style="fill:#004097;fill-rule:nonzero;"/><path d="M50.28,16.08l-0,-6.96c-0,-1.512 0.576,-2.256 2.184,-2.256c1.464,-0 1.992,0.576 1.992,1.896l-0,1.248l3.6,-0l-0,-1.992c-0,-2.352 -1.104,-4.2 -3.792,-4.2c-2.424,-0 -3.696,1.488 -4.032,3.432l-0.216,-0l-0,-3.192l-3.336,-0l-0,12.024l3.6,-0Z" style="fill:#004097;fill-rule:nonzero;"/><path d="M65.736,16.32c3.816,-0 6.36,-1.824 6.36,-4.44l-0,-0.264l-3.6,-0l-0,0.24c-0,1.032 -0.744,1.584 -2.88,1.584c-2.328,-0 -3.192,-0.792 -3.288,-2.64l9.792,-0c0.048,-0.408 0.096,-0.72 0.096,-1.152c-0,-3.768 -2.616,-5.832 -6.552,-5.832c-3.96,-0 -6.672,2.424 -6.672,6.264c-0,4.272 2.736,6.24 6.744,6.24Zm-0.144,-9.696c2.112,-0 3.072,0.696 3.168,2.28l-6.384,-0c0.168,-1.56 1.08,-2.28 3.216,-2.28Z" style="fill:#004097;fill-rule:nonzero;"/><path d="M85.224,16.32c5.256,-0 7.896,-2.64 7.896,-6.96l-0,-9.36l-3.6,-0l-0,9.096c-0,2.736 -1.008,3.72 -4.296,3.72c-3.264,-0 -4.296,-0.984 -4.296,-3.72l-0,-9.096l-3.6,-0l-0,9.36c-0,4.32 2.664,6.96 7.896,6.96Z" style="fill:#004097;fill-rule:nonzero;"/><path d="M100.224,14.856c2.688,-0 4.104,-1.224 4.488,-3l0.192,-0l-0,2.712c-0,2.352 -0.696,2.832 -3,2.832c-2.448,-0 -2.976,-0.408 -2.976,-1.752l-3.6,-0c-0,3.024 2.448,4.752 6.336,4.752c4.296,-0 6.84,-1.872 6.84,-6.072l-0,-10.272l-3.36,-0l-0,2.904l-0.192,-0c-0.384,-2.088 -2.136,-3.144 -4.584,-3.144c-3.6,-0 -5.784,2.16 -5.784,5.52c-0,3.384 2.064,5.52 5.64,5.52Zm-2.016,-5.52c-0,-1.776 1.008,-2.4 3.312,-2.4c2.232,-0 3.384,0.624 3.384,2.256l-0,0.264c-0,1.656 -1.128,2.304 -3.432,2.304c-2.256,-0 -3.264,-0.648 -3.264,-2.424Z" style="fill:#004097;fill-rule:nonzero;"/><path d="M114.12,16.32c2.664,-0 4.344,-1.128 4.896,-3l0.192,-0l-0,2.76l3.36,-0l-0,-7.056c-0,-3.144 -1.896,-5.208 -5.904,-5.208c-3.96,-0 -6.456,2.064 -6.456,5.04l-0,0.072l3.624,-0l-0,-0.096c-0,-1.368 0.744,-1.848 2.568,-1.848c1.92,-0 2.616,0.432 2.616,1.992l-0,0.456l-5.16,0.528c-2.568,0.264 -3.888,1.368 -3.888,3.144c-0,2.016 1.56,3.216 4.152,3.216Zm-0.528,-3.456c-0,-0.576 0.384,-0.816 1.248,-0.888l4.176,-0.48c-0.096,1.704 -1.416,2.28 -3.864,2.28c-1.056,-0 -1.56,-0.264 -1.56,-0.912Z" style="fill:#004097;fill-rule:nonzero;"/><path d="M127.992,16.08l-0,-6.96c-0,-1.512 0.576,-2.256 2.184,-2.256c1.464,-0 1.992,0.576 1.992,1.896l-0,1.248l3.6,-0l-0,-1.992c-0,-2.352 -1.104,-4.2 -3.792,-4.2c-2.424,-0 -3.696,1.488 -4.032,3.432l-0.216,-0l-0,-3.192l-3.336,-0l-0,12.024l3.6,-0Z" style="fill:#004097;fill-rule:nonzero;"/><path d="M145.536,16.08l-0,-3.24l-2.16,-0c-1.272,-0 -1.728,-0.312 -1.728,-1.512l-0,-4.296l3.888,-0l-0,-2.976l-3.888,-0l-0,-2.328l-3.6,-0l-0,2.328l-1.896,-0l-0,2.976l1.896,-0l-0,4.704c-0,3.024 1.704,4.344 4.512,4.344l2.976,-0Z" style="fill:#004097;fill-rule:nonzero;"/><path d="M153.264,16.32c3.816,-0 6.36,-1.824 6.36,-4.44l-0,-0.264l-3.6,-0l-0,0.24c-0,1.032 -0.744,1.584 -2.88,1.584c-2.328,-0 -3.192,-0.792 -3.288,-2.64l9.792,-0c0.048,-0.408 0.096,-0.72 0.096,-1.152c-0,-3.768 -2.616,-5.832 -6.552,-5.832c-3.96,-0 -6.672,2.424 -6.672,6.264c-0,4.272 2.736,6.24 6.744,6.24Zm-0.144,-9.696c2.112,-0 3.072,0.696 3.168,2.28l-6.384,-0c0.168,-1.56 1.08,-2.28 3.216,-2.28Z" style="fill:#004097;fill-rule:nonzero;"/></g></svg>