<?xml version="1.0" encoding="UTF-8" standalone="no"?><!DOCTYPE svg PUBLIC "-//W3C//DTD SVG 1.1//EN" "http://www.w3.org/Graphics/SVG/1.1/DTD/svg11.dtd"><svg width="100%" height="100%" viewBox="0 0 560 301" version="1.1" xmlns="http://www.w3.org/2000/svg" xmlns:xlink="http://www.w3.org/1999/xlink" xml:space="preserve" xmlns:serif="http://www.serif.com/" style="fill-rule:evenodd;clip-rule:evenodd;stroke-linejoin:round;stroke-miterlimit:2;"><g><path d="M166.05,295.78c4.144,-0 7.056,-2.044 7.056,-5.012l-0,-0.252l-3.024,0l-0,0.224c-0,1.652 -1.204,2.604 -4.116,2.604c-3.22,0 -4.536,-1.428 -4.648,-4.116l11.816,0c0.084,-0.42 0.112,-0.812 0.112,-1.316c-0,-4.228 -2.94,-6.608 -7.252,-6.608c-4.536,-0 -7.504,2.912 -7.504,7.252c-0,4.648 2.996,7.224 7.56,7.224Zm-0.112,-12.096c2.968,0 4.452,1.232 4.452,3.808l-0,0.056l-9.044,0c0.168,-2.492 1.512,-3.864 4.592,-3.864Z" style="fill:#321914;fill-rule:nonzero;"/><path d="M182.094,295.78c3.92,-0 6.496,-1.54 6.496,-4.144c-0,-2.296 -1.512,-3.416 -4.816,-3.836l-3.22,-0.448c-2.1,-0.28 -2.66,-0.672 -2.66,-1.764c-0,-1.316 0.896,-1.876 3.444,-1.876c3.08,-0 3.92,0.868 3.92,2.52l-0,0.168l2.996,-0l-0,-0.084c-0,-3.304 -2.576,-5.012 -6.832,-5.012c-4.284,-0 -6.496,1.736 -6.496,4.172c-0,2.324 1.596,3.444 4.228,3.78l3.808,0.504c1.988,0.28 2.66,0.644 2.66,1.792c-0,1.232 -0.812,1.792 -3.528,1.792c-2.912,0 -4.004,-0.588 -4.004,-2.408l-0,-0.224l-3.024,0l-0,0.084c-0,3.22 2.548,4.984 7.028,4.984Z" style="fill:#321914;fill-rule:nonzero;"/><path d="M197.802,295.78c4.172,-0 7.224,-2.352 7.224,-5.824l-0,-0.308l-2.996,0l-0,0.196c-0,2.156 -1.568,3.22 -4.284,3.22c-3.136,-0 -4.536,-1.512 -4.536,-4.508c-0,-3.052 1.4,-4.536 4.536,-4.536c2.716,-0 4.284,1.064 4.284,3.22l-0,0.168l2.996,-0l-0,-0.28c-0,-3.472 -3.052,-5.824 -7.224,-5.824c-4.592,-0 -7.588,2.912 -7.588,7.252c-0,4.284 2.996,7.224 7.588,7.224Z" style="fill:#321914;fill-rule:nonzero;"/><path d="M210.29,295.5l-0,-7.812c-0,-2.492 0.98,-3.808 3.36,-3.808c2.072,0 2.912,0.924 2.912,2.912l-0,1.232l2.996,0l-0,-1.82c-0,-2.632 -1.372,-4.9 -4.536,-4.9c-2.856,-0 -4.368,1.792 -4.788,4.032l-0.196,0l-0,-3.752l-2.772,0l-0,13.916l3.024,0Z" style="fill:#321914;fill-rule:nonzero;"/><path d="M224.486,279.96l-0,-3.22l-3.024,0l-0,3.22l3.024,0Zm-0,15.54l-0,-13.916l-3.024,0l-0,13.916l3.024,0Z" style="fill:#321914;fill-rule:nonzero;"/><path d="M236.414,295.5l-0,-2.716l-2.52,0c-1.736,0 -2.52,-0.448 -2.52,-2.156l-0,-6.524l5.04,0l-0,-2.52l-5.04,0l-0,-3.052l-2.996,0l-0,3.052l-2.352,0l-0,2.52l2.352,0l-0,6.692c-0,3.388 1.848,4.704 4.844,4.704l3.192,0Z" style="fill:#321914;fill-rule:nonzero;"/><path d="M245.43,295.78c4.648,-0 7.756,-2.94 7.756,-7.224c-0,-4.34 -3.108,-7.252 -7.756,-7.252c-4.62,-0 -7.728,2.912 -7.728,7.252c-0,4.284 3.108,7.224 7.728,7.224Zm-0,-2.688c-3.36,-0 -4.76,-1.596 -4.76,-4.536c-0,-2.968 1.4,-4.592 4.76,-4.592c3.388,-0 4.788,1.624 4.788,4.592c-0,2.94 -1.4,4.536 -4.788,4.536Z" style="fill:#321914;fill-rule:nonzero;"/><path d="M258.394,295.5l-0,-7.812c-0,-2.492 0.98,-3.808 3.36,-3.808c2.072,0 2.912,0.924 2.912,2.912l-0,1.232l2.996,0l-0,-1.82c-0,-2.632 -1.372,-4.9 -4.536,-4.9c-2.856,-0 -4.368,1.792 -4.788,4.032l-0.196,0l-0,-3.752l-2.772,0l-0,13.916l3.024,0Z" style="fill:#321914;fill-rule:nonzero;"/><path d="M273.654,295.78c3.164,-0 5.376,-1.4 6.104,-3.752l0.196,0l-0,3.472l2.772,0l-0,-8.456c-0,-3.332 -1.988,-5.74 -6.412,-5.74c-4.424,0 -7.056,2.38 -7.056,5.544l-0,0.112l2.996,0l-0,-0.112c-0,-2.044 1.26,-2.884 3.836,-2.884c2.66,0 3.668,0.812 3.668,3.108l-0,0.812l-6.328,0.672c-2.744,0.308 -4.48,1.428 -4.48,3.584c-0,2.296 1.82,3.64 4.704,3.64Zm-1.68,-3.836c-0,-1.092 0.756,-1.456 2.324,-1.652l5.46,-0.616c-0,2.744 -2.128,3.92 -5.292,3.92c-1.736,0 -2.492,-0.532 -2.492,-1.652Z" style="fill:#321914;fill-rule:nonzero;"/><path d="M285.918,298.636c1.736,0 2.744,-0.84 2.744,-2.576l-0,-4.9l-3.808,0l-0,4.34l1.68,0l-0,0.588c-0,0.588 -0.224,0.7 -0.7,0.7l-0.924,0l-0,1.848l1.008,0Z" style="fill:#321914;fill-rule:nonzero;"/><path d="M301.738,294.24c3.164,0 5.04,-1.512 5.544,-3.612l0.196,0l-0,3.416c-0,3.108 -1.148,3.976 -4.312,3.976c-2.968,0 -4.144,-0.756 -4.144,-2.772l-2.996,0c-0,3.36 2.856,5.292 6.972,5.292c4.564,0 7.476,-1.988 7.476,-6.664l-0,-12.292l-2.772,0l-0,3.472l-0.168,0c-0.504,-2.436 -2.688,-3.752 -5.6,-3.752c-4.228,0 -6.804,2.604 -6.804,6.468c-0,3.864 2.464,6.468 6.608,6.468Zm-3.556,-6.468c-0,-2.856 1.708,-3.836 4.62,-3.836c2.94,0 4.676,1.204 4.676,3.556l-0,0.392c-0,2.464 -1.68,3.752 -4.76,3.752c-2.856,0 -4.536,-1.008 -4.536,-3.864Z" style="fill:#321914;fill-rule:nonzero;"/><path d="M319.07,295.78c3.584,-0 5.432,-2.24 5.88,-4.592l0.168,-0l-0,4.312l2.772,-0l-0,-13.916l-2.996,-0l-0,6.888c-0,3.024 -1.428,4.592 -4.508,4.592c-2.94,0 -4.144,-1.316 -4.144,-3.92l-0,-7.56l-2.996,0l-0,8.372c-0,3.22 1.904,5.824 5.824,5.824Z" style="fill:#321914;fill-rule:nonzero;"/><path d="M333.658,279.96l-0,-3.22l-3.024,0l-0,3.22l3.024,0Zm-0,15.54l-0,-13.916l-3.024,0l-0,13.916l3.024,0Z" style="fill:#321914;fill-rule:nonzero;"/><path d="M343.57,295.78c4.648,-0 7.756,-2.94 7.756,-7.224c-0,-4.34 -3.108,-7.252 -7.756,-7.252c-4.62,-0 -7.728,2.912 -7.728,7.252c-0,4.284 3.108,7.224 7.728,7.224Zm-0,-2.688c-3.36,-0 -4.76,-1.596 -4.76,-4.536c-0,-2.968 1.4,-4.592 4.76,-4.592c3.388,-0 4.788,1.624 4.788,4.592c-0,2.94 -1.4,4.536 -4.788,4.536Z" style="fill:#321914;fill-rule:nonzero;"/><path d="M356.534,295.5l-0,-6.888c-0,-3.024 1.372,-4.592 4.424,-4.592c2.884,-0 4.06,1.316 4.06,3.92l-0,7.56l3.024,-0l-0,-8.372c-0,-3.22 -1.904,-5.824 -5.768,-5.824c-3.528,-0 -5.376,2.24 -5.796,4.592l-0.196,0l-0,-4.312l-2.772,0l-0,13.916l3.024,0Z" style="fill:#321914;fill-rule:nonzero;"/><path d="M373.754,279.96l-0,-3.22l-3.024,0l-0,3.22l3.024,0Zm-0,15.54l-0,-13.916l-3.024,0l-0,13.916l3.024,0Z" style="fill:#321914;fill-rule:nonzero;"/><path d="M383.134,295.78c3.92,-0 6.496,-1.54 6.496,-4.144c-0,-2.296 -1.512,-3.416 -4.816,-3.836l-3.22,-0.448c-2.1,-0.28 -2.66,-0.672 -2.66,-1.764c-0,-1.316 0.896,-1.876 3.444,-1.876c3.08,-0 3.92,0.868 3.92,2.52l-0,0.168l2.996,-0l-0,-0.084c-0,-3.304 -2.576,-5.012 -6.832,-5.012c-4.284,-0 -6.496,1.736 -6.496,4.172c-0,2.324 1.596,3.444 4.228,3.78l3.808,0.504c1.988,0.28 2.66,0.644 2.66,1.792c-0,1.232 -0.812,1.792 -3.528,1.792c-2.912,0 -4.004,-0.588 -4.004,-2.408l-0,-0.224l-3.024,0l-0,0.084c-0,3.22 2.548,4.984 7.028,4.984Z" style="fill:#321914;fill-rule:nonzero;"/><path d="M400.942,295.5l-0,-2.716l-2.52,0c-1.736,0 -2.52,-0.448 -2.52,-2.156l-0,-6.524l5.04,0l-0,-2.52l-5.04,0l-0,-3.052l-2.996,0l-0,3.052l-2.352,0l-0,2.52l2.352,0l-0,6.692c-0,3.388 1.848,4.704 4.844,4.704l3.192,0Z" style="fill:#321914;fill-rule:nonzero;"/><path d="M406.934,295.78c3.164,-0 5.376,-1.4 6.104,-3.752l0.196,0l-0,3.472l2.772,0l-0,-8.456c-0,-3.332 -1.988,-5.74 -6.412,-5.74c-4.424,0 -7.056,2.38 -7.056,5.544l-0,0.112l2.996,0l-0,-0.112c-0,-2.044 1.26,-2.884 3.836,-2.884c2.66,0 3.668,0.812 3.668,3.108l-0,0.812l-6.328,0.672c-2.744,0.308 -4.48,1.428 -4.48,3.584c-0,2.296 1.82,3.64 4.704,3.64Zm-1.68,-3.836c-0,-1.092 0.756,-1.456 2.324,-1.652l5.46,-0.616c-0,2.744 -2.128,3.92 -5.292,3.92c-1.736,0 -2.492,-0.532 -2.492,-1.652Z" style="fill:#321914;fill-rule:nonzero;"/><path d="M419.198,298.636c1.736,0 2.744,-0.84 2.744,-2.576l-0,-4.9l-3.808,0l-0,4.34l1.68,0l-0,0.588c-0,0.588 -0.224,0.7 -0.7,0.7l-0.924,0l-0,1.848l1.008,0Z" style="fill:#321914;fill-rule:nonzero;"/><path d="M435.102,295.78c3.136,-0 5.18,-1.512 5.768,-4.284l0.196,-0l-0,4.004l2.772,-0l-0,-18.76l-3.024,-0l-0,8.624l-0.168,-0c-0.56,-2.352 -2.436,-4.06 -5.74,-4.06c-4.228,-0 -6.636,2.912 -6.636,7.252c-0,4.284 2.436,7.224 6.832,7.224Zm-3.78,-7.224c-0,-3.36 1.736,-4.508 4.648,-4.508c3.108,-0 4.844,1.456 4.844,4.424l-0,0.224c-0,2.912 -1.82,4.312 -4.788,4.312c-2.996,-0 -4.704,-1.12 -4.704,-4.452Z" style="fill:#321914;fill-rule:nonzero;"/><path d="M449.662,279.96l-0,-3.22l-3.024,0l-0,3.22l3.024,0Zm-0,15.54l-0,-13.916l-3.024,0l-0,13.916l3.024,0Z" style="fill:#321914;fill-rule:nonzero;"/><path d="M455.486,295.5l-0,-7.812c-0,-2.492 0.98,-3.808 3.36,-3.808c2.072,0 2.912,0.924 2.912,2.912l-0,1.232l2.996,0l-0,-1.82c-0,-2.632 -1.372,-4.9 -4.536,-4.9c-2.856,-0 -4.368,1.792 -4.788,4.032l-0.196,0l0,-3.752l-2.772,0l-0,13.916l3.024,0Z" style="fill:#321914;fill-rule:nonzero;"/><path d="M473.658,295.78c4.144,-0 7.056,-2.044 7.056,-5.012l-0,-0.252l-3.024,0l-0,0.224c-0,1.652 -1.204,2.604 -4.116,2.604c-3.22,0 -4.536,-1.428 -4.648,-4.116l11.816,0c0.084,-0.42 0.112,-0.812 0.112,-1.316c-0,-4.228 -2.94,-6.608 -7.252,-6.608c-4.536,-0 -7.504,2.912 -7.504,7.252c-0,4.648 2.996,7.224 7.56,7.224Zm-0.112,-12.096c2.968,0 4.452,1.232 4.452,3.808l0,0.056l-9.044,0c0.168,-2.492 1.512,-3.864 4.592,-3.864Z" style="fill:#321914;fill-rule:nonzero;"/><path d="M490.15,295.78c4.172,-0 7.224,-2.352 7.224,-5.824l-0,-0.308l-2.996,0l-0,0.196c-0,2.156 -1.568,3.22 -4.284,3.22c-3.136,-0 -4.536,-1.512 -4.536,-4.508c-0,-3.052 1.4,-4.536 4.536,-4.536c2.716,-0 4.284,1.064 4.284,3.22l-0,0.168l2.996,-0l-0,-0.28c-0,-3.472 -3.052,-5.824 -7.224,-5.824c-4.592,-0 -7.588,2.912 -7.588,7.252c-0,4.284 2.996,7.224 7.588,7.224Z" style="fill:#321914;fill-rule:nonzero;"/><path d="M508.742,295.5l-0,-2.716l-2.52,0c-1.736,0 -2.52,-0.448 -2.52,-2.156l-0,-6.524l5.04,0l-0,-2.52l-5.04,0l-0,-3.052l-2.996,0l-0,3.052l-2.352,0l-0,2.52l2.352,0l-0,6.692c-0,3.388 1.848,4.704 4.844,4.704l3.192,0Z" style="fill:#321914;fill-rule:nonzero;"/><path d="M517.758,295.78c4.648,-0 7.756,-2.94 7.756,-7.224c-0,-4.34 -3.108,-7.252 -7.756,-7.252c-4.62,-0 -7.728,2.912 -7.728,7.252c-0,4.284 3.108,7.224 7.728,7.224Zm-0,-2.688c-3.36,-0 -4.76,-1.596 -4.76,-4.536c-0,-2.968 1.4,-4.592 4.76,-4.592c3.388,-0 4.788,1.624 4.788,4.592c-0,2.94 -1.4,4.536 -4.788,4.536Z" style="fill:#321914;fill-rule:nonzero;"/><path d="M530.722,295.5l0,-7.812c0,-2.492 0.98,-3.808 3.36,-3.808c2.072,0 2.912,0.924 2.912,2.912l-0,1.232l2.996,0l0,-1.82c0,-2.632 -1.372,-4.9 -4.536,-4.9c-2.856,-0 -4.368,1.792 -4.788,4.032l-0.196,0l0,-3.752l-2.772,0l-0,13.916l3.024,0Z" style="fill:#321914;fill-rule:nonzero;"/><path d="M545.982,295.78c3.164,-0 5.376,-1.4 6.104,-3.752l0.196,0l-0,3.472l2.772,0l-0,-8.456c-0,-3.332 -1.988,-5.74 -6.412,-5.74c-4.424,0 -7.056,2.38 -7.056,5.544l0,0.112l2.996,0l0,-0.112c0,-2.044 1.26,-2.884 3.836,-2.884c2.66,0 3.668,0.812 3.668,3.108l0,0.812l-6.328,0.672c-2.744,0.308 -4.48,1.428 -4.48,3.584c0,2.296 1.82,3.64 4.704,3.64Zm-1.68,-3.836c-0,-1.092 0.756,-1.456 2.324,-1.652l5.46,-0.616c0,2.744 -2.128,3.92 -5.292,3.92c-1.736,0 -2.492,-0.532 -2.492,-1.652Z" style="fill:#321914;fill-rule:nonzero;"/></g><g><path d="M94.25,237c32.85,0 49.35,-16.5 49.35,-43.5l-0,-58.5l-22.5,0l-0,56.85c-0,17.1 -6.3,23.25 -26.85,23.25c-20.4,0 -26.85,-6.15 -26.85,-23.25l-0,-56.85l-22.5,0l-0,58.5c-0,27 16.65,43.5 49.35,43.5Z" style="fill:#004097;fill-rule:nonzero;"/><path d="M188,227.85c16.8,0 25.65,-7.65 28.05,-18.75l1.2,0l-0,16.95c-0,14.7 -4.35,17.7 -18.75,17.7c-15.3,0 -18.6,-2.55 -18.6,-10.95l-22.5,0c-0,18.9 15.3,29.7 39.6,29.7c26.85,0 42.75,-11.7 42.75,-37.95l-0,-64.2l-21,-0l-0,18.15l-1.2,-0c-2.4,-13.05 -13.35,-19.65 -28.65,-19.65c-22.5,-0 -36.15,13.5 -36.15,34.5c-0,21.15 12.9,34.5 35.25,34.5Zm-12.6,-34.5c-0,-11.1 6.3,-15 20.7,-15c13.95,-0 21.15,3.9 21.15,14.1l-0,1.65c-0,10.35 -7.05,14.4 -21.45,14.4c-14.1,-0 -20.4,-4.05 -20.4,-15.15Z" style="fill:#004097;fill-rule:nonzero;"/><path d="M274.85,237c16.65,0 27.15,-7.05 30.6,-18.75l1.2,0l-0,17.25l21,0l-0,-44.1c-0,-19.65 -11.85,-32.55 -36.9,-32.55c-24.75,-0 -40.35,12.9 -40.35,31.5l-0,0.45l22.65,0l-0,-0.6c-0,-8.55 4.65,-11.55 16.05,-11.55c12,0 16.35,2.7 16.35,12.45l-0,2.85l-32.25,3.3c-16.05,1.65 -24.3,8.55 -24.3,19.65c-0,12.6 9.75,20.1 25.95,20.1Zm-3.3,-21.6c-0,-3.6 2.4,-5.1 7.8,-5.55l26.1,-3c-0.6,10.65 -8.85,14.25 -24.15,14.25c-6.6,0 -9.75,-1.65 -9.75,-5.7Z" style="fill:#004097;fill-rule:nonzero;"/><path d="M361.55,235.5l-0,-43.5c-0,-9.45 3.6,-14.1 13.65,-14.1c9.15,0 12.45,3.6 12.45,11.85l0,7.8l22.5,0l0,-12.45c0,-14.7 -6.9,-26.25 -23.7,-26.25c-15.15,-0 -23.1,9.3 -25.2,21.45l-1.35,0l0,-19.95l-20.85,-0l0,75.15l22.5,-0Z" style="fill:#004097;fill-rule:nonzero;"/><path d="M471.2,235.5l-0,-20.25l-13.5,0c-7.95,0 -10.8,-1.95 -10.8,-9.45l-0,-26.85l24.3,-0l-0,-18.6l-24.3,-0l-0,-14.55l-22.5,0l-0,14.55l-11.85,-0l0,18.6l11.85,-0l-0,29.4c-0,18.9 10.65,27.15 28.2,27.15l18.6,-0Z" style="fill:#004097;fill-rule:nonzero;"/><path d="M519.5,237c23.85,0 39.75,-11.4 39.75,-27.75l-0,-1.65l-22.5,0l-0,1.5c-0,6.45 -4.65,9.9 -18,9.9c-14.55,0 -19.95,-4.95 -20.55,-16.5l61.2,0c0.3,-2.55 0.6,-4.5 0.6,-7.2c-0,-23.55 -16.35,-36.45 -40.95,-36.45c-24.75,-0 -41.7,15.15 -41.7,39.15c-0,26.7 17.1,39 42.15,39Zm-0.9,-60.6c13.2,-0 19.2,4.35 19.8,14.25l-39.9,-0c1.05,-9.75 6.75,-14.25 20.1,-14.25Z" style="fill:#004097;fill-rule:nonzero;"/></g><g><path d="M67.2,100.5l-0,-33.15l45.3,-67.35l-27.9,0l-19.2,29.4l-8.4,13.5l-1.65,-0l-8.4,-13.5l-19.2,-29.4l-27.75,-0l44.55,67.2l-0,33.3l22.65,0Z" style="fill:#004097;fill-rule:nonzero;"/><path d="M147.9,102c19.8,0 28.95,-11.85 30.9,-24.45l1.2,0l0,22.95l21,0l-0,-75.15l-22.5,0l0,38.1c0,12.75 -5.25,18.45 -19.95,18.45c-14.25,0 -19.35,-5.1 -19.35,-17.25l-0,-39.3l-22.5,0l-0,46.8c-0,16.8 10.05,29.85 31.2,29.85Z" style="fill:#004097;fill-rule:nonzero;"/><path d="M235.05,100.5l-0,-43.5c-0,-9.45 3.6,-14.1 13.65,-14.1c9.15,0 12.45,3.6 12.45,11.85l-0,7.8l22.5,0l-0,-12.45c-0,-14.7 -6.9,-26.25 -23.7,-26.25c-15.15,0 -23.1,9.3 -25.2,21.45l-1.35,0l-0,-19.95l-20.85,-0l-0,75.15l22.5,0Z" style="fill:#004097;fill-rule:nonzero;"/><path d="M314.25,100.5l0,-43.5c0,-9.45 3.6,-14.1 13.65,-14.1c9.15,0 12.45,3.6 12.45,11.85l0,7.8l22.5,0l0,-12.45c0,-14.7 -6.9,-26.25 -23.7,-26.25c-15.15,0 -23.1,9.3 -25.2,21.45l-1.35,0l0,-19.95l-20.85,-0l0,75.15l22.5,0Z" style="fill:#004097;fill-rule:nonzero;"/><path d="M410.85,102c23.85,0 39.75,-11.4 39.75,-27.75l-0,-1.65l-22.5,0l-0,1.5c-0,6.45 -4.65,9.9 -18,9.9c-14.55,0 -19.95,-4.95 -20.55,-16.5l61.2,0c0.3,-2.55 0.6,-4.5 0.6,-7.2c-0,-23.55 -16.35,-36.45 -40.95,-36.45c-24.75,0 -41.7,15.15 -41.7,39.15c-0,26.7 17.1,39 42.15,39Zm-0.9,-60.6c13.2,0 19.2,4.35 19.8,14.25l-39.9,0c1.05,-9.75 6.75,-14.25 20.1,-14.25Z" style="fill:#004097;fill-rule:nonzero;"/></g></svg>